<svg xmlns="http://www.w3.org/2000/svg" width="295" height="160" viewBox="0 0 295 160">
  <g id="Grupo_53948" data-name="Grupo 53948" transform="translate(7578 9320)">
    <g id="Grupo_53932" data-name="Grupo 53932" transform="translate(-7753.778 -9818.232)">
      <rect id="Rectángulo_5270" data-name="Rectángulo 5270" width="295" height="160" transform="translate(175.778 498.233)" fill="#dcedef"/>
    </g>
    <g id="Grupo_53946" data-name="Grupo 53946" transform="translate(-7767.451 -9816.638)">
      <g id="Grupo_53886" data-name="Grupo 53886">
        <g id="Grupo_53885" data-name="Grupo 53885">
          <path id="Trazado_100675" data-name="Trazado 100675" d="M302.927,515.5v44.814l17.389-12.259S313.457,516.952,302.927,515.5Z" fill="#f4cab5"/>
        </g>
      </g>
      <g id="Grupo_53888" data-name="Grupo 53888">
        <g id="Grupo_53887" data-name="Grupo 53887">
          <path id="Trazado_100676" data-name="Trazado 100676" d="M294.04,520.781V545.45s23.61,4.43,23.422,4.378S298.29,520.939,294.04,520.781Z" fill="#f4cab5"/>
        </g>
      </g>
      <g id="Grupo_53889" data-name="Grupo 53889">
        <path id="Trazado_100677" data-name="Trazado 100677" d="M319.447,510.67V536l7.052,5.681S323.311,515.4,319.447,510.67Z" fill="#f4cab5"/>
      </g>
      <g id="Grupo_53891" data-name="Grupo 53891">
        <g id="Grupo_53890" data-name="Grupo 53890">
          <path id="Trazado_100678" data-name="Trazado 100678" d="M282.424,530.5v59.634l37.892-37.163S290.661,533.96,282.424,530.5Z" fill="#f4cab5"/>
        </g>
      </g>
      <g id="Grupo_53892" data-name="Grupo 53892">
        <path id="Trazado_100679" data-name="Trazado 100679" d="M336.677,555.549a2.032,2.032,0,0,1-2.032-2.032V510.67a2.032,2.032,0,1,1,4.064,0v42.847A2.032,2.032,0,0,1,336.677,555.549Z" fill="#fff"/>
      </g>
      <g id="Grupo_53893" data-name="Grupo 53893">
        <path id="Trazado_100680" data-name="Trazado 100680" d="M333.68,555.549a2.034,2.034,0,0,1-1.991-1.635c-.265-1.333-6.477-32.761-4.786-43.558a2.032,2.032,0,0,1,4.015.629c-1.58,10.087,4.694,41.816,4.757,42.135a2.031,2.031,0,0,1-1.6,2.39A2.091,2.091,0,0,1,333.68,555.549Z" fill="#fff"/>
      </g>
      <g id="Grupo_53894" data-name="Grupo 53894">
        <path id="Trazado_100681" data-name="Trazado 100681" d="M330.129,555a2.033,2.033,0,0,1-2-1.691c-.055-.322-5.517-32.269-8.591-42.033a2.032,2.032,0,0,1,3.877-1.22c3.156,10.027,8.495,41.246,8.72,42.57a2.032,2.032,0,0,1-1.661,2.345A2.125,2.125,0,0,1,330.129,555Z" fill="#fff"/>
      </g>
      <g id="Grupo_53895" data-name="Grupo 53895">
        <path id="Trazado_100682" data-name="Trazado 100682" d="M324.627,556.756a2.028,2.028,0,0,1-1.5-.66c-.9-.981-22.054-24.127-28.677-34.2a2.032,2.032,0,1,1,3.4-2.233c6.446,9.8,28.061,33.449,28.279,33.686a2.032,2.032,0,0,1-1.5,3.4Z" fill="#fff"/>
      </g>
      <g id="Grupo_53896" data-name="Grupo 53896">
        <path id="Trazado_100683" data-name="Trazado 100683" d="M325.82,558.455a2.022,2.022,0,0,1-1.171-.373c-.311-.22-31.221-22.026-40.913-25.68a2.032,2.032,0,1,1,1.434-3.8c10.175,3.837,40.537,25.254,41.825,26.164a2.032,2.032,0,0,1-1.175,3.692Z" fill="#fff"/>
      </g>
      <g id="Grupo_53897" data-name="Grupo 53897">
        <path id="Trazado_100684" data-name="Trazado 100684" d="M327.255,552.5s-8.109-30.934-13.1-39.811c0,0-7.879,2.441-9.21,2.885,0,0,13.534,20.284,19.306,38.328h0l3.273-1.4Z" fill="#fff"/>
        <path id="Trazado_100685" data-name="Trazado 100685" d="M326.813,563.955a2.034,2.034,0,0,1-1.935-1.414l-2.565-8.02C316.7,536.966,303.385,516.9,303.251,516.7a2.032,2.032,0,0,1,1.048-3.056c1.337-.446,8.929-2.8,9.252-2.9a2.03,2.03,0,0,1,2.372.945c4.641,8.249,11.664,34.149,13.062,39.4a2.035,2.035,0,0,1-.665,3.28l-1.572.672,2,6.258a2.036,2.036,0,0,1-1.936,2.652Zm-18.719-47.249a201.917,201.917,0,0,1,14.966,28.176c-2.54-9.008-6.75-23.127-9.931-29.747C311.742,515.566,309.721,516.2,308.094,516.706Z" fill="#fff"/>
      </g>
      <g id="Grupo_53898" data-name="Grupo 53898">
        <path id="Trazado_100686" data-name="Trazado 100686" d="M345.143,510.67v38.064l-4.637-11.428S339.733,507.383,345.143,510.67Z" fill="#f4cab5"/>
      </g>
      <g id="Grupo_53899" data-name="Grupo 53899">
        <path id="Trazado_100687" data-name="Trazado 100687" d="M339.654,555.549a2.032,2.032,0,0,1-2.032-2.032c0-1.273.041-31.3,3.662-43.428a2.032,2.032,0,1,1,3.894,1.163c-3.452,11.561-3.492,41.959-3.492,42.265A2.032,2.032,0,0,1,339.654,555.549Z" fill="#fff"/>
      </g>
      <g id="Grupo_53901" data-name="Grupo 53901">
        <g id="Grupo_53900" data-name="Grupo 53900">
          <path id="Trazado_100688" data-name="Trazado 100688" d="M352.1,511.782v31.6l-9.293,4.965,1.3-15.7S348.814,510.863,352.1,511.782Z" fill="#f4cab5"/>
        </g>
      </g>
      <g id="Grupo_53902" data-name="Grupo 53902">
        <path id="Trazado_100689" data-name="Trazado 100689" d="M342.486,555.549l-.108,0a2.032,2.032,0,0,1-1.923-2.135c.066-1.273,1.7-31.283,7.723-42.585a2.032,2.032,0,0,1,3.587,1.912c-5.6,10.508-7.236,40.583-7.252,40.885A2.032,2.032,0,0,1,342.486,555.549Z" fill="#fff"/>
      </g>
      <g id="Grupo_53903" data-name="Grupo 53903">
        <path id="Trazado_100690" data-name="Trazado 100690" d="M362.531,516.863v37.86l-17.388,3.768,13.621-39.8Z" fill="#b6bfd9"/>
      </g>
      <g id="Grupo_53904" data-name="Grupo 53904">
        <path id="Trazado_100691" data-name="Trazado 100691" d="M341.441,557.172a2.033,2.033,0,0,1-1.814-2.946l19.255-38.277a2.032,2.032,0,1,1,3.63,1.827l-19.254,38.277A2.034,2.034,0,0,1,341.441,557.172Z" fill="#fff"/>
      </g>
      <g id="Grupo_53906" data-name="Grupo 53906">
        <g id="Grupo_53905" data-name="Grupo 53905">
          <path id="Trazado_100692" data-name="Trazado 100692" d="M370.549,520.781V559.94L344.1,557.235l14.126-25.142S369.1,520.746,370.549,520.781Z" fill="#f4cab5"/>
        </g>
      </g>
      <g id="Grupo_53907" data-name="Grupo 53907">
        <path id="Trazado_100693" data-name="Trazado 100693" d="M344.1,558.51a2.034,2.034,0,0,1-1.828-2.916c.581-1.205,14.359-29.585,25.269-36.527a2.032,2.032,0,0,1,2.182,3.429c-9.939,6.324-23.654,34.579-23.791,34.864A2.033,2.033,0,0,1,344.1,558.51Z" fill="#fff"/>
      </g>
      <g id="Grupo_53909" data-name="Grupo 53909">
        <g id="Grupo_53908" data-name="Grupo 53908">
          <path id="Trazado_100694" data-name="Trazado 100694" d="M389.677,528.448v25.5h-34.2s20.758-19.708,24.344-21.3S389.677,528.448,389.677,528.448Z" fill="#f4cab5"/>
        </g>
      </g>
      <g id="Grupo_53910" data-name="Grupo 53910">
        <path id="Trazado_100695" data-name="Trazado 100695" d="M346.631,559.781a2.032,2.032,0,0,1-1.3-3.6c1.211-1.005,29.791-24.661,41.7-29.073a2.033,2.033,0,0,1,1.412,3.812c-11.266,4.172-40.228,28.147-40.519,28.389A2.031,2.031,0,0,1,346.631,559.781Z" fill="#fff"/>
      </g>
      <g id="Grupo_53911" data-name="Grupo 53911">
        <path id="Trazado_100696" data-name="Trazado 100696" d="M327.255,552.5v88.853l-54.8-14.957V539.762l1.748-1.742Z" fill="#fcba9f"/>
      </g>
      <g id="Grupo_53912" data-name="Grupo 53912">
        <path id="Trazado_100697" data-name="Trazado 100697" d="M400.861,539.762V626.4l-54.8,14.957V552.5l53.057-14.481Z" fill="#fcba9f"/>
      </g>
      <g id="Grupo_53913" data-name="Grupo 53913">
        <path id="Trazado_100698" data-name="Trazado 100698" d="M345.992,641.517H327.521a1.7,1.7,0,0,1-1.7-1.7V554.2a1.7,1.7,0,0,1,1.7-1.7l2.75.434a41.378,41.378,0,0,0,12.815.017l2.906-.451a1.7,1.7,0,0,1,1.7,1.7v85.614A1.7,1.7,0,0,1,345.992,641.517Z" fill="#fcba9f"/>
      </g>
      <g id="Grupo_53914" data-name="Grupo 53914">
        <path id="Trazado_100699" data-name="Trazado 100699" d="M325.822,643.736l-53.37-15.121V539.762l53.37,14.961Z" fill="#e77c20"/>
      </g>
      <g id="Grupo_53916" data-name="Grupo 53916">
        <g id="Grupo_53915" data-name="Grupo 53915">
          <path id="Trazado_100700" data-name="Trazado 100700" d="M347.692,643.736l53.17-15.121V539.762l-53.17,14.961Z" fill="#e77c20"/>
        </g>
      </g>
      <g id="Grupo_53917" data-name="Grupo 53917">
        <path id="Trazado_100701" data-name="Trazado 100701" d="M362.861,632.54a5.851,5.851,0,0,1-5.826-5.845V564.423a5.863,5.863,0,0,1,4.26-5.624l27.076-7.618A5.841,5.841,0,0,1,395.8,556.8v62.19a5.865,5.865,0,0,1-4.244,5.619l-27.076,7.7-.08-.279.08.279A5.932,5.932,0,0,1,362.861,632.54Zm27.107-81a5.282,5.282,0,0,0-1.44.2l-27.076,7.618a5.281,5.281,0,0,0-3.836,5.065V626.7a5.262,5.262,0,0,0,6.7,5.061l27.076-7.7a5.282,5.282,0,0,0,3.822-5.061V556.8a5.266,5.266,0,0,0-5.246-5.264Z" fill="#fff"/>
      </g>
      <g id="Grupo_53918" data-name="Grupo 53918">
        <path id="Trazado_100702" data-name="Trazado 100702" d="M366.126,575.273l24.123-6.861a3.711,3.711,0,0,0,2.7-3.57h0a3.712,3.712,0,0,0-4.718-3.574L364.1,568.056a3.711,3.711,0,0,0-2.706,3.573v.073A3.712,3.712,0,0,0,366.126,575.273Z" fill="#fff"/>
      </g>
      <g id="Grupo_53919" data-name="Grupo 53919">
        <path id="Trazado_100703" data-name="Trazado 100703" d="M310.388,569.9l-27.617-8.712a1.72,1.72,0,0,1-1.25-1.656h0a1.721,1.721,0,0,1,2.187-1.657l27.617,8.678a1.722,1.722,0,0,1,1.255,1.657v.034A1.721,1.721,0,0,1,310.388,569.9Z" fill="#dcedef"/>
      </g>
      <g id="Grupo_53920" data-name="Grupo 53920">
        <path id="Trazado_100704" data-name="Trazado 100704" d="M310.388,575.982l-27.617-8.712a1.72,1.72,0,0,1-1.25-1.655h0a1.721,1.721,0,0,1,2.187-1.657l27.617,8.678a1.722,1.722,0,0,1,1.255,1.657v.034A1.721,1.721,0,0,1,310.388,575.982Z" fill="#dcedef"/>
      </g>
      <g id="Grupo_53921" data-name="Grupo 53921">
        <path id="Trazado_100705" data-name="Trazado 100705" d="M310.388,582.061,292.132,576.3a1.722,1.722,0,0,1-1.25-1.656h0a1.721,1.721,0,0,1,2.187-1.657l18.256,5.725a1.722,1.722,0,0,1,1.255,1.657v.034A1.722,1.722,0,0,1,310.388,582.061Z" fill="#dcedef"/>
      </g>
      <g id="Grupo_53922" data-name="Grupo 53922">
        <path id="Trazado_100706" data-name="Trazado 100706" d="M287.6,574.584l-4.46-1.23a1.722,1.722,0,0,1-1.25-1.656h0a1.721,1.721,0,0,1,2.187-1.657l4.461,1.2a1.722,1.722,0,0,1,1.255,1.657v.034A1.722,1.722,0,0,1,287.6,574.584Z" fill="#dcedef"/>
      </g>
      <g id="Grupo_53923" data-name="Grupo 53923">
        <path id="Trazado_100707" data-name="Trazado 100707" d="M296.149,585.251l-13.378-4.221a1.72,1.72,0,0,1-1.25-1.655h0a1.721,1.721,0,0,1,2.187-1.658l13.378,4.187a1.721,1.721,0,0,1,1.255,1.657v.034A1.722,1.722,0,0,1,296.149,585.251Z" fill="#dcedef"/>
      </g>
      <g id="Grupo_53924" data-name="Grupo 53924">
        <path id="Trazado_100708" data-name="Trazado 100708" d="M303.268,630.142l-13.378-4.22a1.722,1.722,0,0,1-1.25-1.656h0a1.721,1.721,0,0,1,2.188-1.657l13.378,4.186a1.722,1.722,0,0,1,1.255,1.657v.034A1.722,1.722,0,0,1,303.268,630.142Z" fill="#fad369"/>
      </g>
      <g id="Grupo_53925" data-name="Grupo 53925">
        <path id="Trazado_100709" data-name="Trazado 100709" d="M305.752,588.575l-4.648-1.466a1.723,1.723,0,0,1-1.251-1.656h0a1.722,1.722,0,0,1,2.188-1.657l4.648,1.432a1.722,1.722,0,0,1,1.255,1.657v.034A1.721,1.721,0,0,1,305.752,588.575Z" fill="#dcedef"/>
      </g>
      <g id="Grupo_53926" data-name="Grupo 53926">
        <path id="Trazado_100710" data-name="Trazado 100710" d="M370.745,583.647l14.035-3.991a2.162,2.162,0,0,0,1.569-2.078h0A2.16,2.16,0,0,0,383.6,575.5l-14.034,3.949a2.16,2.16,0,0,0-1.575,2.079v.042A2.16,2.16,0,0,0,370.745,583.647Z" fill="#fff"/>
      </g>
      <g id="Grupo_53928" data-name="Grupo 53928">
        <g id="Grupo_53927" data-name="Grupo 53927">
          <path id="Trazado_100711" data-name="Trazado 100711" d="M347.692,643.736l-5.332.855a35.339,35.339,0,0,1-11.206,0l-5.332-.855V554.723l5.252.849a35.376,35.376,0,0,0,11.207.013l5.411-.862Z" fill="#e77c20"/>
        </g>
      </g>
      <g id="Grupo_53929" data-name="Grupo 53929">
        <rect id="Rectángulo_5270-2" data-name="Rectángulo 5270" width="24.1" height="8.533" rx="0.829" transform="translate(324.627 566.571)" fill="#fad369"/>
      </g>
      <g id="Grupo_53930" data-name="Grupo 53930">
        <rect id="Rectángulo_5271" data-name="Rectángulo 5271" width="24.1" height="8.533" rx="0.829" transform="translate(324.627 623.687)" fill="#fad369"/>
      </g>
    </g>
  </g>
</svg>
