<svg xmlns="http://www.w3.org/2000/svg" width="295" height="160" viewBox="0 0 295 160">
  <g id="Grupo_53956" data-name="Grupo 53956" transform="translate(7578 9767)">
    <g id="Grupo_53933" data-name="Grupo 53933" transform="translate(0 -222)">
      <g id="Grupo_53884" data-name="Grupo 53884" transform="translate(-7753.778 -10043.232)">
        <rect id="Rectángulo_5270" data-name="Rectángulo 5270" width="295" height="160" transform="translate(175.778 498.233)" fill="#fcf0e5"/>
      </g>
    </g>
    <g id="Grupo_53947" data-name="Grupo 53947" transform="translate(-7755.213 -10260.998)">
      <path id="Trazado_100713" data-name="Trazado 100713" d="M371.877,546.07v23.563a5.074,5.074,0,0,1-5.071,5.077H270.363a5.074,5.074,0,0,1-5.071-5.077V546.07A5.069,5.069,0,0,1,270.363,541h96.443A5.069,5.069,0,0,1,371.877,546.07Z" fill="#003665"/>
      <path id="Trazado_100714" data-name="Trazado 100714" d="M371.877,546.07v22.37H265.292V546.07A5.069,5.069,0,0,1,270.363,541h96.443A5.069,5.069,0,0,1,371.877,546.07Z" fill="#00437c"/>
      <path id="Trazado_100715" data-name="Trazado 100715" d="M290.456,570.676l2.658,4.033H289.26l-2.658-4.033a8.947,8.947,0,0,1-1.468-4.912V549.943a8.945,8.945,0,0,1,1.468-4.912L289.26,541h3.854l-2.658,4.033a8.959,8.959,0,0,0-1.474,4.912v15.821A8.961,8.961,0,0,0,290.456,570.676Z" fill="#ffa400"/>
      <path id="Trazado_100716" data-name="Trazado 100716" d="M354.374,570.676l2.658,4.033H343.72l-2.658-4.033a8.954,8.954,0,0,1-1.467-4.912V549.943a8.952,8.952,0,0,1,1.467-4.912L343.72,541h13.312l-2.658,4.033a8.951,8.951,0,0,0-1.474,4.912v15.821A8.953,8.953,0,0,0,354.374,570.676Z" fill="#ffa400"/>
      <ellipse id="Elipse_4057" data-name="Elipse 4057" cx="11.646" cy="8.786" rx="11.646" ry="8.786" transform="translate(299.628 549.165)" fill="#ffa400"/>
      <path id="Trazado_100717" data-name="Trazado 100717" d="M380.931,578.706v15.669a3.993,3.993,0,0,1-3.993,3.993H279.507a3.994,3.994,0,0,1-3.993-3.993V578.706a3.994,3.994,0,0,1,3.993-3.993h97.431a3.927,3.927,0,0,1,2.215.674A3.979,3.979,0,0,1,380.931,578.706Z" fill="#ffb520"/>
      <rect id="Rectángulo_5272" data-name="Rectángulo 5272" width="6.037" height="23.661" transform="translate(312.9 574.71)" fill="#d57100"/>
      <ellipse id="Elipse_4058" data-name="Elipse 4058" cx="10.378" cy="6.893" rx="10.378" ry="6.893" transform="translate(328.222 579.664)" fill="#fff"/>
      <rect id="Rectángulo_5273" data-name="Rectángulo 5273" width="8.845" height="23.661" transform="translate(366.031 598.371) rotate(180)" fill="#d57100"/>
      <rect id="Rectángulo_5274" data-name="Rectángulo 5274" width="103.217" height="4.895" rx="0.476" transform="translate(255.749 598.371)" fill="#068cc4"/>
      <rect id="Rectángulo_5275" data-name="Rectángulo 5275" width="104.456" height="4.895" rx="0.476" transform="translate(254.51 621.466)" fill="#068cc4"/>
      <path id="Trazado_100718" data-name="Trazado 100718" d="M423.769,612.365a13.683,13.683,0,0,1-.216,2.447,14,14,0,0,1-13.776,11.551h-53.1A13.991,13.991,0,0,1,342.9,614.812a13.683,13.683,0,0,1-.216-2.447,14,14,0,0,1,13.992-13.993h53.1A13.992,13.992,0,0,1,423.769,612.365Z" fill="#32b2c1"/>
      <path id="Trazado_100719" data-name="Trazado 100719" d="M423.769,612.365a13.683,13.683,0,0,1-.216,2.447H342.9a13.683,13.683,0,0,1-.216-2.447,14,14,0,0,1,13.992-13.993h53.1A13.992,13.992,0,0,1,423.769,612.365Z" fill="#77ccd6"/>
      <rect id="Rectángulo_5276" data-name="Rectángulo 5276" width="39.261" height="27.991" rx="2.723" transform="translate(330.719 598.371)" fill="#068cc4"/>
      <path id="Trazado_100720" data-name="Trazado 100720" d="M355.762,621.464H268.51a14.66,14.66,0,0,0,3.307-5.021c.1-.256.183-.516.266-.783a11.441,11.441,0,0,0,.455-2.53c.006-.05.011-.177.017-.332a9.892,9.892,0,0,0-.255-2.558l-.1-.389a11.575,11.575,0,0,0-.366-1.137c-.094-.255-.2-.516-.322-.788-.161-.366-.344-.743-.56-1.137a18.375,18.375,0,0,0-1.137-1.825c-.383-.544-.816-1.116-1.31-1.7h87.25a8.971,8.971,0,0,1,8.968,8.9l0,.261A8.968,8.968,0,0,1,355.762,621.464Z" fill="#354a74"/>
      <path id="Trazado_100721" data-name="Trazado 100721" d="M357.89,612.365a20.946,20.946,0,0,1-.255,3.295c-.039.267-.083.527-.133.783a21.717,21.717,0,0,1-1.614,5.021h-95.95a14.66,14.66,0,0,0,3.307-5.021c.1-.256.183-.516.266-.783a11.44,11.44,0,0,0,.455-2.53c.006-.05.011-.177.017-.332a9.892,9.892,0,0,0-.255-2.558l-.1-.389a11.583,11.583,0,0,0-.366-1.137c-.094-.255-.2-.516-.322-.788-.161-.366-.344-.743-.56-1.137a18.376,18.376,0,0,0-1.137-1.825c-.383-.544-.816-1.116-1.31-1.7h95.95c.21.46.454,1.026.7,1.7.194.543.394,1.154.571,1.825.1.361.189.738.272,1.137.055.255.105.516.15.788.061.366.116.744.161,1.137.016.128.033.256.044.389C357.852,610.917,357.89,611.627,357.89,612.365Z" fill="#fff"/>
      <path id="Trazado_100722" data-name="Trazado 100722" d="M356.587,604.964H261.248a18.376,18.376,0,0,1,1.137,1.825h94.773Z" fill="#f4cab5" opacity="0.52" style="mix-blend-mode: multiply;isolation: isolate"/>
      <path id="Trazado_100723" data-name="Trazado 100723" d="M357.785,610.24H263.728l-.094-.388h94.107Z" fill="#f4cab5" opacity="0.52" style="mix-blend-mode: multiply;isolation: isolate"/>
      <path id="Trazado_100724" data-name="Trazado 100724" d="M357.58,608.714H263.267l-.322-.788H357.43C357.485,608.181,357.535,608.442,357.58,608.714Z" fill="#f4cab5" opacity="0.52" style="mix-blend-mode: multiply;isolation: isolate"/>
      <path id="Trazado_100725" data-name="Trazado 100725" d="M357.5,616.443H263.245l.266-.782h94.124Z" fill="#f4cab5" opacity="0.52" style="mix-blend-mode: multiply;isolation: isolate"/>
      <g id="Grupo_53935" data-name="Grupo 53935">
        <rect id="Rectángulo_5277" data-name="Rectángulo 5277" width="85.614" height="15.928" rx="0.625" transform="translate(230.658 626.72) rotate(-76.845)" fill="#dd430b"/>
        <rect id="Rectángulo_5278" data-name="Rectángulo 5278" width="16.009" height="15.09" transform="matrix(0.974, 0.228, -0.228, 0.974, 237.068, 598.95)" fill="#00437c"/>
        <rect id="Rectángulo_5279" data-name="Rectángulo 5279" width="16.009" height="15.09" transform="translate(248.208 551.449) rotate(13.155)" fill="#00437c"/>
        <rect id="Rectángulo_5280" data-name="Rectángulo 5280" width="16.085" height="3.524" transform="translate(234.569 609.642) rotate(13.154)" fill="#fff"/>
        <rect id="Rectángulo_5281" data-name="Rectángulo 5281" width="16.085" height="3.524" transform="translate(247.996 552.023) rotate(13.155)" fill="#fff"/>
        <rect id="Rectángulo_5282" data-name="Rectángulo 5282" width="16.009" height="1.774" transform="translate(245.396 563.668) rotate(13.155)" fill="#fff"/>
        <rect id="Rectángulo_5283" data-name="Rectángulo 5283" width="16.009" height="1.774" transform="matrix(0.974, 0.228, -0.228, 0.974, 236.972, 599.709)" fill="#fff"/>
      </g>
      <path id="Trazado_100726" data-name="Trazado 100726" d="M393.487,544.522v26.665H396.1v3.495a4.955,4.955,0,0,1-.505.028H368.532a5.074,5.074,0,0,1-5.071-5.077V546.07A5.069,5.069,0,0,1,368.532,541H395.59a4.955,4.955,0,0,1,.505.028v3.495Z" fill="#068cc4"/>
      <path id="Trazado_100727" data-name="Trazado 100727" d="M393.487,544.521v26.664H370.718a4.015,4.015,0,0,1-4.012-4.017V548.532a4.01,4.01,0,0,1,4.012-4.011Z" fill="#fcba9f"/>
      <path id="Trazado_100728" data-name="Trazado 100728" d="M393.487,550.154v21.033H371.356a4.015,4.015,0,0,1-4.012-4.017V554.165a4.01,4.01,0,0,1,4.012-4.011Z" fill="#fff"/>
      <path id="Trazado_100729" data-name="Trazado 100729" d="M379.153,575.387l-6.228,3.332H275.514v-.013a3.994,3.994,0,0,1,3.993-3.993h97.431A3.927,3.927,0,0,1,379.153,575.387Z" fill="#9590d1" style="mix-blend-mode: multiply;isolation: isolate"/>
      <path id="Trazado_100730" data-name="Trazado 100730" d="M400.078,577.954v17.2h2.675v3.235H377.314a4.207,4.207,0,0,1-4.388-3.995V578.72a4.2,4.2,0,0,1,4.388-3.995h25.439v3.229Z" fill="#d57100"/>
      <path id="Trazado_100731" data-name="Trazado 100731" d="M400.078,577.939v17.2H381.631a4.069,4.069,0,0,1-4.138-3.995v-9.21a4.073,4.073,0,0,1,4.138-3.994Z" fill="#fcba9f"/>
      <path id="Trazado_100732" data-name="Trazado 100732" d="M400.078,580.729v14.409H381.631a4.069,4.069,0,0,1-4.138-3.995v-6.419a4.073,4.073,0,0,1,4.138-3.995Z" fill="#fff"/>
    </g>
  </g>
</svg>
