<svg xmlns="http://www.w3.org/2000/svg" width="295" height="160" viewBox="0 0 295 160">
  <g id="Grupo_53954" data-name="Grupo 53954" transform="translate(7578 9088)">
    <g id="Grupo_53871" data-name="Grupo 53871" transform="translate(-7753.778 -9586.232)">
      <rect id="Rectángulo_5270" data-name="Rectángulo 5270" width="295" height="160" transform="translate(175.778 498.233)" fill="#dcedef"/>
      <g id="Grupo_53870" data-name="Grupo 53870">
        <path id="Trazado_100628" data-name="Trazado 100628" d="M349.819,507.756v94.322l-66.773,38.551V546.273Z" fill="#00437c"/>
        <path id="Trazado_100629" data-name="Trazado 100629" d="M302.613,558.577l58.594-37.156-3.636-1.152a20.639,20.639,0,0,1-9.328-6.12l-.374-.428-61.475,35.492Z" fill="#fff"/>
        <path id="Trazado_100630" data-name="Trazado 100630" d="M347.869,513.721l-50.8,31.611,32-16.9L299.6,545.813l10.02-2.8-10.02,6.71-5.181-5.146Z" fill="#f4cab5"/>
        <path id="Trazado_100631" data-name="Trazado 100631" d="M363.51,516.043v98.473L300.664,650.8v-98.47l62.8-36.312Z" fill="#00437c"/>
        <path id="Trazado_100632" data-name="Trazado 100632" d="M300.663,552.33l-17.616-10.171v98.469L300.663,650.8Z" fill="#068cc4"/>
        <path id="Trazado_100633" data-name="Trazado 100633" d="M300.663,567.454l-17.616-10.171v11.2l17.616,10.171Z" fill="#77ccd6"/>
        <path id="Trazado_100634" data-name="Trazado 100634" d="M333.683,556.726l10.985-6.342a2.462,2.462,0,0,1,3.693,2.132v3.545a5.877,5.877,0,0,1-2.938,5.089l-10.985,6.342a2.462,2.462,0,0,1-3.693-2.132v-3.544A5.878,5.878,0,0,1,333.683,556.726Z" fill="#fcba9f"/>
        <path id="Trazado_100635" data-name="Trazado 100635" d="M336.327,618.336l6.037-3.485a1.353,1.353,0,0,1,2.03,1.172v1.948a3.227,3.227,0,0,1-1.615,2.8l-6.037,3.486a1.353,1.353,0,0,1-2.03-1.172v-1.948A3.232,3.232,0,0,1,336.327,618.336Z" fill="#fcba9f"/>
        <path id="Trazado_100636" data-name="Trazado 100636" d="M329.791,578.928,348.06,568.38a4.094,4.094,0,0,1,6.141,3.546v5.894a9.772,9.772,0,0,1-4.886,8.464l-18.268,10.547a4.1,4.1,0,0,1-6.142-3.546v-5.894A9.772,9.772,0,0,1,329.791,578.928Z" fill="#ffb520"/>
        <g id="Grupo_53869" data-name="Grupo 53869">
          <path id="Trazado_100637" data-name="Trazado 100637" d="M319.715,630.734a1.859,1.859,0,0,1-1.852-1.855V552.468a1.857,1.857,0,0,1,.923-1.6l37.371-21.68a1.852,1.852,0,0,1,2.781,1.6V607.2a1.856,1.856,0,0,1-.923,1.6l-12.275,7.121a.556.556,0,0,1-.558-.961l12.276-7.121a.743.743,0,0,0,.369-.641V530.789a.741.741,0,0,0-1.113-.642l-37.371,21.68a.743.743,0,0,0-.369.641v76.411a.734.734,0,0,0,.371.642.727.727,0,0,0,.742,0l13.18-7.646a.556.556,0,1,1,.558.961l-13.18,7.646A1.848,1.848,0,0,1,319.715,630.734Z" fill="#fff"/>
        </g>
        <path id="Trazado_100638" data-name="Trazado 100638" d="M300.663,610.291,283.047,600.12v25.2l17.616,10.171Z" fill="#77ccd6"/>
        <path id="Trazado_100639" data-name="Trazado 100639" d="M363.464,516.017l-3.509-2.064-59.291,34.234-10.443-6.03,59.6-34.4-3.552-2.09-63.221,36.491,17.618,10.172,62.846-36.286Z" fill="#006e86"/>
      </g>
    </g>
  </g>
</svg>
