<svg xmlns="http://www.w3.org/2000/svg" width="295" height="160" viewBox="0 0 295 160">
  <g id="Grupo_53955" data-name="Grupo 53955" transform="translate(7578 9326)">
    <g id="Grupo_53939" data-name="Grupo 53939" transform="translate(-7753.778 -9824.232)">
      <rect id="Rectángulo_5270" data-name="Rectángulo 5270" width="295" height="160" transform="translate(175.778 498.233)" fill="#fcf0e5"/>
    </g>
    <g id="Grupo_53943" data-name="Grupo 53943" transform="translate(-7757.754 -9825.861)">
      <path id="Trazado_100764" data-name="Trazado 100764" d="M394.941,610.016v23.5a6.769,6.769,0,0,1-6.772,6.773h-77.22a6.774,6.774,0,0,1-6.773-6.773v-23.5a6.77,6.77,0,0,1,6.773-6.772h77.22A6.773,6.773,0,0,1,394.941,610.016Z" transform="translate(-2.091 -3.268)" fill="#dd430b"/>
      <path id="Trazado_100765" data-name="Trazado 100765" d="M383.279,607.078v.437a3.823,3.823,0,0,1-3.827,3.827H254.361a3.829,3.829,0,0,1-3.834-3.827v-.437a3.835,3.835,0,0,1,3.834-3.833H379.452a3.814,3.814,0,0,1,3.827,3.833Z" transform="translate(0 -3.268)" fill="#dd430b"/>
      <path id="Trazado_100766" data-name="Trazado 100766" d="M370.831,593.635l-.984,5.037H377.6v3.447H274.071a13.871,13.871,0,0,1-6.979-25.856l.007-.006a13.77,13.77,0,0,1,6.972-1.879H377.6v3.454h-3.686Z" transform="translate(-0.377 -2.143)" fill="#009fb2"/>
      <path id="Trazado_100767" data-name="Trazado 100767" d="M383.279,637.2v.437a3.824,3.824,0,0,1-3.827,3.828H254.361a3.83,3.83,0,0,1-3.834-3.828V637.2a3.829,3.829,0,0,1,3.834-3.827H379.452a3.8,3.8,0,0,1,2.823,1.248A3.766,3.766,0,0,1,383.279,637.2Z" transform="translate(0 -4.442)" fill="#dd430b"/>
      <path id="Trazado_100768" data-name="Trazado 100768" d="M384.669,627.644v.064c0,.257,0,.514-.006.778v.013c-.019,2.431-.226,4.966-2.232,5.751a3.928,3.928,0,0,1-1.453.244c-.444,0-2.592-.019-6.027-.058-3.589-.039-8.593-.1-14.53-.167-15.745-.181-38.082-.451-58.182-.689-25.688-.308-47.723-.579-47.723-.579h47.723V633H259.977c.16-.842.309-1.685.431-2.54.058-.406.116-.81.16-1.222.013-.1.026-.206.033-.309a69.861,69.861,0,0,1,12.168-2.625,283.465,283.465,0,0,1,29.471-2.206c3.64-.109,7.364-.186,11.114-.232,4.966-.052,9.97-.052,14.909,0,20.942.218,40.648,1.305,50.27,2.437,3.628.425,5.815.862,6.1,1.254A.175.175,0,0,1,384.669,627.644Z" transform="translate(-0.155 -4.07)" fill="#ff8383"/>
      <path id="Trazado_100769" data-name="Trazado 100769" d="M379.247,633.374v8.013a1.6,1.6,0,0,1-1.6,1.6H366.313a1.6,1.6,0,0,1-1.6-1.6v-8.013Z" transform="translate(-4.451 -4.442)" fill="#ffa400"/>
      <path id="Trazado_100770" data-name="Trazado 100770" d="M377.884,574.378v.6H274.956a22.8,22.8,0,0,0-7.037,1.087c-.309.11-.495.18-.54.193a13.77,13.77,0,0,1,6.972-1.879Z" transform="translate(-0.657 -2.143)" fill="#30b1c0"/>
      <path id="Trazado_100771" data-name="Trazado 100771" d="M377.927,599.453v.707H273.4c-2.527,0-4.933-2.753-4.933-2.753l102.683-2.991-.984,5.037Z" transform="translate(-0.699 -2.924)" fill="#30b1c0"/>
      <path id="Trazado_100772" data-name="Trazado 100772" d="M374.07,577.972l-.406,3.847-1.775,16.993H274.5a10.381,10.381,0,0,1-7.364-3.049,9.732,9.732,0,0,1-1.151-1.376,10.293,10.293,0,0,1-1.9-5.995,10.422,10.422,0,0,1,10.42-10.419Z" transform="translate(-0.528 -2.283)" fill="#006181"/>
      <path id="Trazado_100773" data-name="Trazado 100773" d="M374.235,577.972l-.406,3.847-.251,2.418-1.524,14.575h-97.39a10.409,10.409,0,0,1-4.2-.881c0-.013.007-.019.013-.033a26.355,26.355,0,0,0,2.16-8.084c.052-.47.078-.926.09-1.37a20.249,20.249,0,0,0-.18-3.525c-.064-.431-.142-.842-.226-1.235-.089-.418-.186-.817-.289-1.183a12.914,12.914,0,0,0-1.556-3.614l-.019-.026a10.176,10.176,0,0,1,3.756-.875c.174-.007.354-.013.534-.013Z" transform="translate(-0.777 -2.283)" fill="#fff"/>
      <path id="Trazado_100774" data-name="Trazado 100774" d="M374.319,577.972l-.406,3.847h-98.7a7.324,7.324,0,0,0-3.177.681,12.914,12.914,0,0,0-1.556-3.614,10.457,10.457,0,0,1,3.736-.9c.174-.007.354-.013.534-.013Z" transform="translate(-0.778 -2.283)" fill="#f4cab5" opacity="0.52" style="mix-blend-mode: multiply;isolation: isolate"/>
      <path id="Trazado_100775" data-name="Trazado 100775" d="M373.654,584.469s-78.667.437-101.03.681c-.064-.431-.142-.842-.226-1.235Z" transform="translate(-0.852 -2.515)" fill="#f4cab5" opacity="0.52" style="mix-blend-mode: multiply;isolation: isolate"/>
      <path id="Trazado_100776" data-name="Trazado 100776" d="M359.877,589.608l-87.151.63c.052-.47.078-.926.09-1.37Z" transform="translate(-0.865 -2.708)" fill="#f4cab5" opacity="0.52" style="mix-blend-mode: multiply;isolation: isolate"/>
      <path id="Trazado_100777" data-name="Trazado 100777" d="M369.323,562.045c0,6.348,1.461,7.706,1.461,7.706H309.828a14.07,14.07,0,1,1,0-28.14l64,.41S369.323,555.7,369.323,562.045Z" transform="translate(-1.763 -0.866)" fill="#d57100"/>
      <path id="Trazado_100778" data-name="Trazado 100778" d="M375.689,546.094c-1.325,4.682-3.165,11.893-3.165,15.951,0,6.348,1.46,7.706,1.46,7.706H310.3a13.7,13.7,0,0,1-2.527-.232,4.17,4.17,0,0,0,1.357-.965.179.179,0,0,1,.026-.019,9.668,9.668,0,0,0,1.827-2.9,25.91,25.91,0,0,0,1.782-9.949c0-6.908-2.155-12.658-5-13.842a13.682,13.682,0,0,1,2.534-.232h66.731S376.442,543.445,375.689,546.094Z" transform="translate(-2.231 -0.866)" fill="#fff"/>
      <path id="Trazado_100779" data-name="Trazado 100779" d="M375.689,546.094l-63.765-2.489,1.2,5.461c2.527,14.24-3.55,19.147-3.975,19.469a9.668,9.668,0,0,0,1.827-2.9,25.91,25.91,0,0,0,1.782-9.949c0-6.908-2.155-12.658-5-13.842a13.682,13.682,0,0,1,2.534-.232h66.731S376.442,543.445,375.689,546.094Z" transform="translate(-2.231 -0.866)" fill="#f4cab5" opacity="0.52" style="mix-blend-mode: multiply;isolation: isolate"/>
      <path id="Trazado_100780" data-name="Trazado 100780" d="M295.6,555.549a14.066,14.066,0,0,0,14.072,14.067H379.61a1.67,1.67,0,0,1,1.669,1.669v.011a1.67,1.67,0,0,1-1.669,1.67H309.064a17.417,17.417,0,1,1,0-34.834l70.624,3.27a1.671,1.671,0,0,1,1.592,1.668h0a1.669,1.669,0,0,1-1.748,1.668l-69.864-3.263A14.072,14.072,0,0,0,295.6,555.549Z" transform="translate(-1.603 -0.73)" fill="#ffa400"/>
      <path id="Trazado_100781" data-name="Trazado 100781" d="M312.973,547.685l23.19,1.4-22.834.216Z" transform="translate(-2.434 -1.103)" fill="#f4cab5" opacity="0.52" style="mix-blend-mode: multiply;isolation: isolate"/>
      <path id="Trazado_100782" data-name="Trazado 100782" d="M313.976,558.246l51.4-1.15-51.461-1.033Z" transform="translate(-2.47 -1.429)" fill="#f4cab5" opacity="0.52" style="mix-blend-mode: multiply;isolation: isolate"/>
      <path id="Trazado_100783" data-name="Trazado 100783" d="M332.954,556.245v.19l-.695.186a2.224,2.224,0,0,0-1.871,2.174v20.626l-6.831-6.83-7.1,6.772V558.679a2.54,2.54,0,0,1,1.987-2.482l.489-.11,13.777.164C332.787,556.245,332.87,556.245,332.954,556.245Z" transform="translate(-2.57 -1.43)" fill="#dd430b"/>
      <path id="Trazado_100784" data-name="Trazado 100784" d="M316.455,580.021l6.87-7.083.232.309Z" transform="translate(-2.57 -2.087)" fill="#bd454f"/>
      <path id="Trazado_100785" data-name="Trazado 100785" d="M333.5,556.251v.19l-.695.186a2.224,2.224,0,0,0-1.871,2.174v20.626h-.425V558.184s.283-1.785,2.747-1.926C333.335,556.251,333.418,556.251,333.5,556.251Z" transform="translate(-3.117 -1.437)" fill="#bd454f"/>
      <rect id="Rectángulo_5297" data-name="Rectángulo 5297" width="50.94" height="17.126" rx="1.629" transform="matrix(-0.999, -0.046, 0.046, -0.999, 362.837, 540.101)" fill="#29b1fc"/>
      <path id="Trazado_100786" data-name="Trazado 100786" d="M287.392,532.769l-.226.569,68.748,3.158a5.193,5.193,0,0,0,2.423-.468,4.856,4.856,0,0,0,.874-.5,4.908,4.908,0,0,0,.5-.4,5.3,5.3,0,0,0,1.478-2.314,5.222,5.222,0,0,0,.235-1.342c.007-.141.007-.284,0-.425a5.293,5.293,0,0,0-.086-.8,5.134,5.134,0,0,0-.335-1.1,5.267,5.267,0,0,0-4.605-3.193L287.65,522.8l.368,1.24a12.223,12.223,0,0,1,.395,1.776,10.429,10.429,0,0,1,.1,1.087c.02.265.021.529.015.793a10.966,10.966,0,0,1-.145,1.77,12.379,12.379,0,0,1-.741,2.67l-.043.1Z" transform="translate(-1.428 -0.133)" fill="#483870"/>
      <path id="Trazado_100787" data-name="Trazado 100787" d="M356.324,530.812a15.356,15.356,0,0,0-.11,1.769,14.8,14.8,0,0,0,.212,2.817c.032.18.064.366.1.547s.084.354.129.533a4.715,4.715,0,0,1-.747.019l-68.743-3.158.225-.572.207-.528.044-.1a12.257,12.257,0,0,0,.74-2.67,10.252,10.252,0,0,0,.148-1.768c.007-.264.007-.534-.013-.8a10.569,10.569,0,0,0-.11-1.087,11.578,11.578,0,0,0-.392-1.775l-.367-1.242,68.75,3.158a5.369,5.369,0,0,1,1.125.174v.007a15.278,15.278,0,0,0-.881,2.817c-.077.334-.148.688-.206,1.068Q356.372,530.4,356.324,530.812Z" transform="translate(-1.428 -0.133)" fill="#fff"/>
      <path id="Trazado_100788" data-name="Trazado 100788" d="M356.7,529.076c-.077.334-.148.688-.206,1.068l-67.919-3.12a10.572,10.572,0,0,0-.11-1.087Z" transform="translate(-1.479 -0.255)" fill="#f4cab5" opacity="0.52" style="mix-blend-mode: multiply;isolation: isolate"/>
      <path id="Trazado_100789" data-name="Trazado 100789" d="M356.374,531.011a15.356,15.356,0,0,0-.11,1.769l-67.83-3.114a10.252,10.252,0,0,0,.148-1.768Z" transform="translate(-1.477 -0.331)" fill="#f4cab5" opacity="0.52" style="mix-blend-mode: multiply;isolation: isolate"/>
      <path id="Trazado_100790" data-name="Trazado 100790" d="M356.534,536.327,287.4,533.15l-.122-.007.026-.54.3.019,68.827,3.158C356.463,535.96,356.5,536.146,356.534,536.327Z" transform="translate(-1.432 -0.515)" fill="#f4cab5" opacity="0.52" style="mix-blend-mode: multiply;isolation: isolate"/>
      <rect id="Rectángulo_5298" data-name="Rectángulo 5298" width="70.081" height="3.228" transform="translate(355.148 525.835) rotate(-177.37)" fill="#29b1fc"/>
      <rect id="Rectángulo_5299" data-name="Rectángulo 5299" width="70.081" height="3.228" transform="translate(354.516 539.595) rotate(-177.37)" fill="#29b1fc"/>
      <path id="Trazado_100791" data-name="Trazado 100791" d="M393.005,610.016c0-3.55-5.326-4.431-5.326-4.431H360.422l-55.14-1.222-50.766-1.119H386.233A6.773,6.773,0,0,1,393.005,610.016Z" transform="translate(-0.155 -3.268)" fill="#fcba9f"/>
      <path id="Trazado_100792" data-name="Trazado 100792" d="M379.247,603.261v8.019h-14.53v-8.019a1.6,1.6,0,0,1,1.6-1.6H377.65A1.6,1.6,0,0,1,379.247,603.261Z" transform="translate(-4.451 -3.207)" fill="#ffa400"/>
      <path id="Trazado_100793" data-name="Trazado 100793" d="M384.891,616.262V627.93a.406.406,0,0,1-.006.084v.013a3.918,3.918,0,0,1-.078.733,4.205,4.205,0,0,1-.4,1.222,4.585,4.585,0,0,1-4.11,2.54H260.2c.16-.842.309-1.685.431-2.54.058-.406.116-.81.16-1.222.013-.1.026-.206.033-.309.11-.862.193-1.743.251-2.625.058-.81.1-1.62.11-2.437q.019-.647.019-1.293c0-.752-.013-1.5-.052-2.252-.013-.4-.032-.81-.058-1.209-.058-.894-.135-1.775-.238-2.65q-.241-2.181-.655-4.316H380.292A4.6,4.6,0,0,1,384.891,616.262Z" transform="translate(-0.377 -3.597)" fill="#fff"/>
      <path id="Trazado_100794" data-name="Trazado 100794" d="M384.891,616.262V627.93a.535.535,0,0,1-.006.1c-.116-7.673-2.445-12.04-2.445-12.04H260.853q-.241-2.181-.655-4.316H380.292A4.6,4.6,0,0,1,384.891,616.262Z" transform="translate(-0.377 -3.597)" fill="#f4cab5" opacity="0.52" style="mix-blend-mode: multiply;isolation: isolate"/>
      <path id="Trazado_100795" data-name="Trazado 100795" d="M384.927,618.918v1.209H261.186c-.012-.4-.032-.81-.058-1.209Z" transform="translate(-0.413 -3.879)" fill="#f4cab5" opacity="0.52" style="mix-blend-mode: multiply;isolation: isolate"/>
      <path id="Trazado_100796" data-name="Trazado 100796" d="M384.926,623.864V626.3H261.108c.058-.81.1-1.62.11-2.437Z" transform="translate(-0.412 -4.072)" fill="#f4cab5" opacity="0.52" style="mix-blend-mode: multiply;isolation: isolate"/>
      <path id="Trazado_100797" data-name="Trazado 100797" d="M384.825,629.452a4.205,4.205,0,0,1-.4,1.222H260.646c.058-.406.116-.81.16-1.222Z" transform="translate(-0.394 -4.29)" fill="#f4cab5" opacity="0.52" style="mix-blend-mode: multiply;isolation: isolate"/>
    </g>
  </g>
</svg>
