<svg xmlns="http://www.w3.org/2000/svg" width="295" height="160" viewBox="0 0 295 160">
  <g id="Grupo_53966" data-name="Grupo 53966" transform="translate(7578 8579)">
    <g id="Grupo_53952" data-name="Grupo 53952">
      <g id="Grupo_53944" data-name="Grupo 53944" transform="translate(-7753.778 -9077.232)">
        <rect id="Rectángulo_5270" data-name="Rectángulo 5270" width="295" height="160" transform="translate(175.778 498.233)" fill="#dcedef"/>
      </g>
      <g id="Grupo_53945" data-name="Grupo 53945" transform="translate(-7655 -10834)">
        <g id="Grupo_53941" data-name="Grupo 53941" transform="translate(142 2277)">
          <g id="Grupo_53940" data-name="Grupo 53940" transform="translate(0 0)">
            <path id="Trazado_100753" data-name="Trazado 100753" d="M53.7,463.641l90.811-51.112,73.3,43.4-90.844,51.13Z" transform="translate(-53.617 -392.608)" fill="#007ebf"/>
            <path id="Trazado_100754" data-name="Trazado 100754" d="M126.3,472.359,58.78,436.08l.861,4.125a22.814,22.814,0,0,1-.836,12.3l-.211.592,67.484,39.953Z" transform="translate(-51.708 -383.416)" fill="#fff"/>
            <path id="Trazado_100755" data-name="Trazado 100755" d="M58.594,448.318,116.558,480.1,82.947,458.449l32.7,18.952-8.122-8.132,11.89,6.011-2.147,7.776Z" transform="translate(-51.708 -378.639)" fill="#f4cab5" opacity="0.52" style="mix-blend-mode: multiply;isolation: isolate"/>
            <path id="Trazado_100756" data-name="Trazado 100756" d="M54.107,451.562,148.914,398.2,217.9,439.046l-94.8,53.36L54.106,451.62Z" transform="translate(-53.459 -398.2)" fill="#007ebf"/>
            <path id="Trazado_100757" data-name="Trazado 100757" d="M103.8,480.939l-.246,22.472,94.8-53.36.246-22.472Z" transform="translate(-34.16 -386.733)" fill="#00467f"/>
            <path id="Trazado_100758" data-name="Trazado 100758" d="M114.273,461.769l-.246,22.472,10.784-6.07.246-22.472Z" transform="translate(-30.072 -375.758)" fill="#006e86"/>
            <path id="Trazado_100759" data-name="Trazado 100759" d="M143.937,447.2l-.246,22.472L167.95,456.02l.246-22.472Z" transform="translate(-18.494 -384.404)" fill="#006e86"/>
            <path id="Trazado_100760" data-name="Trazado 100760" d="M119.554,475.222,54.285,436.583v.054l-.085,4.5,61.112,36.184,3.978,2.351-.031,2.565-.117,10.753L53.727,454.251l-.086,4.555L123.034,499.9l.14-13.151.1-9.323Z" transform="translate(-53.641 -383.219)" fill="#29b1fc"/>
            <path id="Trazado_100761" data-name="Trazado 100761" d="M174.591,438.613l-68.625,47.458-.1-.117-3.915-4.511.031-2.565L98,476.528l4.241-2.1,63.409-31.391Z" transform="translate(-36.328 -382.427)" fill="#9590d1" opacity="0.52" style="mix-blend-mode: multiply;isolation: isolate"/>
          </g>
          <path id="Trazado_100762" data-name="Trazado 100762" d="M68.332,436.267,115.616,467.8l12.882-6.911-47.249-30.4Z" transform="translate(-47.907 -385.599)" fill="#fff"/>
          <path id="Trazado_100763" data-name="Trazado 100763" d="M128.049,465.864l55.962-31.058-45.19-27.841L82.945,435.626" transform="translate(-42.203 -394.779)" fill="none" stroke="#b7e6fd" stroke-miterlimit="10" stroke-width="1"/>
        </g>
      </g>
    </g>
  </g>
</svg>
