<svg xmlns="http://www.w3.org/2000/svg" width="295" height="160" viewBox="0 0 295 160">
  <g id="Grupo_53968" data-name="Grupo 53968" transform="translate(7578 8054)">
    <g id="Grupo_53949" data-name="Grupo 53949" transform="translate(-7753.778 -8552.232)">
      <rect id="Rectángulo_5270" data-name="Rectángulo 5270" width="295" height="160" transform="translate(175.778 498.233)" fill="#dcedef"/>
    </g>
    <g id="Grupo_53964" data-name="Grupo 53964" transform="translate(-7753.962 -8551.771)">
      <path id="Trazado_100609" data-name="Trazado 100609" d="M251.338,605.019l86.887-48.9,70.133,41.522L321.44,646.558Z" fill="#007ebf"/>
      <path id="Trazado_100610" data-name="Trazado 100610" d="M322.629,622.155l-64.607-34.711.824,3.947a21.825,21.825,0,0,1-.8,11.765l-.2.567,64.569,38.227Z" fill="#fff"/>
      <path id="Trazado_100611" data-name="Trazado 100611" d="M257.844,603.723l55.46,30.409-32.159-20.715,31.289,18.133-7.771-7.781,11.376,5.751-2.054,7.44Z" fill="#f4cab5" opacity="0.52" style="mix-blend-mode: multiply;isolation: isolate"/>
      <path id="Trazado_100612" data-name="Trazado 100612" d="M251.874,588.111l90.711-51.056,66.007,39.081L317.884,627.19l-66.01-39.024Z" fill="#007ebf"/>
      <path id="Trazado_100613" data-name="Trazado 100613" d="M317.886,627.19l-.235,21.5,90.708-51.054.235-21.5Z" fill="#00467f"/>
      <path id="Trazado_100614" data-name="Trazado 100614" d="M331.818,619.349l-.235,21.5,10.318-5.808.235-21.5Z" fill="#006e86"/>
      <path id="Trazado_100615" data-name="Trazado 100615" d="M371.278,597.139l-.235,21.5,23.211-13.064.235-21.5Z" fill="#006e86"/>
      <path id="Trazado_100616" data-name="Trazado 100616" d="M314.32,625.082l-62.448-36.97v.053l-.083,4.3,58.473,34.621,3.8,2.249-.029,2.455-.112,10.287-62.589-37.064-.082,4.357,66.394,39.319.135-12.584.1-8.919Z" fill="#29b1fc"/>
      <path id="Trazado_100617" data-name="Trazado 100617" d="M383.544,590.813l-65.66,45.408-.1-.112-3.746-4.316.029-2.455-3.805-2.249,4.058-2.008,60.669-30.035Z" fill="#9590d1" opacity="0.52" style="mix-blend-mode: multiply;isolation: isolate"/>
      <path id="Trazado_100618" data-name="Trazado 100618" d="M390.315,597.284,302.758,630.39l-64.5-66.429,87.557-29.477Z" fill="#ffa400"/>
      <path id="Trazado_100619" data-name="Trazado 100619" d="M303.674,600.887l-.269,24.583,80.5-27.1.269-24.583Z" fill="#fff"/>
      <path id="Trazado_100620" data-name="Trazado 100620" d="M382.766,578.692l-73.518,28.393,61.795-20.31-62.209,23.211,71.5-21.875-72.121,25.43v5.978l50.361-15.8L308.833,620.97l31.671-7.988-36.023,12.489V605.012Z" fill="#f4cab5" opacity="0.52" style="mix-blend-mode: multiply;isolation: isolate"/>
      <path id="Trazado_100621" data-name="Trazado 100621" d="M390.315,574.2l-21.022,7.076-18.72,6.3-13.717,4.615-34.1,11.48-23.224-23.911v-.006l-41.28-42.513,50.481-16.993,37.075-12.478,11.045,11.374,7.9,8.138,14.527,14.962Z" fill="#ffa400"/>
      <path id="Trazado_100622" data-name="Trazado 100622" d="M336.856,519.146v73.047l-34.1,11.48-23.224-23.911v-.006l9.2-59.506,37.075-12.478Z" fill="#aee0e0" opacity="0.53" style="mix-blend-mode: overlay;isolation: isolate"/>
      <path id="Trazado_100623" data-name="Trazado 100623" d="M369.293,581.277l-18.72,6.3-5.813-60.293,14.527,14.962Z" fill="#aee0e0" opacity="0.53" style="mix-blend-mode: overlay;isolation: isolate"/>
      <g id="Grupo_53865" data-name="Grupo 53865">
        <path id="Trazado_100624" data-name="Trazado 100624" d="M306.3,590.814a1.87,1.87,0,0,1-1.342-.565l-44.7-46.031a1.866,1.866,0,0,1,.744-3.068l60.669-20.422a1.873,1.873,0,0,1,1.933.468l44.7,46.032a1.866,1.866,0,0,1-.743,3.068l-60.668,20.422A1.852,1.852,0,0,1,306.3,590.814Zm-44.774-47.823,44.7,46.031a.1.1,0,0,0,.107.026L367,568.626a.1.1,0,0,0,.042-.171l-44.7-46.032a.1.1,0,0,0-.108-.026L261.57,542.82a.1.1,0,0,0-.041.171Z" fill="#fff"/>
      </g>
      <path id="Trazado_100625" data-name="Trazado 100625" d="M281.141,548.2l6.205,6.89a.613.613,0,0,0,.634.154l37.664-12.679a.611.611,0,0,0,.243-1.005l-6.2-6.89a.61.61,0,0,0-.634-.153l-37.664,12.678A.611.611,0,0,0,281.141,548.2Z" fill="#ffffba"/>
      <path id="Trazado_100626" data-name="Trazado 100626" d="M302.463,630.413l.293-26.739-64.5-66.43-.293,26.739Z" fill="#e68600"/>
      <path id="Trazado_100627" data-name="Trazado 100627" d="M373.486,583.585l13.3-4.48,3.524-1.375V574.2l-19.548,6.583-68.009,22.889v26.741l87.557-29.5v-3.629l-3.524,1.1-80.51,27.128V606.2Z" fill="#d57100"/>
    </g>
  </g>
</svg>
