<svg xmlns="http://www.w3.org/2000/svg" xmlns:xlink="http://www.w3.org/1999/xlink" width="615.33" height="239.136" viewBox="0 0 615.33 239.136">
  <defs>
    <linearGradient id="linear-gradient" x1="-0.097" y1="0.5" x2="1.357" y2="0.5" gradientUnits="objectBoundingBox">
      <stop offset="0" stop-color="#fff"/>
      <stop offset="1" stop-color="#cccbcb"/>
    </linearGradient>
    <linearGradient id="linear-gradient-2" x1="0.781" y1="0.5" x2="-1.347" y2="0.5" xlink:href="#linear-gradient"/>
  </defs>
  <g id="Grupo_54196" data-name="Grupo 54196" transform="translate(-492.335 -1956)">
    <g id="Grupo_54194" data-name="Grupo 54194">
      <g id="Grupo_53794" data-name="Grupo 53794" transform="translate(964.677 2173.249)">
        <g id="Grupo_53790" data-name="Grupo 53790">
          <rect id="Rectángulo_5192" data-name="Rectángulo 5192" width="0.795" height="1.587" transform="translate(-463.51 -147.92)" fill="#666667"/>
          <path id="Trazado_100545" data-name="Trazado 100545" d="M-462.715-151.041h-.8v-3.12h.8Zm0-6.241h-.8V-160.4h.8Zm0-6.242h-.8v-3.121h.8Zm0-6.241h-.8v-3.121h.8Zm0-6.242h-.8v-3.121h.8Zm0-6.242h-.8v2.88h.8Zm0-.241h-.8v-3.121h.8Zm0-6.242h-.8v-3.12h.8Zm.009-6.228-.8-.026a16.854,16.854,0,0,1,.4-3.164l.775.175A16.115,16.115,0,0,0-462.706-194.96Zm1.336-5.9-.728-.32a16.783,16.783,0,0,1,1.556-2.786l.654.451A15.979,15.979,0,0,0-461.37-200.862Zm3.439-4.981-.557-.567a16.787,16.787,0,0,1,2.478-2.011l.44.662A15.963,15.963,0,0,0-457.931-205.843Zm5.041-3.349-.306-.733a16.61,16.61,0,0,1,3.051-.939l.159.779A15.855,15.855,0,0,0-452.89-209.192Zm5.926-1.215-.009-.795h3.125v.795Zm34.324,0h-3.121v-.795h3.121Zm-6.241,0H-422v-.795h3.121Zm-6.242,0h-3.121v-.795h3.121Zm-6.242,0h-3.12v-.795h3.12Zm-6.241,0h-3.121v-.795h3.121Z" fill="#666667"/>
          <rect id="Rectángulo_5193" data-name="Rectángulo 5193" width="1.587" height="0.795" transform="translate(-409.505 -211.203)" fill="#666667"/>
        </g>
        <g id="Grupo_53791" data-name="Grupo 53791">
          <rect id="Rectángulo_5194" data-name="Rectángulo 5194" width="0.795" height="1.587" transform="translate(-309.871 -146.332)" fill="#666667"/>
          <path id="Trazado_100546" data-name="Trazado 100546" d="M-259-83.462h-3.121v-.8H-259Zm-6.242,0h-3.12v-.8h3.12Zm-6.241,0h-3.121v-.8h3.121Zm-6.242,0h-3.121v-.8h3.121Zm-6.241,0h-3.121v-.8h3.121Zm-6.242,0h-3.126l.01-.8h3.116Zm-6.3-.339a16.631,16.631,0,0,1-3.051-.938l.306-.734a15.775,15.775,0,0,0,2.9.893Zm-5.866-2.443a16.817,16.817,0,0,1-2.477-2.011l.557-.566a16,16,0,0,0,2.36,1.915ZM-306.9-90.7a16.745,16.745,0,0,1-1.556-2.786l.728-.32a15.98,15.98,0,0,0,1.482,2.655Zm-2.554-5.817a16.863,16.863,0,0,1-.4-3.165l.8-.026a16.1,16.1,0,0,0,.385,3.015Zm.381-6.3h-.8v-3.121h.8Zm0-6.242h-.8v2.879h.8Zm0-.242h-.8v-1.12h.8Zm0-4.241h-.8v-3.121h.8Zm0-6.242h-.8V-122.9h.8Zm0-6.241h-.8v-3.121h.8Zm0-6.242h-.8v-3.121h.8Zm0-6.242h-.8v-3.12h.8Z" fill="#666667"/>
          <rect id="Rectángulo_5195" data-name="Rectángulo 5195" width="1.587" height="0.795" transform="translate(-255.867 -84.257)" fill="#666667"/>
        </g>
        <g id="Grupo_53792" data-name="Grupo 53792">
          <rect id="Rectángulo_5196" data-name="Rectángulo 5196" width="0.795" height="1.587" transform="translate(-1.868 -146.332)" fill="#666667"/>
          <path id="Trazado_100547" data-name="Trazado 100547" d="M49-83.462H45.881v-.8H49Zm-6.242,0H39.639v-.8H42.76Zm-6.241,0H33.4v-.8h3.121Zm-6.242,0H27.156v-.8h3.121Zm-6.242,0h-3.12v-.8h3.12Zm-6.241,0H14.668l.01-.8h3.116ZM11.5-83.8a16.624,16.624,0,0,1-3.05-.939l.306-.733a15.775,15.775,0,0,0,2.9.893ZM5.631-86.244a16.813,16.813,0,0,1-2.478-2.011l.557-.566a16.114,16.114,0,0,0,2.361,1.915ZM1.1-90.7A16.77,16.77,0,0,1-.456-93.483l.727-.32a15.977,15.977,0,0,0,1.483,2.655Zm-2.553-5.818a16.874,16.874,0,0,1-.4-3.164l.795-.026A16.125,16.125,0,0,0-.679-96.69Zm.381-6.3h-.8v-3.121h.8Zm0-6.242h-.8v2.879h.8Zm0-.242h-.8v-1.12h.8Zm0-4.241h-.8v-3.121h.8Zm0-6.242h-.8V-122.9h.8Zm0-6.241h-.8v-3.121h.8Zm0-6.242h-.8v-3.121h.8Zm0-6.242h-.8v-3.12h.8Z" fill="#666667"/>
          <rect id="Rectángulo_5197" data-name="Rectángulo 5197" width="1.587" height="0.795" transform="translate(52.136 -84.257)" fill="#666667"/>
        </g>
        <g id="Grupo_53793" data-name="Grupo 53793">
          <rect id="Rectángulo_5198" data-name="Rectángulo 5198" width="0.795" height="1.587" transform="translate(-155.953 -147.92)" fill="#666667"/>
          <path id="Trazado_100548" data-name="Trazado 100548" d="M-155.158-151.041h-.795v-3.12h.795Zm0-6.241h-.795V-160.4h.795Zm0-6.242h-.795v-3.121h.795Zm0-6.241h-.795v-3.121h.795Zm0-6.242h-.795v-3.121h.795Zm0-6.242h-.795v2.88h.795Zm0-.241h-.795v-3.121h.795Zm0-6.242h-.795v-3.12h.795Zm.009-6.228-.794-.026a16.861,16.861,0,0,1,.4-3.164l.775.175A16.126,16.126,0,0,0-155.149-194.96Zm1.336-5.9-.728-.32a16.815,16.815,0,0,1,1.556-2.786l.654.451A16.052,16.052,0,0,0-153.813-200.862Zm3.439-4.981-.557-.567a16.775,16.775,0,0,1,2.478-2.011l.44.662A16,16,0,0,0-150.374-205.843Zm5.041-3.348-.306-.734a16.664,16.664,0,0,1,3.051-.939l.159.779A15.779,15.779,0,0,0-145.333-209.191Zm5.926-1.216-.009-.795h3.125v.795Zm34.324,0H-108.2v-.795h3.121Zm-6.241,0h-3.121v-.795h3.121Zm-6.242,0h-3.121v-.795h3.121Zm-6.242,0h-3.12v-.795h3.12Zm-6.241,0h-3.121v-.795h3.121Z" fill="#666667"/>
          <rect id="Rectángulo_5199" data-name="Rectángulo 5199" width="1.587" height="0.795" transform="translate(-101.948 -211.203)" fill="#666667"/>
        </g>
      </g>
      <g id="Grupo_53795" data-name="Grupo 53795" transform="translate(964.677 2173.249)">
        <path id="Trazado_100549" data-name="Trazado 100549" d="M-389.476-216.891l5.877,4.917a1.525,1.525,0,0,1,0,2.337l-5.877,4.916a1.523,1.523,0,0,1-2.5-1.168v-9.833A1.524,1.524,0,0,1-389.476-216.891Z" fill="#e77c20"/>
        <rect id="Rectángulo_5200" data-name="Rectángulo 5200" width="1.941" height="4.171" transform="translate(-405.37 -212.891)" fill="#e77c20"/>
        <rect id="Rectángulo_5201" data-name="Rectángulo 5201" width="10.367" height="4.171" transform="translate(-397.883 -212.891)" fill="#e77c20"/>
        <rect id="Rectángulo_5202" data-name="Rectángulo 5202" width="1.108" height="4.171" transform="translate(-407.918 -212.891)" fill="#e77c20"/>
        <rect id="Rectángulo_5203" data-name="Rectángulo 5203" width="2.664" height="4.171" transform="translate(-401.988 -212.891)" fill="#e77c20"/>
      </g>
      <path id="Trazado_100550" data-name="Trazado 100550" d="M142.988-146.332v-48.635a22.282,22.282,0,0,0-22.282-22.282H11.438a22.282,22.282,0,0,0-22.282,22.282v48.635Z" transform="translate(964.677 2173.249)" fill="#007dbd"/>
      <g id="Grupo_53796" data-name="Grupo 53796" transform="translate(964.677 2173.249)">
        <path id="Trazado_100551" data-name="Trazado 100551" d="M-472.342-146.332V-99.7A22.282,22.282,0,0,0-450.06-77.416h109.268A22.282,22.282,0,0,0-318.51-99.7v-46.634Z" fill="#e77c20"/>
        <path id="Trazado_100552" data-name="Trazado 100552" d="M-336.97-146.332V-132l36.92-14.331Z" fill="#e77c20"/>
      </g>
      <g id="Grupo_53797" data-name="Grupo 53797" transform="translate(964.677 2173.249)">
        <path id="Trazado_100553" data-name="Trazado 100553" d="M-164.677-146.332V-99.7A22.282,22.282,0,0,0-142.4-77.416H-33.126A22.282,22.282,0,0,0-10.844-99.7v-46.634Z" fill="#fad369"/>
        <path id="Trazado_100554" data-name="Trazado 100554" d="M-29.3-146.332V-132l36.92-14.331Z" fill="#fad369"/>
      </g>
      <g id="Grupo_53798" data-name="Grupo 53798" transform="translate(964.677 2173.249)">
        <path id="Trazado_100555" data-name="Trazado 100555" d="M-164.677-146.332v-48.635a22.282,22.282,0,0,0-22.282-22.282H-296.228a22.282,22.282,0,0,0-22.282,22.282v48.635Z" fill="#4fa3b1"/>
        <path id="Trazado_100556" data-name="Trazado 100556" d="M-183.137-146.332v-14.331l36.92,14.331Z" fill="#4fa3b1"/>
      </g>
      <g id="Grupo_53799" data-name="Grupo 53799" transform="translate(964.677 2173.249)" opacity="0.8">
        <rect id="Rectángulo_5204" data-name="Rectángulo 5204" width="114.263" height="100.263" rx="3.043" transform="translate(-452.558 -197.464)" fill="#666667" style="mix-blend-mode: multiply;isolation: isolate"/>
      </g>
      <g id="Grupo_53800" data-name="Grupo 53800" transform="translate(964.677 2173.249)" opacity="0.8">
        <rect id="Rectángulo_5205" data-name="Rectángulo 5205" width="114.263" height="100.263" rx="3.043" transform="translate(-298.661 -197.464)" fill="#666667" style="mix-blend-mode: multiply;isolation: isolate"/>
      </g>
      <g id="Grupo_53801" data-name="Grupo 53801" transform="translate(964.677 2173.249)" opacity="0.8">
        <rect id="Rectángulo_5206" data-name="Rectángulo 5206" width="114.263" height="100.263" rx="3.043" transform="translate(-144.893 -197.464)" fill="#666667" style="mix-blend-mode: multiply;isolation: isolate"/>
      </g>
      <g id="Grupo_53802" data-name="Grupo 53802" transform="translate(964.883 2173.249)">
        <rect id="Rectángulo_5207" data-name="Rectángulo 5207" width="116.913" height="102.913" rx="4.368" transform="translate(-453.882 -198.789)" fill="url(#linear-gradient)"/>
        <rect id="Rectángulo_5208" data-name="Rectángulo 5208" width="110.759" height="96.76" rx="4.368" transform="translate(-450.806 -195.712)" fill="url(#linear-gradient-2)"/>
        <path id="Trazado_100557" data-name="Trazado 100557" d="M-345.118-98.645H-445.734a5.385,5.385,0,0,1-5.379-5.379V-190.64a5.385,5.385,0,0,1,5.379-5.38h100.616a5.385,5.385,0,0,1,5.379,5.38v86.616A5.385,5.385,0,0,1-345.118-98.645ZM-445.734-195.4a4.769,4.769,0,0,0-4.764,4.764v86.616a4.769,4.769,0,0,0,4.764,4.764h100.616a4.769,4.769,0,0,0,4.764-4.764V-190.64a4.769,4.769,0,0,0-4.764-4.764Z" fill="#fff"/>
      </g>
      <g id="Grupo_53803" data-name="Grupo 53803" transform="translate(965.05 2173.249)">
        <rect id="Rectángulo_5209" data-name="Rectángulo 5209" width="116.913" height="102.913" rx="4.368" transform="translate(-300.05 -198.789)" fill="url(#linear-gradient)"/>
        <rect id="Rectángulo_5210" data-name="Rectángulo 5210" width="110.76" height="96.76" rx="4.368" transform="translate(-296.973 -195.712)" fill="url(#linear-gradient-2)"/>
        <path id="Trazado_100558" data-name="Trazado 100558" d="M-191.285-98.645H-291.9a5.385,5.385,0,0,1-5.38-5.379V-190.64a5.386,5.386,0,0,1,5.38-5.38h100.616a5.385,5.385,0,0,1,5.379,5.38v86.616A5.385,5.385,0,0,1-191.285-98.645ZM-291.9-195.4a4.769,4.769,0,0,0-4.764,4.764v86.616A4.769,4.769,0,0,0-291.9-99.26h100.616a4.769,4.769,0,0,0,4.764-4.764V-190.64a4.769,4.769,0,0,0-4.764-4.764Z" fill="#fff"/>
      </g>
      <g id="Grupo_53804" data-name="Grupo 53804" transform="translate(964.677 2173.249)">
        <rect id="Rectángulo_5211" data-name="Rectángulo 5211" width="116.913" height="102.913" rx="4.368" transform="translate(-146.217 -198.789)" fill="url(#linear-gradient)"/>
        <rect id="Rectángulo_5212" data-name="Rectángulo 5212" width="110.76" height="96.76" rx="4.368" transform="translate(-142.677 -195.712)" fill="url(#linear-gradient-2)"/>
        <path id="Trazado_100559" data-name="Trazado 100559" d="M-37.453-98.645H-138.069a5.385,5.385,0,0,1-5.379-5.379V-190.64a5.385,5.385,0,0,1,5.379-5.38H-37.453a5.386,5.386,0,0,1,5.38,5.38v86.616A5.385,5.385,0,0,1-37.453-98.645ZM-138.069-195.4a4.769,4.769,0,0,0-4.764,4.764v86.616a4.769,4.769,0,0,0,4.764,4.764H-37.453a4.769,4.769,0,0,0,4.764-4.764V-190.64a4.769,4.769,0,0,0-4.764-4.764Z" fill="#fff"/>
      </g>
      <g id="Grupo_53805" data-name="Grupo 53805" transform="translate(964.384 2173.249)">
        <rect id="Rectángulo_5213" data-name="Rectángulo 5213" width="116.913" height="102.913" rx="4.368" transform="translate(7.616 -198.789)" fill="url(#linear-gradient)"/>
        <rect id="Rectángulo_5214" data-name="Rectángulo 5214" width="110.759" height="96.76" rx="4.368" transform="translate(10.692 -195.712)" fill="url(#linear-gradient-2)"/>
        <path id="Trazado_100560" data-name="Trazado 100560" d="M116.38-98.645H15.764a5.385,5.385,0,0,1-5.379-5.379V-190.64a5.385,5.385,0,0,1,5.379-5.38H116.38a5.385,5.385,0,0,1,5.379,5.38v86.616A5.385,5.385,0,0,1,116.38-98.645ZM15.764-195.4A4.769,4.769,0,0,0,11-190.64v86.616a4.769,4.769,0,0,0,4.764,4.764H116.38a4.769,4.769,0,0,0,4.764-4.764V-190.64a4.769,4.769,0,0,0-4.764-4.764Z" fill="#fff"/>
      </g>
      <g id="Grupo_53806" data-name="Grupo 53806" transform="translate(964.677 2173.249)">
        <path id="Trazado_100561" data-name="Trazado 100561" d="M-81.919-216.891l5.877,4.917a1.523,1.523,0,0,1,0,2.337l-5.877,4.916a1.523,1.523,0,0,1-2.5-1.168v-9.833A1.524,1.524,0,0,1-81.919-216.891Z" fill="#fad369"/>
        <rect id="Rectángulo_5215" data-name="Rectángulo 5215" width="1.941" height="4.171" transform="translate(-97.813 -212.891)" fill="#fad369"/>
        <rect id="Rectángulo_5216" data-name="Rectángulo 5216" width="10.367" height="4.171" transform="translate(-90.326 -212.891)" fill="#fad369"/>
        <rect id="Rectángulo_5217" data-name="Rectángulo 5217" width="1.108" height="4.171" transform="translate(-100.361 -212.891)" fill="#fad369"/>
        <rect id="Rectángulo_5218" data-name="Rectángulo 5218" width="2.664" height="4.171" transform="translate(-94.43 -212.891)" fill="#fad369"/>
      </g>
      <g id="Grupo_53807" data-name="Grupo 53807" transform="translate(964.677 2173.249)">
        <path id="Trazado_100562" data-name="Trazado 100562" d="M-235.837-89.944l5.876,4.916a1.523,1.523,0,0,1,0,2.337l-5.876,4.917a1.524,1.524,0,0,1-2.5-1.169v-9.833A1.524,1.524,0,0,1-235.837-89.944Z" fill="#4fa3b1"/>
        <rect id="Rectángulo_5219" data-name="Rectángulo 5219" width="1.941" height="4.171" transform="translate(-251.731 -85.944)" fill="#4fa3b1"/>
        <rect id="Rectángulo_5220" data-name="Rectángulo 5220" width="10.367" height="4.171" transform="translate(-244.244 -85.944)" fill="#4fa3b1"/>
        <rect id="Rectángulo_5221" data-name="Rectángulo 5221" width="1.108" height="4.171" transform="translate(-254.279 -85.944)" fill="#4fa3b1"/>
        <rect id="Rectángulo_5222" data-name="Rectángulo 5222" width="2.664" height="4.171" transform="translate(-248.349 -85.944)" fill="#4fa3b1"/>
      </g>
      <g id="Grupo_53808" data-name="Grupo 53808" transform="translate(964.677 2173.249)">
        <path id="Trazado_100563" data-name="Trazado 100563" d="M72.166-89.944l5.876,4.916a1.523,1.523,0,0,1,0,2.337l-5.876,4.917a1.524,1.524,0,0,1-2.5-1.169v-9.833A1.524,1.524,0,0,1,72.166-89.944Z" fill="#007dbd"/>
        <rect id="Rectángulo_5223" data-name="Rectángulo 5223" width="1.941" height="4.171" transform="translate(56.272 -85.944)" fill="#007dbd"/>
        <rect id="Rectángulo_5224" data-name="Rectángulo 5224" width="10.367" height="4.171" transform="translate(63.759 -85.944)" fill="#007dbd"/>
        <rect id="Rectángulo_5225" data-name="Rectángulo 5225" width="1.108" height="4.171" transform="translate(53.724 -85.944)" fill="#007dbd"/>
        <rect id="Rectángulo_5226" data-name="Rectángulo 5226" width="2.664" height="4.171" transform="translate(59.654 -85.944)" fill="#007dbd"/>
      </g>
      <path id="Trazado_101292" data-name="Trazado 101292" d="M3.133-4.219V0H1.156V-11.375H5.508a4.4,4.4,0,0,1,3.027.993A3.34,3.34,0,0,1,9.656-7.754a3.229,3.229,0,0,1-1.1,2.6,4.613,4.613,0,0,1-3.074.931Zm0-1.594H5.508a2.339,2.339,0,0,0,1.609-.5,1.823,1.823,0,0,0,.555-1.434,1.967,1.967,0,0,0-.562-1.473,2.168,2.168,0,0,0-1.547-.566H3.133ZM13.359-1.594h5.164V0H11.383V-11.375h1.977Zm13.2-1.055H22.148L21.227,0H19.172l4.3-11.375h1.773L29.547,0H27.484ZM22.7-4.242H26L24.352-8.961ZM39.859,0H37.883l-5.07-8.07V0H30.836V-11.375h1.977l5.086,8.1v-8.1h1.961Zm8.984-5.078H44.172v3.484h5.461V0H42.2V-11.375h7.383v1.594H44.172v3.141h4.672Zm8.766,2.43H53.2L52.281,0H50.227l4.3-11.375H56.3L60.6,0H58.539ZM53.758-4.242h3.3L55.406-8.961ZM66.07-4.375h-2.2V0H61.891V-11.375h4a4.653,4.653,0,0,1,3.039.884A3.126,3.126,0,0,1,70-7.935a3.2,3.2,0,0,1-.551,1.912,3.5,3.5,0,0,1-1.535,1.185L70.469-.1V0H68.352Zm-2.2-1.594H65.9a2.259,2.259,0,0,0,1.563-.5,1.757,1.757,0,0,0,.563-1.379,1.871,1.871,0,0,0-.52-1.414,2.207,2.207,0,0,0-1.551-.516H63.867Z" transform="translate(531.899 2055.107)" fill="#474746"/>
      <path id="Trazado_101293" data-name="Trazado 101293" d="M7.523-2.648H3.117L2.2,0H.141l4.3-11.375H6.211L10.516,0H8.453ZM3.672-4.242h3.3L5.32-8.961ZM20.32-3.7a4.107,4.107,0,0,1-1.344,2.84A4.581,4.581,0,0,1,15.859.156a4.436,4.436,0,0,1-2.395-.645,4.231,4.231,0,0,1-1.6-1.832,6.611,6.611,0,0,1-.586-2.758V-6.141a6.659,6.659,0,0,1,.57-2.836,4.3,4.3,0,0,1,1.637-1.891,4.566,4.566,0,0,1,2.465-.664,4.4,4.4,0,0,1,3.031,1.02A4.26,4.26,0,0,1,20.32-7.625H18.352a2.81,2.81,0,0,0-.715-1.77,2.363,2.363,0,0,0-1.684-.543A2.308,2.308,0,0,0,13.973-9a4.709,4.709,0,0,0-.707,2.764v1.009a5,5,0,0,0,.66,2.815,2.191,2.191,0,0,0,1.934.97,2.555,2.555,0,0,0,1.75-.523A2.729,2.729,0,0,0,18.352-3.7Zm9.758-6.078H26.531V0H24.57V-9.781H21.055v-1.594h9.023Zm9.813-1.594v7.6A3.694,3.694,0,0,1,38.73-.9,4.407,4.407,0,0,1,35.641.156a4.438,4.438,0,0,1-3.1-1.043,3.712,3.712,0,0,1-1.148-2.895v-7.594h1.969v7.6a2.411,2.411,0,0,0,.578,1.739,2.257,2.257,0,0,0,1.7.6q2.281,0,2.281-2.4v-7.535Zm8.3,8.727H43.789L42.867,0H40.813l4.3-11.375h1.773L51.188,0H49.125ZM44.344-4.242h3.3L45.992-8.961Zm12.313-.133h-2.2V0H52.477V-11.375h4a4.653,4.653,0,0,1,3.039.884,3.126,3.126,0,0,1,1.07,2.557,3.2,3.2,0,0,1-.551,1.912A3.5,3.5,0,0,1,58.5-4.838L61.055-.1V0H58.938Zm-2.2-1.594h2.031a2.259,2.259,0,0,0,1.563-.5,1.757,1.757,0,0,0,.563-1.379,1.871,1.871,0,0,0-.52-1.414,2.207,2.207,0,0,0-1.551-.516H54.453Z" transform="translate(1000 2055.107)" fill="#474746"/>
      <path id="Trazado_101294" data-name="Trazado 101294" d="M10.188,0H8.219V-5.047H3.133V0H1.156V-11.375H3.133v4.734H8.219v-4.734h1.969Zm8.844-2.648H14.625L13.7,0H11.648l4.3-11.375h1.773L22.023,0H19.961ZM15.18-4.242h3.3L16.828-8.961ZM31.828-3.7a4.107,4.107,0,0,1-1.344,2.84A4.581,4.581,0,0,1,27.367.156a4.436,4.436,0,0,1-2.395-.645,4.231,4.231,0,0,1-1.6-1.832,6.611,6.611,0,0,1-.586-2.758V-6.141a6.659,6.659,0,0,1,.57-2.836A4.3,4.3,0,0,1,25-10.867a4.566,4.566,0,0,1,2.465-.664,4.4,4.4,0,0,1,3.031,1.02,4.26,4.26,0,0,1,1.336,2.887H29.859a2.81,2.81,0,0,0-.715-1.77,2.363,2.363,0,0,0-1.684-.543A2.308,2.308,0,0,0,25.48-9a4.709,4.709,0,0,0-.707,2.764v1.009a5,5,0,0,0,.66,2.815,2.191,2.191,0,0,0,1.934.97,2.555,2.555,0,0,0,1.75-.523A2.729,2.729,0,0,0,29.859-3.7Zm8.414-1.375H35.57v3.484h5.461V0H33.594V-11.375h7.383v1.594H35.57v3.141h4.672Zm6.578.7h-2.2V0H42.641V-11.375h4a4.653,4.653,0,0,1,3.039.884,3.126,3.126,0,0,1,1.07,2.557A3.2,3.2,0,0,1,50.2-6.023a3.5,3.5,0,0,1-1.535,1.185L51.219-.1V0H49.1Zm-2.2-1.594h2.031a2.259,2.259,0,0,0,1.563-.5,1.757,1.757,0,0,0,.563-1.379,1.871,1.871,0,0,0-.52-1.414A2.207,2.207,0,0,0,46.7-9.781H44.617Z" transform="translate(695.357 2055.107)" fill="#474746"/>
      <path id="Trazado_101295" data-name="Trazado 101295" d="M5.164-2.477l2.891-8.9h2.172L6.133,0H4.219L.141-11.375H2.3Zm12.992-2.6H13.484v3.484h5.461V0H11.508V-11.375h7.383v1.594H13.484v3.141h4.672Zm6.578.7h-2.2V0H20.555V-11.375h4a4.653,4.653,0,0,1,3.039.884,3.126,3.126,0,0,1,1.07,2.557,3.2,3.2,0,0,1-.551,1.912,3.5,3.5,0,0,1-1.535,1.185L29.133-.1V0H27.016Zm-2.2-1.594h2.031a2.259,2.259,0,0,0,1.563-.5,1.757,1.757,0,0,0,.563-1.379,1.871,1.871,0,0,0-.52-1.414,2.207,2.207,0,0,0-1.551-.516H22.531ZM32.625,0H30.656V-11.375h1.969Zm8.984-4.8H37.031V0H35.055V-11.375h7.227v1.594h-5.25V-6.4h4.578ZM45.93,0H43.961V-11.375H45.93ZM57.039-3.7A4.107,4.107,0,0,1,55.7-.863,4.581,4.581,0,0,1,52.578.156a4.436,4.436,0,0,1-2.395-.645,4.231,4.231,0,0,1-1.6-1.832A6.611,6.611,0,0,1,48-5.078V-6.141a6.659,6.659,0,0,1,.57-2.836,4.3,4.3,0,0,1,1.637-1.891,4.566,4.566,0,0,1,2.465-.664,4.4,4.4,0,0,1,3.031,1.02,4.26,4.26,0,0,1,1.336,2.887H55.07a2.81,2.81,0,0,0-.715-1.77,2.363,2.363,0,0,0-1.684-.543A2.308,2.308,0,0,0,50.691-9a4.709,4.709,0,0,0-.707,2.764v1.009a5,5,0,0,0,.66,2.815,2.191,2.191,0,0,0,1.934.97,2.555,2.555,0,0,0,1.75-.523A2.729,2.729,0,0,0,55.07-3.7Zm8.133,1.055H60.766L59.844,0H57.789l4.3-11.375h1.773L68.164,0H66.1ZM61.32-4.242h3.3L62.969-8.961Zm12.313-.133h-2.2V0H69.453V-11.375h4a4.653,4.653,0,0,1,3.039.884,3.126,3.126,0,0,1,1.07,2.557,3.2,3.2,0,0,1-.551,1.912,3.5,3.5,0,0,1-1.535,1.185L78.031-.1V0H75.914Zm-2.2-1.594h2.031a2.259,2.259,0,0,0,1.563-.5,1.757,1.757,0,0,0,.563-1.379,1.871,1.871,0,0,0-.52-1.414,2.207,2.207,0,0,0-1.551-.516H71.43Z" transform="translate(835.783 2055.107)" fill="#474746"/>
    </g>
    <g id="Grupo_54195" data-name="Grupo 54195">
      <path id="Trazado_101296" data-name="Trazado 101296" d="M86.52,13.773H91.91V15h-6.9V3.625H86.52ZM98.613,15a3.036,3.036,0,0,1-.2-.891A3.225,3.225,0,0,1,96,15.156a2.984,2.984,0,0,1-2.051-.707,2.288,2.288,0,0,1-.8-1.793,2.39,2.39,0,0,1,1-2.051,4.733,4.733,0,0,1,2.824-.73h1.406V9.211A1.623,1.623,0,0,0,97.934,8,1.821,1.821,0,0,0,96.6,7.555a2.108,2.108,0,0,0-1.3.391,1.151,1.151,0,0,0-.523.945H93.324a2,2,0,0,1,.449-1.223,3.066,3.066,0,0,1,1.219-.934,4.1,4.1,0,0,1,1.691-.344,3.342,3.342,0,0,1,2.289.73,2.635,2.635,0,0,1,.859,2.012v3.891a4.757,4.757,0,0,0,.3,1.852V15Zm-2.4-1.1a2.54,2.54,0,0,0,1.289-.352,2.127,2.127,0,0,0,.883-.914V10.9H97.254q-2.656,0-2.656,1.555a1.316,1.316,0,0,0,.453,1.063A1.742,1.742,0,0,0,96.215,13.9Zm10.8-1.141a1.064,1.064,0,0,0-.441-.91,4.249,4.249,0,0,0-1.539-.559,7.277,7.277,0,0,1-1.742-.562,2.479,2.479,0,0,1-.953-.781,1.869,1.869,0,0,1-.309-1.078,2.193,2.193,0,0,1,.879-1.758,3.432,3.432,0,0,1,2.246-.719,3.532,3.532,0,0,1,2.332.742,2.357,2.357,0,0,1,.895,1.9h-1.453a1.3,1.3,0,0,0-.5-1.023,1.888,1.888,0,0,0-1.27-.43,1.976,1.976,0,0,0-1.234.344,1.082,1.082,0,0,0-.445.9.877.877,0,0,0,.414.789,5.1,5.1,0,0,0,1.5.508,7.8,7.8,0,0,1,1.754.578,2.558,2.558,0,0,1,1,.809,1.988,1.988,0,0,1,.324,1.152,2.163,2.163,0,0,1-.906,1.816,3.8,3.8,0,0,1-2.352.684,4.257,4.257,0,0,1-1.8-.359,2.922,2.922,0,0,1-1.223-1,2.42,2.42,0,0,1-.441-1.395h1.445a1.5,1.5,0,0,0,.582,1.152,2.258,2.258,0,0,0,1.434.426,2.331,2.331,0,0,0,1.316-.332A1.02,1.02,0,0,0,107.02,12.758Zm10.68,1.219a2.082,2.082,0,0,0,1.352-.469,1.649,1.649,0,0,0,.641-1.172h1.367a2.621,2.621,0,0,1-.5,1.383,3.293,3.293,0,0,1-1.23,1.047,3.55,3.55,0,0,1-1.629.391A3.482,3.482,0,0,1,114.953,14a4.59,4.59,0,0,1-1.02-3.152v-.242a5.089,5.089,0,0,1,.453-2.2,3.451,3.451,0,0,1,1.3-1.492,3.7,3.7,0,0,1,2-.531,3.39,3.39,0,0,1,2.363.852,3.043,3.043,0,0,1,1,2.211h-1.367a1.992,1.992,0,0,0-.621-1.348,1.932,1.932,0,0,0-1.379-.527,2.023,2.023,0,0,0-1.707.793,3.724,3.724,0,0,0-.605,2.293v.273a3.65,3.65,0,0,0,.6,2.25A2.033,2.033,0,0,0,117.7,13.977Zm10.2.188a3.07,3.07,0,0,1-2.477.992,2.628,2.628,0,0,1-2.059-.785,3.4,3.4,0,0,1-.715-2.324v-5.5H124.1v5.461q0,1.922,1.563,1.922a2.163,2.163,0,0,0,2.2-1.234V6.547h1.445V15h-1.375Zm8.82.836a3.036,3.036,0,0,1-.2-.891,3.225,3.225,0,0,1-2.406,1.047,2.984,2.984,0,0,1-2.051-.707,2.287,2.287,0,0,1-.8-1.793,2.39,2.39,0,0,1,1-2.051,4.733,4.733,0,0,1,2.824-.73H136.5V9.211A1.623,1.623,0,0,0,136.043,8a1.821,1.821,0,0,0-1.336-.449,2.107,2.107,0,0,0-1.3.391,1.151,1.151,0,0,0-.523.945h-1.453a2,2,0,0,1,.449-1.223,3.066,3.066,0,0,1,1.219-.934,4.1,4.1,0,0,1,1.691-.344,3.342,3.342,0,0,1,2.289.73,2.635,2.635,0,0,1,.859,2.012v3.891a4.757,4.757,0,0,0,.3,1.852V15Zm-2.4-1.1a2.54,2.54,0,0,0,1.289-.352,2.127,2.127,0,0,0,.883-.914V10.9h-1.133q-2.656,0-2.656,1.555a1.316,1.316,0,0,0,.453,1.063A1.742,1.742,0,0,0,134.324,13.9Zm7.844-9.4V6.547h1.578V7.664h-1.578v5.249a1.173,1.173,0,0,0,.211.763.888.888,0,0,0,.719.254,3.5,3.5,0,0,0,.688-.094V15a4.215,4.215,0,0,1-1.109.155,1.8,1.8,0,0,1-1.461-.586,2.517,2.517,0,0,1-.492-1.664V7.664h-1.539V6.547h1.539V4.5Zm7.352,3.344a4.331,4.331,0,0,0-.711-.055A1.9,1.9,0,0,0,146.879,9v6h-1.445V6.547h1.406l.023.977a2.251,2.251,0,0,1,2.016-1.133,1.477,1.477,0,0,1,.641.109Zm.789,2.852a4.993,4.993,0,0,1,.488-2.234,3.642,3.642,0,0,1,1.359-1.531,3.7,3.7,0,0,1,1.988-.539,3.565,3.565,0,0,1,2.793,1.2A4.6,4.6,0,0,1,158,10.766v.1a5.036,5.036,0,0,1-.473,2.215,3.589,3.589,0,0,1-1.352,1.527,3.743,3.743,0,0,1-2.02.547,3.556,3.556,0,0,1-2.785-1.2,4.575,4.575,0,0,1-1.066-3.164Zm1.453.172a3.616,3.616,0,0,0,.652,2.258,2.211,2.211,0,0,0,3.5-.012,3.954,3.954,0,0,0,.648-2.418,3.61,3.61,0,0,0-.66-2.254,2.1,2.1,0,0,0-1.754-.863,2.075,2.075,0,0,0-1.727.852A3.925,3.925,0,0,0,151.762,10.867Zm15.523,4.289a3.693,3.693,0,0,1-2.8-1.129,4.19,4.19,0,0,1-1.078-3.02v-.266a5.073,5.073,0,0,1,.48-2.246,3.748,3.748,0,0,1,1.344-1.547,3.378,3.378,0,0,1,1.871-.559,3.166,3.166,0,0,1,2.563,1.086,4.7,4.7,0,0,1,.914,3.109v.6h-5.727a3,3,0,0,0,.73,2.02,2.3,2.3,0,0,0,1.777.77,2.517,2.517,0,0,0,1.3-.312,3.258,3.258,0,0,0,.93-.828l.883.688A3.55,3.55,0,0,1,167.285,15.156Zm-.18-7.578a1.928,1.928,0,0,0-1.469.637A3.1,3.1,0,0,0,164.9,10h4.234V9.891a2.753,2.753,0,0,0-.594-1.707A1.815,1.815,0,0,0,167.105,7.578ZM174.215,4.5V6.547h1.578V7.664h-1.578v5.249a1.173,1.173,0,0,0,.211.763.888.888,0,0,0,.719.254,3.5,3.5,0,0,0,.688-.094V15a4.215,4.215,0,0,1-1.109.155,1.8,1.8,0,0,1-1.461-.586,2.517,2.517,0,0,1-.492-1.664V7.664H171.23V6.547h1.539V4.5ZM182.7,15a3.036,3.036,0,0,1-.2-.891,3.225,3.225,0,0,1-2.406,1.047,2.984,2.984,0,0,1-2.051-.707,2.287,2.287,0,0,1-.8-1.793,2.39,2.39,0,0,1,1-2.051,4.733,4.733,0,0,1,2.824-.73h1.406V9.211A1.623,1.623,0,0,0,182.02,8a1.821,1.821,0,0,0-1.336-.449,2.107,2.107,0,0,0-1.3.391,1.151,1.151,0,0,0-.523.945H177.41a2,2,0,0,1,.449-1.223,3.066,3.066,0,0,1,1.219-.934,4.1,4.1,0,0,1,1.691-.344,3.342,3.342,0,0,1,2.289.73,2.635,2.635,0,0,1,.859,2.012v3.891a4.757,4.757,0,0,0,.3,1.852V15Zm-2.4-1.1a2.54,2.54,0,0,0,1.289-.352,2.127,2.127,0,0,0,.883-.914V10.9H181.34q-2.656,0-2.656,1.555a1.316,1.316,0,0,0,.453,1.063A1.742,1.742,0,0,0,180.3,13.9Zm13.023-3.031a5.062,5.062,0,0,1-.883,3.109,2.829,2.829,0,0,1-2.391,1.18,3.1,3.1,0,0,1-2.422-.977v4.07h-1.445V6.547h1.32l.07.938a2.977,2.977,0,0,1,2.453-1.094,2.882,2.882,0,0,1,2.41,1.148,5.117,5.117,0,0,1,.887,3.2Zm-1.445-.164a3.735,3.735,0,0,0-.609-2.258,1.963,1.963,0,0,0-1.672-.828,2.125,2.125,0,0,0-1.969,1.164V12.82a2.129,2.129,0,0,0,1.984,1.156,1.954,1.954,0,0,0,1.652-.824A4.077,4.077,0,0,0,191.879,10.7Zm8.5,4.3a3.036,3.036,0,0,1-.2-.891,3.225,3.225,0,0,1-2.406,1.047,2.984,2.984,0,0,1-2.051-.707,2.287,2.287,0,0,1-.8-1.793,2.39,2.39,0,0,1,1-2.051,4.733,4.733,0,0,1,2.824-.73h1.406V9.211A1.623,1.623,0,0,0,199.7,8a1.821,1.821,0,0,0-1.336-.449,2.107,2.107,0,0,0-1.3.391,1.151,1.151,0,0,0-.523.945H195.09a2,2,0,0,1,.449-1.223,3.066,3.066,0,0,1,1.219-.934,4.1,4.1,0,0,1,1.691-.344,3.342,3.342,0,0,1,2.289.73,2.635,2.635,0,0,1,.859,2.012v3.891a4.757,4.757,0,0,0,.3,1.852V15Zm-2.4-1.1a2.54,2.54,0,0,0,1.289-.352,2.127,2.127,0,0,0,.883-.914V10.9H199.02q-2.656,0-2.656,1.555a1.316,1.316,0,0,0,.453,1.063A1.742,1.742,0,0,0,197.98,13.9Zm10.8-1.141a1.064,1.064,0,0,0-.441-.91,4.249,4.249,0,0,0-1.539-.559,7.277,7.277,0,0,1-1.742-.562,2.479,2.479,0,0,1-.953-.781,1.869,1.869,0,0,1-.309-1.078,2.193,2.193,0,0,1,.879-1.758,3.432,3.432,0,0,1,2.246-.719,3.532,3.532,0,0,1,2.332.742,2.357,2.357,0,0,1,.895,1.9H208.7a1.3,1.3,0,0,0-.5-1.023,1.888,1.888,0,0,0-1.27-.43,1.976,1.976,0,0,0-1.234.344,1.082,1.082,0,0,0-.445.9.877.877,0,0,0,.414.789,5.1,5.1,0,0,0,1.5.508,7.8,7.8,0,0,1,1.754.578,2.558,2.558,0,0,1,1,.809,1.988,1.988,0,0,1,.324,1.152,2.163,2.163,0,0,1-.906,1.816,3.8,3.8,0,0,1-2.352.684,4.257,4.257,0,0,1-1.8-.359,2.922,2.922,0,0,1-1.223-1,2.42,2.42,0,0,1-.441-1.395h1.445a1.5,1.5,0,0,0,.582,1.152,2.258,2.258,0,0,0,1.434.426,2.331,2.331,0,0,0,1.316-.332A1.02,1.02,0,0,0,208.785,12.758Zm6.938-2.055a4.952,4.952,0,0,1,.922-3.129,3.137,3.137,0,0,1,4.766-.168V3h1.445V15h-1.328l-.07-.906a2.943,2.943,0,0,1-2.414,1.063,2.887,2.887,0,0,1-2.395-1.2,5.008,5.008,0,0,1-.926-3.141Zm1.445.164a3.749,3.749,0,0,0,.594,2.25,1.919,1.919,0,0,0,1.641.813A2.108,2.108,0,0,0,221.41,12.7V8.813a2.125,2.125,0,0,0-1.992-1.2,1.929,1.929,0,0,0-1.656.82A4.128,4.128,0,0,0,217.168,10.867Zm11.438,4.289a3.693,3.693,0,0,1-2.8-1.129,4.19,4.19,0,0,1-1.078-3.02v-.266a5.073,5.073,0,0,1,.48-2.246,3.748,3.748,0,0,1,1.344-1.547,3.378,3.378,0,0,1,1.871-.559,3.166,3.166,0,0,1,2.563,1.086,4.7,4.7,0,0,1,.914,3.109v.6h-5.727a3,3,0,0,0,.73,2.02,2.3,2.3,0,0,0,1.777.77,2.517,2.517,0,0,0,1.3-.312,3.258,3.258,0,0,0,.93-.828l.883.688A3.55,3.55,0,0,1,228.605,15.156Zm-.18-7.578a1.928,1.928,0,0,0-1.469.637A3.1,3.1,0,0,0,226.223,10h4.234V9.891a2.753,2.753,0,0,0-.594-1.707A1.815,1.815,0,0,0,228.426,7.578ZM235.145,15H233.7V3h1.445Zm9.664-1.023a2.082,2.082,0,0,0,1.352-.469,1.649,1.649,0,0,0,.641-1.172h1.367a2.621,2.621,0,0,1-.5,1.383,3.293,3.293,0,0,1-1.23,1.047,3.55,3.55,0,0,1-1.629.391A3.482,3.482,0,0,1,242.063,14a4.59,4.59,0,0,1-1.02-3.152v-.242a5.089,5.089,0,0,1,.453-2.2,3.451,3.451,0,0,1,1.3-1.492,3.7,3.7,0,0,1,2-.531,3.39,3.39,0,0,1,2.363.852,3.043,3.043,0,0,1,1,2.211H246.8a1.992,1.992,0,0,0-.621-1.348,1.932,1.932,0,0,0-1.379-.527,2.023,2.023,0,0,0-1.707.793,3.724,3.724,0,0,0-.605,2.293v.273a3.65,3.65,0,0,0,.6,2.25A2.033,2.033,0,0,0,244.809,13.977ZM251.363,15h-1.445V6.547h1.445ZM249.8,4.3a.863.863,0,0,1,.215-.594.807.807,0,0,1,.637-.242.819.819,0,0,1,.641.242.854.854,0,0,1,.219.594.826.826,0,0,1-.219.586.834.834,0,0,1-.641.234.821.821,0,0,1-.637-.234A.834.834,0,0,1,249.8,4.3Zm7.266,9.672a2.082,2.082,0,0,0,1.352-.469,1.649,1.649,0,0,0,.641-1.172h1.367a2.621,2.621,0,0,1-.5,1.383,3.293,3.293,0,0,1-1.23,1.047,3.55,3.55,0,0,1-1.629.391A3.482,3.482,0,0,1,254.32,14a4.59,4.59,0,0,1-1.02-3.152v-.242a5.089,5.089,0,0,1,.453-2.2,3.451,3.451,0,0,1,1.3-1.492,3.7,3.7,0,0,1,2-.531,3.39,3.39,0,0,1,2.363.852,3.043,3.043,0,0,1,1,2.211h-1.367a1.992,1.992,0,0,0-.621-1.348,1.932,1.932,0,0,0-1.379-.527,2.023,2.023,0,0,0-1.707.793,3.724,3.724,0,0,0-.605,2.293v.273a3.65,3.65,0,0,0,.6,2.25A2.033,2.033,0,0,0,257.066,13.977ZM263.621,15h-1.445V3h1.445Zm1.93-4.3a4.993,4.993,0,0,1,.488-2.234A3.643,3.643,0,0,1,267.4,6.93a3.7,3.7,0,0,1,1.988-.539,3.565,3.565,0,0,1,2.793,1.2,4.6,4.6,0,0,1,1.066,3.18v.1a5.036,5.036,0,0,1-.473,2.215,3.589,3.589,0,0,1-1.352,1.527,3.743,3.743,0,0,1-2.02.547,3.556,3.556,0,0,1-2.785-1.2,4.575,4.575,0,0,1-1.066-3.164Zm1.453.172a3.616,3.616,0,0,0,.652,2.258,2.211,2.211,0,0,0,3.5-.012A3.955,3.955,0,0,0,271.8,10.7a3.61,3.61,0,0,0-.66-2.254,2.1,2.1,0,0,0-1.754-.863,2.075,2.075,0,0,0-1.727.852A3.925,3.925,0,0,0,267,10.867Zm13.742-.32V15h-1.5V3.625h4.2a4.215,4.215,0,0,1,2.926.953A3.231,3.231,0,0,1,287.426,7.1a3.189,3.189,0,0,1-1.035,2.551,4.4,4.4,0,0,1-2.965.895Zm0-1.227h2.7a2.7,2.7,0,0,0,1.844-.567,2.075,2.075,0,0,0,.641-1.64,2.143,2.143,0,0,0-.641-1.628,2.525,2.525,0,0,0-1.758-.634h-2.781ZM298.082,15h-1.508V9.742H290.84V15h-1.5V3.625h1.5V8.516h5.734V3.625h1.508Zm6.43-1.992,3.25-9.383H309.4L305.184,15h-1.328L299.645,3.625h1.633Zm12.109-.984h-4.766L310.785,15h-1.547l4.344-11.375h1.313L319.246,15h-1.539ZM312.309,10.8h3.867l-1.937-5.32Zm17.125,1.961a1.064,1.064,0,0,0-.441-.91,4.249,4.249,0,0,0-1.539-.559,7.276,7.276,0,0,1-1.742-.562,2.478,2.478,0,0,1-.953-.781,1.869,1.869,0,0,1-.309-1.078,2.193,2.193,0,0,1,.879-1.758,3.432,3.432,0,0,1,2.246-.719,3.532,3.532,0,0,1,2.332.742,2.357,2.357,0,0,1,.895,1.9h-1.453a1.3,1.3,0,0,0-.5-1.023,1.888,1.888,0,0,0-1.27-.43,1.976,1.976,0,0,0-1.234.344,1.082,1.082,0,0,0-.445.9.877.877,0,0,0,.414.789,5.1,5.1,0,0,0,1.5.508,7.8,7.8,0,0,1,1.754.578,2.559,2.559,0,0,1,1,.809,1.988,1.988,0,0,1,.324,1.152,2.163,2.163,0,0,1-.906,1.816,3.8,3.8,0,0,1-2.352.684,4.257,4.257,0,0,1-1.8-.359,2.922,2.922,0,0,1-1.223-1,2.42,2.42,0,0,1-.441-1.395h1.445a1.5,1.5,0,0,0,.582,1.152,2.258,2.258,0,0,0,1.434.426,2.331,2.331,0,0,0,1.316-.332A1.02,1.02,0,0,0,329.434,12.758Zm6.836,2.4a3.693,3.693,0,0,1-2.8-1.129,4.19,4.19,0,0,1-1.078-3.02v-.266a5.073,5.073,0,0,1,.48-2.246,3.748,3.748,0,0,1,1.344-1.547,3.378,3.378,0,0,1,1.871-.559,3.166,3.166,0,0,1,2.563,1.086,4.7,4.7,0,0,1,.914,3.109v.6H333.84a3,3,0,0,0,.73,2.02,2.3,2.3,0,0,0,1.777.77,2.517,2.517,0,0,0,1.3-.312,3.259,3.259,0,0,0,.93-.828l.883.688A3.55,3.55,0,0,1,336.27,15.156Zm-.18-7.578a1.928,1.928,0,0,0-1.469.637A3.1,3.1,0,0,0,333.887,10h4.234V9.891a2.753,2.753,0,0,0-.594-1.707A1.815,1.815,0,0,0,336.09,7.578Zm8.758,3.125a4.952,4.952,0,0,1,.922-3.129,3.137,3.137,0,0,1,4.766-.168V3h1.445V15h-1.328l-.07-.906a2.943,2.943,0,0,1-2.414,1.063,2.887,2.887,0,0,1-2.395-1.2,5.008,5.008,0,0,1-.926-3.141Zm1.445.164a3.749,3.749,0,0,0,.594,2.25,1.92,1.92,0,0,0,1.641.813,2.109,2.109,0,0,0,2.008-1.234V8.813a2.125,2.125,0,0,0-1.992-1.2,1.929,1.929,0,0,0-1.656.82A4.128,4.128,0,0,0,346.293,10.867Zm11.438,4.289a3.693,3.693,0,0,1-2.8-1.129,4.19,4.19,0,0,1-1.078-3.02v-.266a5.073,5.073,0,0,1,.48-2.246,3.748,3.748,0,0,1,1.344-1.547,3.378,3.378,0,0,1,1.871-.559,3.166,3.166,0,0,1,2.563,1.086,4.7,4.7,0,0,1,.914,3.109v.6H355.3a3,3,0,0,0,.73,2.02,2.3,2.3,0,0,0,1.777.77,2.517,2.517,0,0,0,1.3-.312,3.259,3.259,0,0,0,.93-.828l.883.688A3.55,3.55,0,0,1,357.73,15.156Zm-.18-7.578a1.928,1.928,0,0,0-1.469.637A3.1,3.1,0,0,0,355.348,10h4.234V9.891a2.753,2.753,0,0,0-.594-1.707A1.815,1.815,0,0,0,357.551,7.578Zm10.07,5.18a1.064,1.064,0,0,0-.441-.91,4.249,4.249,0,0,0-1.539-.559,7.276,7.276,0,0,1-1.742-.562,2.478,2.478,0,0,1-.953-.781,1.869,1.869,0,0,1-.309-1.078,2.193,2.193,0,0,1,.879-1.758,3.432,3.432,0,0,1,2.246-.719,3.532,3.532,0,0,1,2.332.742,2.357,2.357,0,0,1,.895,1.9h-1.453a1.3,1.3,0,0,0-.5-1.023,1.888,1.888,0,0,0-1.27-.43,1.976,1.976,0,0,0-1.234.344,1.082,1.082,0,0,0-.445.9.877.877,0,0,0,.414.789,5.1,5.1,0,0,0,1.5.508,7.8,7.8,0,0,1,1.754.578,2.559,2.559,0,0,1,1,.809,1.988,1.988,0,0,1,.324,1.152,2.163,2.163,0,0,1-.906,1.816,3.8,3.8,0,0,1-2.352.684,4.257,4.257,0,0,1-1.8-.359,2.922,2.922,0,0,1-1.223-1,2.42,2.42,0,0,1-.441-1.395h1.445a1.5,1.5,0,0,0,.582,1.152,2.258,2.258,0,0,0,1.434.426,2.331,2.331,0,0,0,1.316-.332A1.02,1.02,0,0,0,367.621,12.758Zm6.719,1.219a2.082,2.082,0,0,0,1.352-.469,1.649,1.649,0,0,0,.641-1.172H377.7a2.621,2.621,0,0,1-.5,1.383,3.293,3.293,0,0,1-1.23,1.047,3.55,3.55,0,0,1-1.629.391A3.482,3.482,0,0,1,371.594,14a4.59,4.59,0,0,1-1.02-3.152v-.242a5.089,5.089,0,0,1,.453-2.2,3.451,3.451,0,0,1,1.3-1.492,3.7,3.7,0,0,1,2-.531,3.39,3.39,0,0,1,2.363.852,3.043,3.043,0,0,1,1,2.211h-1.367a1.992,1.992,0,0,0-.621-1.348,1.932,1.932,0,0,0-1.379-.527,2.023,2.023,0,0,0-1.707.793,3.724,3.724,0,0,0-.605,2.293v.273a3.65,3.65,0,0,0,.6,2.25A2.033,2.033,0,0,0,374.34,13.977Zm9.07-6.133a4.331,4.331,0,0,0-.711-.055A1.9,1.9,0,0,0,380.77,9v6h-1.445V6.547h1.406l.023.977a2.251,2.251,0,0,1,2.016-1.133,1.477,1.477,0,0,1,.641.109Zm2.9,7.156h-1.445V6.547h1.445ZM384.746,4.3a.863.863,0,0,1,.215-.594.807.807,0,0,1,.637-.242.819.819,0,0,1,.641.242.854.854,0,0,1,.219.594.826.826,0,0,1-.219.586.834.834,0,0,1-.641.234.821.821,0,0,1-.637-.234A.834.834,0,0,1,384.746,4.3Zm11.031,6.563a5.026,5.026,0,0,1-.891,3.113,2.846,2.846,0,0,1-2.391,1.176,2.947,2.947,0,0,1-2.477-1.133l-.07.977h-1.328V3h1.445V7.477a2.93,2.93,0,0,1,2.414-1.086A2.863,2.863,0,0,1,394.9,7.555a5.177,5.177,0,0,1,.879,3.188Zm-1.445-.164a3.906,3.906,0,0,0-.57-2.281,1.888,1.888,0,0,0-1.641-.8,2.122,2.122,0,0,0-2.055,1.328V12.6a2.181,2.181,0,0,0,2.07,1.328,1.878,1.878,0,0,0,1.617-.8A4.153,4.153,0,0,0,394.332,10.7Zm6.773,4.453a3.693,3.693,0,0,1-2.8-1.129,4.19,4.19,0,0,1-1.078-3.02v-.266a5.073,5.073,0,0,1,.48-2.246,3.748,3.748,0,0,1,1.344-1.547,3.378,3.378,0,0,1,1.871-.559,3.166,3.166,0,0,1,2.563,1.086,4.7,4.7,0,0,1,.914,3.109v.6h-5.727a3,3,0,0,0,.73,2.02,2.3,2.3,0,0,0,1.777.77,2.517,2.517,0,0,0,1.3-.312,3.259,3.259,0,0,0,.93-.828l.883.688A3.55,3.55,0,0,1,401.105,15.156Zm-.18-7.578a1.928,1.928,0,0,0-1.469.637A3.1,3.1,0,0,0,398.723,10h4.234V9.891a2.753,2.753,0,0,0-.594-1.707A1.815,1.815,0,0,0,400.926,7.578Zm6.516-1.031.047,1.063a3.08,3.08,0,0,1,2.531-1.219q2.68,0,2.7,3.023V15h-1.445V9.406a1.946,1.946,0,0,0-.418-1.352,1.675,1.675,0,0,0-1.277-.437,2.086,2.086,0,0,0-1.234.375,2.546,2.546,0,0,0-.828.984V15h-1.445V6.547ZM424.082,15a3.036,3.036,0,0,1-.2-.891,3.225,3.225,0,0,1-2.406,1.047,2.984,2.984,0,0,1-2.051-.707,2.288,2.288,0,0,1-.8-1.793,2.39,2.39,0,0,1,1-2.051,4.733,4.733,0,0,1,2.824-.73h1.406V9.211A1.623,1.623,0,0,0,423.4,8a1.821,1.821,0,0,0-1.336-.449,2.108,2.108,0,0,0-1.3.391,1.151,1.151,0,0,0-.523.945h-1.453a2,2,0,0,1,.449-1.223,3.066,3.066,0,0,1,1.219-.934,4.1,4.1,0,0,1,1.691-.344,3.342,3.342,0,0,1,2.289.73,2.635,2.635,0,0,1,.859,2.012v3.891a4.757,4.757,0,0,0,.3,1.852V15Zm-2.4-1.1a2.54,2.54,0,0,0,1.289-.352,2.126,2.126,0,0,0,.883-.914V10.9h-1.133q-2.656,0-2.656,1.555a1.316,1.316,0,0,0,.453,1.063A1.742,1.742,0,0,0,421.684,13.9Zm13.234.078a2.082,2.082,0,0,0,1.352-.469,1.649,1.649,0,0,0,.641-1.172h1.367a2.621,2.621,0,0,1-.5,1.383,3.293,3.293,0,0,1-1.23,1.047,3.55,3.55,0,0,1-1.629.391A3.482,3.482,0,0,1,432.172,14a4.59,4.59,0,0,1-1.02-3.152v-.242a5.089,5.089,0,0,1,.453-2.2,3.451,3.451,0,0,1,1.3-1.492,3.7,3.7,0,0,1,2-.531,3.39,3.39,0,0,1,2.363.852,3.043,3.043,0,0,1,1,2.211H436.91a1.992,1.992,0,0,0-.621-1.348,1.932,1.932,0,0,0-1.379-.527,2.023,2.023,0,0,0-1.707.793,3.724,3.724,0,0,0-.605,2.293v.273a3.65,3.65,0,0,0,.6,2.25A2.033,2.033,0,0,0,434.918,13.977Zm4.6-3.281a4.993,4.993,0,0,1,.488-2.234,3.643,3.643,0,0,1,1.359-1.531,3.7,3.7,0,0,1,1.988-.539,3.565,3.565,0,0,1,2.793,1.2,4.6,4.6,0,0,1,1.066,3.18v.1a5.036,5.036,0,0,1-.473,2.215,3.589,3.589,0,0,1-1.352,1.527,3.743,3.743,0,0,1-2.02.547,3.556,3.556,0,0,1-2.785-1.2A4.575,4.575,0,0,1,439.52,10.8Zm1.453.172a3.616,3.616,0,0,0,.652,2.258,2.211,2.211,0,0,0,3.5-.012,3.955,3.955,0,0,0,.648-2.418,3.61,3.61,0,0,0-.66-2.254,2.1,2.1,0,0,0-1.754-.863,2.075,2.075,0,0,0-1.727.852A3.925,3.925,0,0,0,440.973,10.867Zm9.422-4.32.047,1.063a3.08,3.08,0,0,1,2.531-1.219q2.68,0,2.7,3.023V15H454.23V9.406a1.946,1.946,0,0,0-.418-1.352,1.675,1.675,0,0,0-1.277-.437,2.086,2.086,0,0,0-1.234.375,2.546,2.546,0,0,0-.828.984V15h-1.445V6.547ZM459.816,4.5V6.547h1.578V7.664h-1.578v5.249a1.173,1.173,0,0,0,.211.763.888.888,0,0,0,.719.254,3.5,3.5,0,0,0,.688-.094V15a4.215,4.215,0,0,1-1.109.155,1.8,1.8,0,0,1-1.461-.586,2.517,2.517,0,0,1-.492-1.664V7.664h-1.539V6.547h1.539V4.5ZM464.652,15h-1.445V6.547h1.445ZM463.09,4.3a.863.863,0,0,1,.215-.594.807.807,0,0,1,.637-.242.819.819,0,0,1,.641.242.854.854,0,0,1,.219.594.826.826,0,0,1-.219.586.834.834,0,0,1-.641.234.821.821,0,0,1-.637-.234A.834.834,0,0,1,463.09,4.3Zm5.242,2.242.047,1.063a3.08,3.08,0,0,1,2.531-1.219q2.68,0,2.7,3.023V15h-1.445V9.406a1.946,1.946,0,0,0-.418-1.352,1.675,1.675,0,0,0-1.277-.437,2.086,2.086,0,0,0-1.234.375,2.546,2.546,0,0,0-.828.984V15h-1.445V6.547Zm12.68,7.617a3.07,3.07,0,0,1-2.477.992,2.628,2.628,0,0,1-2.059-.785,3.4,3.4,0,0,1-.715-2.324v-5.5h1.445v5.461q0,1.922,1.563,1.922a2.163,2.163,0,0,0,2.2-1.234V6.547h1.445V15h-1.375Zm8.82.836a3.036,3.036,0,0,1-.2-.891,3.225,3.225,0,0,1-2.406,1.047,2.984,2.984,0,0,1-2.051-.707,2.288,2.288,0,0,1-.8-1.793,2.39,2.39,0,0,1,1-2.051,4.733,4.733,0,0,1,2.824-.73h1.406V9.211A1.623,1.623,0,0,0,489.152,8a1.821,1.821,0,0,0-1.336-.449,2.108,2.108,0,0,0-1.3.391,1.151,1.151,0,0,0-.523.945h-1.453a2,2,0,0,1,.449-1.223,3.066,3.066,0,0,1,1.219-.934,4.1,4.1,0,0,1,1.691-.344,3.342,3.342,0,0,1,2.289.73,2.635,2.635,0,0,1,.859,2.012v3.891a4.757,4.757,0,0,0,.3,1.852V15Zm-2.4-1.1a2.54,2.54,0,0,0,1.289-.352,2.126,2.126,0,0,0,.883-.914V10.9h-1.133q-2.656,0-2.656,1.555a1.316,1.316,0,0,0,.453,1.063A1.742,1.742,0,0,0,487.434,13.9Zm9.273.078a2.082,2.082,0,0,0,1.352-.469,1.649,1.649,0,0,0,.641-1.172h1.367a2.621,2.621,0,0,1-.5,1.383,3.293,3.293,0,0,1-1.23,1.047,3.55,3.55,0,0,1-1.629.391A3.482,3.482,0,0,1,493.961,14a4.59,4.59,0,0,1-1.02-3.152v-.242a5.089,5.089,0,0,1,.453-2.2,3.451,3.451,0,0,1,1.3-1.492,3.7,3.7,0,0,1,2-.531,3.39,3.39,0,0,1,2.363.852,3.043,3.043,0,0,1,1,2.211H498.7a1.992,1.992,0,0,0-.621-1.348,1.932,1.932,0,0,0-1.379-.527,2.023,2.023,0,0,0-1.707.793,3.724,3.724,0,0,0-.605,2.293v.273a3.65,3.65,0,0,0,.6,2.25A2.033,2.033,0,0,0,496.707,13.977ZM503.262,15h-1.445V6.547h1.445ZM501.7,4.3a.863.863,0,0,1,.215-.594.807.807,0,0,1,.637-.242.819.819,0,0,1,.641.242.854.854,0,0,1,.219.594.826.826,0,0,1-.219.586.834.834,0,0,1-.641.234.821.821,0,0,1-.637-.234A.834.834,0,0,1,501.7,4.3Zm3.492,6.391a4.993,4.993,0,0,1,.488-2.234,3.643,3.643,0,0,1,1.359-1.531,3.7,3.7,0,0,1,1.988-.539,3.565,3.565,0,0,1,2.793,1.2,4.6,4.6,0,0,1,1.066,3.18v.1a5.036,5.036,0,0,1-.473,2.215,3.589,3.589,0,0,1-1.352,1.527,3.743,3.743,0,0,1-2.02.547,3.556,3.556,0,0,1-2.785-1.2,4.575,4.575,0,0,1-1.066-3.164Zm1.453.172a3.616,3.616,0,0,0,.652,2.258,2.211,2.211,0,0,0,3.5-.012,3.955,3.955,0,0,0,.648-2.418,3.61,3.61,0,0,0-.66-2.254,2.1,2.1,0,0,0-1.754-.863,2.075,2.075,0,0,0-1.727.852A3.925,3.925,0,0,0,506.645,10.867Zm3.039-7.852h1.75l-2.094,2.3-1.164,0Zm6.383,3.531.047,1.063a3.08,3.08,0,0,1,2.531-1.219q2.68,0,2.7,3.023V15H519.9V9.406a1.946,1.946,0,0,0-.418-1.352,1.675,1.675,0,0,0-1.277-.437,2.086,2.086,0,0,0-1.234.375,2.546,2.546,0,0,0-.828.984V15H514.7V6.547Zm7.414,7.7a.905.905,0,0,1,.223-.625.848.848,0,0,1,.668-.25.874.874,0,0,1,.676.25.887.887,0,0,1,.23.625.839.839,0,0,1-.23.6.89.89,0,0,1-.676.242.8.8,0,0,1-.891-.844Zm.008-6.9a.905.905,0,0,1,.223-.625.848.848,0,0,1,.668-.25.874.874,0,0,1,.676.25.887.887,0,0,1,.23.625.839.839,0,0,1-.23.6.89.89,0,0,1-.676.242.8.8,0,0,1-.891-.844Z" transform="translate(495 2134)" fill="#12263f"/>
      <g id="Grupo_53817" data-name="Grupo 53817" transform="translate(0 155)">
        <path id="Trazado_100565" data-name="Trazado 100565" d="M-645.579-383.706h609v44.5h-303.16v19.371" transform="translate(1141.079 2347.538)" fill="none" stroke="#b2b2b2" stroke-miterlimit="10" stroke-width="1" stroke-dasharray="5"/>
        <g id="Grupo_53816" data-name="Grupo 53816" transform="translate(590.194 2423.189) rotate(90)">
          <path id="Trazado_100549-2" data-name="Trazado 100549" d="M-389.476-216.891l5.877,4.917a1.525,1.525,0,0,1,0,2.337l-5.877,4.916a1.523,1.523,0,0,1-2.5-1.168v-9.833A1.524,1.524,0,0,1-389.476-216.891Z" fill="#afafaf"/>
          <rect id="Rectángulo_5200-2" data-name="Rectángulo 5200" width="1.941" height="4.171" transform="translate(-405.37 -212.891)" fill="#afafaf"/>
          <rect id="Rectángulo_5201-2" data-name="Rectángulo 5201" width="10.367" height="4.171" transform="translate(-397.883 -212.891)" fill="#afafaf"/>
          <rect id="Rectángulo_5202-2" data-name="Rectángulo 5202" width="1.108" height="4.171" transform="translate(-407.918 -212.891)" fill="#afafaf"/>
          <rect id="Rectángulo_5203-2" data-name="Rectángulo 5203" width="2.664" height="4.171" transform="translate(-401.988 -212.891)" fill="#afafaf"/>
        </g>
      </g>
    </g>
    <g id="Grupo_54066" data-name="Grupo 54066" transform="translate(970.057 2176.529)">
      <g id="Grupo_54065" data-name="Grupo 54065" transform="translate(-421.057 -188.724)">
        <path id="Trazado_101028" data-name="Trazado 101028" d="M-390.963-154.032l3.757-8.043a12.786,12.786,0,0,0-.8-12.336,12.789,12.789,0,0,0-10.838-5.948,12.786,12.786,0,0,0-10.837,5.948,12.786,12.786,0,0,0-.8,12.336l3.757,8.043a2.608,2.608,0,0,0-.854,1.932,2.6,2.6,0,0,0,.669,1.744,2.608,2.608,0,0,0-.669,1.745A2.62,2.62,0,0,0-404.964-146h2.025a4.192,4.192,0,0,0,4.095,3.315A4.192,4.192,0,0,0-394.751-146h2.025a2.62,2.62,0,0,0,2.617-2.616,2.608,2.608,0,0,0-.669-1.745,2.6,2.6,0,0,0,.669-1.744,2.611,2.611,0,0,0-.854-1.932Zm-14.158-.685-3.783-8.1a11.051,11.051,0,0,1,.693-10.661,11.05,11.05,0,0,1,9.365-5.14,11.051,11.051,0,0,1,9.366,5.14,11.052,11.052,0,0,1,.693,10.661l-3.783,8.1h-3.311v-7.326h1.22a2.969,2.969,0,0,0,2.966-2.965,2.969,2.969,0,0,0-2.966-2.966,2.969,2.969,0,0,0-2.965,2.966v1.22h-2.441v-1.22a2.969,2.969,0,0,0-2.966-2.966A2.969,2.969,0,0,0-406-165.008a2.969,2.969,0,0,0,2.965,2.965h1.221v7.326Zm3.311-9.071h-1.221a1.222,1.222,0,0,1-1.221-1.22,1.222,1.222,0,0,1,1.221-1.221,1.222,1.222,0,0,1,1.221,1.221Zm1.745,1.745h2.441v7.326h-2.441Zm4.186-1.745v-1.22a1.222,1.222,0,0,1,1.22-1.221,1.222,1.222,0,0,1,1.221,1.221,1.222,1.222,0,0,1-1.221,1.22Zm-2.966,19.363a2.446,2.446,0,0,1-2.28-1.571h4.561A2.444,2.444,0,0,1-398.845-144.425Zm6.12-3.315h-12.239a.873.873,0,0,1-.872-.872.873.873,0,0,1,.872-.872h2.195a.873.873,0,0,0,.872-.872.873.873,0,0,0-.872-.872h-2.195a.873.873,0,0,1-.872-.872.873.873,0,0,1,.872-.872h12.239a.873.873,0,0,1,.872.872.873.873,0,0,1-.872.872h-2.195a.872.872,0,0,0-.872.872.872.872,0,0,0,.872.872h2.195a.873.873,0,0,1,.872.872A.873.873,0,0,1-392.726-147.739Z" transform="translate(419.505 187.336)" fill="#e77c20"/>
        <path id="Trazado_101029" data-name="Trazado 101029" d="M-396.462-183.491a.872.872,0,0,0,.872-.872v-3.489a.872.872,0,0,0-.872-.872.872.872,0,0,0-.872.872v3.489A.872.872,0,0,0-396.462-183.491Z" transform="translate(417.122 188.724)" fill="#e77c20"/>
        <path id="Trazado_101030" data-name="Trazado 101030" d="M-411.391-177.807a.866.866,0,0,0,.616.256.866.866,0,0,0,.616-.256.87.87,0,0,0,0-1.233l-2.466-2.467a.873.873,0,0,0-1.234,0,.873.873,0,0,0,0,1.234Z" transform="translate(419.905 187.569)" fill="#e77c20"/>
        <path id="Trazado_101031" data-name="Trazado 101031" d="M-416.7-164.974h-3.488a.872.872,0,0,0-.872.872.872.872,0,0,0,.872.872h3.488a.872.872,0,0,0,.872-.872A.872.872,0,0,0-416.7-164.974Z" transform="translate(421.057 184.784)" fill="#e77c20"/>
        <path id="Trazado_101032" data-name="Trazado 101032" d="M-411.373-150.9l-2.466,2.467a.873.873,0,0,0,0,1.234.87.87,0,0,0,.616.255.872.872,0,0,0,.617-.255l2.467-2.467a.873.873,0,0,0,0-1.234A.873.873,0,0,0-411.373-150.9Z" transform="translate(419.902 182.491)" fill="#e77c20"/>
        <path id="Trazado_101033" data-name="Trazado 101033" d="M-380.789-181.507l-2.467,2.467a.872.872,0,0,0,0,1.233.869.869,0,0,0,.617.256.867.867,0,0,0,.616-.256l2.467-2.466a.873.873,0,0,0,0-1.234.873.873,0,0,0-1.234,0Z" transform="translate(414.829 187.569)" fill="#e77c20"/>
        <path id="Trazado_101034" data-name="Trazado 101034" d="M-373.433-164.974h-3.489a.872.872,0,0,0-.872.872.872.872,0,0,0,.872.872h3.489a.873.873,0,0,0,.872-.872A.872.872,0,0,0-373.433-164.974Z" transform="translate(413.88 184.784)" fill="#e77c20"/>
        <path id="Trazado_101035" data-name="Trazado 101035" d="M-382.041-150.9a.873.873,0,0,0-1.234,0,.871.871,0,0,0,0,1.234l2.466,2.467a.87.87,0,0,0,.617.255.87.87,0,0,0,.616-.255.873.873,0,0,0,0-1.234Z" transform="translate(414.832 182.491)" fill="#e77c20"/>
        <path id="Trazado_101036" data-name="Trazado 101036" d="M-396.462-145.434a.877.877,0,0,0-.616.255.879.879,0,0,0-.255.616.883.883,0,0,0,.255.617.881.881,0,0,0,.616.255.882.882,0,0,0,.617-.255.883.883,0,0,0,.255-.617.879.879,0,0,0-.255-.616A.879.879,0,0,0-396.462-145.434Z" transform="translate(417.122 181.543)" fill="#e77c20"/>
      </g>
    </g>
    <g id="Grupo_54067" data-name="Grupo 54067" transform="translate(967.81 2177.285)">
      <path id="Trazado_101037" data-name="Trazado 101037" d="M48.765-155.964a3.371,3.371,0,0,0-1.632.416A19.126,19.126,0,0,1,43.1-167.285,19.112,19.112,0,0,1,62.19-186.376a19.233,19.233,0,0,1,3.8.379.808.808,0,0,0,.953-.632.809.809,0,0,0-.632-.954,20.884,20.884,0,0,0-4.122-.411,20.575,20.575,0,0,0-14.644,6.066,20.575,20.575,0,0,0-6.065,14.643,20.749,20.749,0,0,0,4.456,12.834,3.381,3.381,0,0,0-.569,1.885,3.373,3.373,0,0,0,1,2.4,3.375,3.375,0,0,0,2.4,1,3.373,3.373,0,0,0,2.4-1,3.373,3.373,0,0,0,1-2.4,3.376,3.376,0,0,0-1-2.4A3.373,3.373,0,0,0,48.765-155.964Zm1.259,4.656a1.77,1.77,0,0,1-1.259.521,1.768,1.768,0,0,1-1.258-.521,1.765,1.765,0,0,1-.522-1.258,1.766,1.766,0,0,1,.522-1.259,1.765,1.765,0,0,1,1.258-.521,1.771,1.771,0,0,1,1.259.521,1.768,1.768,0,0,1,.521,1.259A1.768,1.768,0,0,1,50.024-151.308Z" transform="translate(0 0)" fill="#007dbd"/>
      <path id="Trazado_101038" data-name="Trazado 101038" d="M82.3-179.493a3.4,3.4,0,0,0-.425-4.286,3.377,3.377,0,0,0-2.4-.995,3.377,3.377,0,0,0-2.4.995,3.377,3.377,0,0,0-1,2.4,3.376,3.376,0,0,0,1,2.4,3.374,3.374,0,0,0,2.4.995,3.371,3.371,0,0,0,1.632-.416,19.126,19.126,0,0,1,4.035,11.738,19.112,19.112,0,0,1-19.09,19.091,19.23,19.23,0,0,1-3.766-.371.81.81,0,0,0-.953.635.81.81,0,0,0,.635.952,20.855,20.855,0,0,0,4.084.4,20.574,20.574,0,0,0,14.643-6.066,20.572,20.572,0,0,0,6.065-14.643A20.751,20.751,0,0,0,82.3-179.493Zm-4.086-.625a1.768,1.768,0,0,1-.521-1.258,1.77,1.77,0,0,1,.521-1.259,1.771,1.771,0,0,1,1.259-.521,1.771,1.771,0,0,1,1.259.521,1.782,1.782,0,0,1,0,2.517,1.771,1.771,0,0,1-1.259.521A1.77,1.77,0,0,1,78.217-180.118Z" transform="translate(-3.862 -0.627)" fill="#007dbd"/>
      <path id="Trazado_101039" data-name="Trazado 101039" d="M60.3-151.924a.809.809,0,0,0,.809.809h5.058a.809.809,0,0,0,.809-.809v-1.568a12.658,12.658,0,0,0,3.036-1.259l1.107,1.107a.808.808,0,0,0,.573.238.807.807,0,0,0,.572-.238l3.575-3.578a.809.809,0,0,0,0-1.144l-1.106-1.106a12.684,12.684,0,0,0,1.258-3.036h1.562a.809.809,0,0,0,.809-.809v-5.058a.809.809,0,0,0-.809-.809H75.989a12.717,12.717,0,0,0-1.258-3.036l1.1-1.1a.813.813,0,0,0,.237-.573.81.81,0,0,0-.238-.573l-3.577-3.575a.81.81,0,0,0-1.144,0l-1.1,1.1a12.659,12.659,0,0,0-3.036-1.259v-1.553a.809.809,0,0,0-.809-.809H61.107a.809.809,0,0,0-.809.809v1.554a12.625,12.625,0,0,0-3.036,1.258l-1.1-1.1a.81.81,0,0,0-1.144,0l-3.577,3.576a.807.807,0,0,0-.238.572.813.813,0,0,0,.237.573l1.1,1.1a12.671,12.671,0,0,0-1.258,3.036h-1.56a.809.809,0,0,0-.809.809l0,5.058a.81.81,0,0,0,.237.572.809.809,0,0,0,.573.238h1.562a12.684,12.684,0,0,0,1.258,3.036l-1.106,1.106a.809.809,0,0,0,0,1.144l3.575,3.578a.812.812,0,0,0,.572.238h0a.807.807,0,0,0,.572-.238l1.107-1.107a12.658,12.658,0,0,0,3.036,1.259Zm-2.719-4.528a.81.81,0,0,0-1.011.107l-.985.985-2.431-2.433.983-.985a.808.808,0,0,0,.108-1.011,11.071,11.071,0,0,1-1.533-3.7.808.808,0,0,0-.791-.639H50.531l0-3.44H51.92a.808.808,0,0,0,.791-.639,11.071,11.071,0,0,1,1.533-3.7.808.808,0,0,0-.108-1.011l-.978-.978,2.434-2.431.977.977a.81.81,0,0,0,1.011.108,11.068,11.068,0,0,1,3.7-1.533.809.809,0,0,0,.639-.791v-1.382h3.44v1.381a.81.81,0,0,0,.639.792,11.089,11.089,0,0,1,3.7,1.532.808.808,0,0,0,1.011-.107l.978-.977,2.433,2.431-.978.978a.809.809,0,0,0-.107,1.012,11.071,11.071,0,0,1,1.533,3.7.808.808,0,0,0,.791.639h1.39v3.44h-1.39a.808.808,0,0,0-.791.639,11.078,11.078,0,0,1-1.533,3.7.809.809,0,0,0,.107,1.011l.984.984-2.431,2.434-.985-.985a.809.809,0,0,0-1.011-.107A11.072,11.072,0,0,1,66-154.92a.81.81,0,0,0-.639.792v1.4h-3.44v-1.4a.809.809,0,0,0-.639-.792A11.055,11.055,0,0,1,57.58-156.452Z" transform="translate(-1.447 -1.447)" fill="#007dbd"/>
      <path id="Trazado_101040" data-name="Trazado 101040" d="M72.264-163.895a6.692,6.692,0,0,0-6.684-6.684,6.691,6.691,0,0,0-6.684,6.684,6.691,6.691,0,0,0,6.684,6.684A6.692,6.692,0,0,0,72.264-163.895Zm-11.751,0a5.072,5.072,0,0,1,5.066-5.066,5.072,5.072,0,0,1,5.066,5.066,5.072,5.072,0,0,1-5.066,5.066A5.072,5.072,0,0,1,60.514-163.895Z" transform="translate(-3.39 -3.39)" fill="#007dbd"/>
      <path id="Trazado_101041" data-name="Trazado 101041" d="M76.249-184.586a.814.814,0,0,0,.572-.237.818.818,0,0,0,.237-.573.819.819,0,0,0-.237-.573.818.818,0,0,0-.572-.237.815.815,0,0,0-.572.237.817.817,0,0,0-.238.573.817.817,0,0,0,.238.573A.811.811,0,0,0,76.249-184.586Z" transform="translate(-6.611 -0.348)" fill="#007dbd"/>
      <path id="Trazado_101042" data-name="Trazado 101042" d="M57.795-140.345a.814.814,0,0,0-.572.237.814.814,0,0,0-.237.572.813.813,0,0,0,.237.573.818.818,0,0,0,.572.237.82.82,0,0,0,.573-.237.82.82,0,0,0,.237-.573.818.818,0,0,0-.237-.572A.816.816,0,0,0,57.795-140.345Z" transform="translate(-3.018 -9.276)" fill="#007dbd"/>
    </g>
    <g id="Grupo_54072" data-name="Grupo 54072" transform="translate(974.605 2175.194)">
      <g id="Grupo_54069" data-name="Grupo 54069" transform="translate(-267.045 -180.532)">
        <g id="Grupo_54068" data-name="Grupo 54068" transform="translate(0)">
          <path id="Trazado_101043" data-name="Trazado 101043" d="M-228.5-179.032h-18.143a.755.755,0,0,0-.756.756v6.8a.756.756,0,0,0,.756.755.773.773,0,0,0,.239-.038l.95-.317a1.965,1.965,0,0,1,2.479,1.257,1.964,1.964,0,0,1-1.257,2.479,1.962,1.962,0,0,1-1.222,0l-.95-.316a.756.756,0,0,0-.956.478.748.748,0,0,0-.038.239v6.048h-6.048a.756.756,0,0,0-.756.756.749.749,0,0,0,.039.239l.316.95a1.965,1.965,0,0,1-1.257,2.479,1.965,1.965,0,0,1-2.479-1.257,1.963,1.963,0,0,1,0-1.222l.317-.95a.756.756,0,0,0-.479-.956.769.769,0,0,0-.238-.039h-6.8a.756.756,0,0,0-.756.756v18.144a.756.756,0,0,0,.756.756H-228.5a.756.756,0,0,0,.756-.756v-36.287A.755.755,0,0,0-228.5-179.032Zm-18.861,30a.743.743,0,0,0-.038.238v6.048h-16.632v-16.631h5a3.478,3.478,0,0,0,2.27,4.362,3.478,3.478,0,0,0,4.362-2.271,3.469,3.469,0,0,0,0-2.092h5v6.048a.756.756,0,0,0,.756.756.774.774,0,0,0,.239-.039l.95-.316a1.964,1.964,0,0,1,2.479,1.257,1.965,1.965,0,0,1-1.257,2.479,1.962,1.962,0,0,1-1.222,0l-.95-.317A.756.756,0,0,0-247.363-149.031Zm18.1,6.286h-16.631v-5a3.478,3.478,0,0,0,4.362-2.271,3.478,3.478,0,0,0-2.27-4.362,3.481,3.481,0,0,0-2.092,0v-5h6.047a.757.757,0,0,0,.756-.757.749.749,0,0,0-.039-.239l-.316-.95a1.965,1.965,0,0,1,1.257-2.479,1.965,1.965,0,0,1,2.479,1.257,1.964,1.964,0,0,1,0,1.223l-.317.95a.756.756,0,0,0,.479.956.745.745,0,0,0,.238.039h6.048v16.631Zm0-18.143h-5a3.477,3.477,0,0,0-2.271-4.362,3.477,3.477,0,0,0-4.362,2.27,3.482,3.482,0,0,0,0,2.092h-5v-5a3.443,3.443,0,0,0,3.091-.493,3.477,3.477,0,0,0,.812-4.851,3.477,3.477,0,0,0-3.9-1.289v-5h16.631Z" transform="translate(265.545 179.032)" fill="#4fa3b1"/>
        </g>
      </g>
      <g id="Grupo_54071" data-name="Grupo 54071" transform="translate(-274.605 -188.092)">
        <g id="Grupo_54070" data-name="Grupo 54070">
          <path id="Trazado_101044" data-name="Trazado 101044" d="M-252.857-181.581a3.481,3.481,0,0,0-2.092,0v-5.755a.756.756,0,0,0-.756-.756h-18.144a.756.756,0,0,0-.756.756v18.144a.756.756,0,0,0,.756.756h5.755a3.478,3.478,0,0,0,2.27,4.362,3.477,3.477,0,0,0,4.362-2.271,3.469,3.469,0,0,0,0-2.092h5.756a.756.756,0,0,0,.756-.756v-5.756a3.477,3.477,0,0,0,4.362-2.271A3.478,3.478,0,0,0-252.857-181.581Zm-.436,5.184a1.962,1.962,0,0,1-1.222,0l-.95-.316a.756.756,0,0,0-.956.478.773.773,0,0,0-.038.239v6.048h-6.048a.755.755,0,0,0-.755.756.749.749,0,0,0,.038.239l.317.95a1.966,1.966,0,0,1-1.257,2.479,1.965,1.965,0,0,1-2.48-1.257,1.963,1.963,0,0,1,0-1.222l.317-.95a.756.756,0,0,0-.478-.956.748.748,0,0,0-.239-.038h-6.048V-186.58h16.632v6.048a.756.756,0,0,0,.756.755.768.768,0,0,0,.239-.038l.95-.317a1.965,1.965,0,0,1,2.479,1.257A1.964,1.964,0,0,1-253.294-176.4Z" transform="translate(274.605 188.092)" fill="#4fa3b1"/>
        </g>
      </g>
    </g>
    <g id="Grupo_54081" data-name="Grupo 54081" transform="translate(971.818 2174.448)">
      <g id="Grupo_54074" data-name="Grupo 54074" transform="translate(-91.808 -169.51)">
        <g id="Grupo_54073" data-name="Grupo 54073">
          <path id="Trazado_101045" data-name="Trazado 101045" d="M-86.832-166.865a.8.8,0,0,0-.8.8.8.8,0,0,0,.8.8.8.8,0,0,0,.8-.8A.8.8,0,0,0-86.832-166.865Z" transform="translate(87.632 166.865)" fill="#d9af3e"/>
        </g>
      </g>
      <g id="Grupo_54076" data-name="Grupo 54076" transform="translate(-115.818 -184.716)">
        <g id="Grupo_54075" data-name="Grupo 54075">
          <path id="Trazado_101046" data-name="Trazado 101046" d="M-75.779-149.2l-10.683-10.683a15.862,15.862,0,0,0,2.657-8.822,16.025,16.025,0,0,0-16.007-16.007,16.025,16.025,0,0,0-16.006,16.007A16.025,16.025,0,0,0-99.812-152.7a15.871,15.871,0,0,0,8.823-2.657l2.952,2.952h0l7.728,7.729a3.183,3.183,0,0,0,2.264.938,3.18,3.18,0,0,0,2.262-.937,3.178,3.178,0,0,0,.939-2.264A3.178,3.178,0,0,0-75.779-149.2Zm-15.586-7.843h0a14.286,14.286,0,0,1-8.447,2.742,14.421,14.421,0,0,1-14.405-14.405,14.422,14.422,0,0,1,14.405-14.406,14.423,14.423,0,0,1,14.406,14.406,14.278,14.278,0,0,1-2.743,8.446A14.457,14.457,0,0,1-91.365-157.047Zm1.679.726a16.1,16.1,0,0,0,2.263-2.262l2.27,2.27a19.44,19.44,0,0,1-2.262,2.263Zm12.775,10.512a1.59,1.59,0,0,1-1.131.469,1.59,1.59,0,0,1-1.132-.469l-7.106-7.107a21.023,21.023,0,0,0,2.262-2.263l7.107,7.107a1.589,1.589,0,0,1,.469,1.131A1.591,1.591,0,0,1-76.911-145.809Z" transform="translate(115.818 184.716)" fill="#d9af3e"/>
        </g>
      </g>
      <g id="Grupo_54078" data-name="Grupo 54078" transform="translate(-112.617 -181.515)">
        <g id="Grupo_54077" data-name="Grupo 54077">
          <path id="Trazado_101047" data-name="Trazado 101047" d="M-99.255-180.958a12.82,12.82,0,0,0-12.8,12.806,12.819,12.819,0,0,0,12.8,12.8,12.82,12.82,0,0,0,12.806-12.8A12.82,12.82,0,0,0-99.255-180.958Zm0,24.01a11.217,11.217,0,0,1-11.2-11.2,11.217,11.217,0,0,1,11.2-11.2,11.217,11.217,0,0,1,11.2,11.2A11.217,11.217,0,0,1-99.255-156.948Z" transform="translate(112.06 180.958)" fill="#d9af3e"/>
        </g>
      </g>
      <g id="Grupo_54080" data-name="Grupo 54080" transform="translate(-100.612 -178.313)">
        <g id="Grupo_54079" data-name="Grupo 54079">
          <path id="Trazado_101048" data-name="Trazado 101048" d="M-88.2-171.031a9.6,9.6,0,0,0-3.47-4.435,9.53,9.53,0,0,0-5.5-1.733.8.8,0,0,0-.8.8.8.8,0,0,0,.8.8,8.057,8.057,0,0,1,7.475,5.142.8.8,0,0,0,.748.514.807.807,0,0,0,.286-.054A.8.8,0,0,0-88.2-171.031Z" transform="translate(97.967 177.199)" fill="#d9af3e"/>
        </g>
      </g>
    </g>
  </g>
</svg>
