<svg xmlns="http://www.w3.org/2000/svg" xmlns:xlink="http://www.w3.org/1999/xlink" width="186.402" height="178.162" viewBox="0 0 186.402 178.162">
  <defs>
    <clipPath id="clip-path">
      <path id="Trazado_100894" data-name="Trazado 100894" d="M473.483,3442.928c-.7.153-2.738-2.225-3.5-5.945a22.424,22.424,0,0,1,.422-12.065c.577-2.038,3.569-6.009,7.3-6.849a17.211,17.211,0,0,1,6.465-.062c1.755.679,5.374,3.568,4.431,3.284a7.592,7.592,0,0,0-4.954.671,18.362,18.362,0,0,0-7.75,8.39c-1.5,3.032-1.063,7.78-1.839,7.9-1.643.251-1.6,1.969-1.158,3.088C473.265,3442.262,473.777,3442.863,473.483,3442.928Z" transform="translate(-469.359 -3417.733)" fill="#f4846d"/>
    </clipPath>
  </defs>
  <g id="Grupo_53976" data-name="Grupo 53976" transform="translate(-451.292 -3417.732)">
    <ellipse id="Elipse_4061" data-name="Elipse 4061" cx="91.723" cy="16.684" rx="91.723" ry="16.684" transform="translate(453.34 3562.527)" fill="#f6c08d" opacity="0.48" style="mix-blend-mode: multiply;isolation: isolate"/>
    <g id="Grupo_53971" data-name="Grupo 53971" transform="translate(451.292 3436.352)">
      <path id="Trazado_100837" data-name="Trazado 100837" d="M456.906,3483.691c15.265-8.147,17.54-8.512,29.125-14.64H596.058s28.7,10.361,33.968,16.218-12.21,46.752-25.657,49.442-109.854,3.1-124.13-2.276S456.906,3483.691,456.906,3483.691Z" transform="translate(-450.238 -3426.719)" fill="#f16449"/>
      <path id="Trazado_100838" data-name="Trazado 100838" d="M580.183,3446.032a14.325,14.325,0,0,0-5.013.481,18.365,18.365,0,0,0-26.063-6.194,14.456,14.456,0,0,0-24.994.576,18.366,18.366,0,0,0-26.885,5.618,14.322,14.322,0,0,0-5.013-.481c-8.641.708-15.012,9.022-14.23,18.57a19.675,19.675,0,0,0,.285,2.06l7.378,53.333,25.079-2.053-.112-4.333,21.8-1.785-.047-2.482h7.665l-.047,2.482,21.8,1.785-.112,4.333,25.079,2.053,7.378-53.333a19.063,19.063,0,0,0,.285-2.06C595.194,3455.054,588.823,3446.74,580.183,3446.032Z" transform="translate(-446.294 -3433.409)" fill="#f4846d"/>
      <g id="Grupo_53970" data-name="Grupo 53970" transform="translate(34.268 0.704)">
        <path id="Trazado_100839" data-name="Trazado 100839" d="M515.919,3447.518c-.02,0-.01.145.024.425C515.948,3447.664,515.94,3447.518,515.919,3447.518Z" transform="translate(-473.43 -3431.465)" fill="#f16449"/>
        <path id="Trazado_100840" data-name="Trazado 100840" d="M582.879,3446.527c1.867,6.011,5.124,15.4,4.093,27.734-.206,2.462-1.526,18.264-8.483,20.068-2.2.571-3.575.255-4.809-1.6-1.733-2.608,3.937-22.564,2.533-35.222a62.678,62.678,0,0,0-3.064-13.456,18.248,18.248,0,0,0-6.231-5.011,105.814,105.814,0,0,1,3.5,20.743c.787,11.6-.657,18.357-2.482,26.895-1.561,7.3-3.181,10.456-6.827,11.016-2.98.458-6.3.389-7.862-2.948-2.674-5.719-1.107-11.032-.207-16.343.2-1.207,3.149-19.658-3.1-34.964a44.686,44.686,0,0,0-2.014-4.254,15.507,15.507,0,0,0-7.219-5.179c.387.819.779,1.686,1.165,2.606,4.051,9.669,4.509,17.827,4.965,27.516.568,12.052.848,20.336-4.138,28.136-1.175,1.838-4.285,6.7-8.068,6.413-2.935-.227-4.928-3.454-6.206-5.585a27.789,27.789,0,0,1-3.725-13.862,231.648,231.648,0,0,0-2.044-28.745c-.057,2.741-1.507,18.533-5.4,38.675-1.555,8.035-6.107,10.167-8.9,10.344a7.127,7.127,0,0,1-5.586-2.689c-5.43-9.982-5.873-31.039-5.9-30.774-.982,11.636.93,28.4-1.552,34.291-.189.45-4.2,2.448-7.447,1.4-3.112-1.007-4.019-4.294-4.551-6.361-1-3.89-2.106-8.176-3.181-12.232l5.085,36.752,25.079-2.053-.112-4.333,21.8-1.785-.047-2.482h7.665l-.047,2.482,21.8,1.785-.112,4.333,22.233,1.821q1.708-1.477,3.3-3.045l6.924-50.055a19.063,19.063,0,0,0,.285-2.06C594.679,3456.131,589.882,3448.719,582.879,3446.527Z" transform="translate(-480.144 -3434.002)" fill="#f16449"/>
      </g>
      <path id="Trazado_100841" data-name="Trazado 100841" d="M485.051,3563.313h-.491a2.555,2.555,0,0,1-2.544-2.322l-2.637-28.819a2.555,2.555,0,0,1,2.545-2.788h5.762a2.555,2.555,0,0,1,2.545,2.788l-2.637,28.819A2.554,2.554,0,0,1,485.051,3563.313Z" transform="translate(-446.022 -3415.393)" fill="#964f44"/>
      <path id="Trazado_100842" data-name="Trazado 100842" d="M579.445,3494.364H496.405a11.136,11.136,0,0,0-6.313,1.877l-12.209,8.493c-6.531,4.544-2.375,12.98,6.373,12.938l106.414-.529c8.631-.042,12.712-8.329,6.341-12.875l-11.166-7.964A11.1,11.1,0,0,0,579.445,3494.364Z" transform="translate(-446.9 -3421.967)" fill="#f4846d"/>
      <path id="Trazado_100843" data-name="Trazado 100843" d="M573.885,3563.313h-.491a2.555,2.555,0,0,1-2.544-2.322l-2.637-28.819a2.556,2.556,0,0,1,2.545-2.788h5.762a2.555,2.555,0,0,1,2.545,2.788l-2.637,28.819A2.555,2.555,0,0,1,573.885,3563.313Z" transform="translate(-429.346 -3415.393)" fill="#964f44"/>
      <path id="Trazado_100844" data-name="Trazado 100844" d="M607.4,3543.126a46.786,46.786,0,0,0,18.912-14.474c11.21-14.33,15.246-37.086,7.034-44.065-2.065-1.756-5.492-3.01-7.862-1.862-3.25,1.575-2.449,6.672-4.343,15.1-1.215,5.4-1.807,11.7-7.293,16.284-5.654,4.717-10.242,5.991-21.464,5.438-1.568-.077-80.632.746-107.749.1-2.577-.061-8.394-3.326-11.83-7.339-3.728-4.356-3.87-10.706-3.93-13.448-.157-7.08,2.251-9.4.207-13.447-.257-.51-2.3-4.412-6.206-4.966-3.5-.5-6.27,2-7.035,2.69-4.417,3.977-4.532,10.322-4.551,15.309-.019,5.07-.057,14.845,6.827,24.619,7.683,10.908,18.125,16.287,20.963,17.378,12.655,4.861,22.689,2.9,61.583,3.309S604.03,3544.657,607.4,3543.126Z" transform="translate(-451.292 -3424.591)" fill="#f16449"/>
      <rect id="Rectángulo_5323" data-name="Rectángulo 5323" width="127.749" height="12.413" rx="5.203" transform="translate(26.628 83.292)" fill="#f4846d"/>
    </g>
    <g id="Grupo_53975" data-name="Grupo 53975" transform="translate(455.93 3417.732)">
      <path id="Trazado_100845" data-name="Trazado 100845" d="M473.6,3422.1a5.579,5.579,0,0,0-2.478-2.557c-2.9-1.349-6.851.7-9.029,2.876a11.882,11.882,0,0,0-3.276,7.112c-.413,5.21,3.225,6.593,2.478,10.946-.513,2.982-2.288,2.726-4.315,7.591-.944,2.266-2.128,5.991-1.7,9.189.538,3.978,3.446,7.189,6.17,7.19,1.721,0,2.5-1.723,4.395-1.357,1.277.246,1.544,1.151,2.956,2a8.342,8.342,0,0,0,5.594.879c4.839-1.079,6.521-14.271,6.072-23.252C480.475,3442.718,480.045,3434.119,473.6,3422.1Z" transform="translate(-455.197 -3417.473)" fill="#a65b4b"/>
      <path id="Trazado_100846" data-name="Trazado 100846" d="M473.915,3446.855c4.979-.737,10.818-.837,11.92-1.119a5.366,5.366,0,0,1,4.53.4c1.632,1.1,5.142,13.6,5.142,20.266s-16.85,9.13-19.235,3.584S473.915,3446.855,473.915,3446.855Z" transform="translate(-451.683 -3412.535)" fill="#f3e3d8"/>
      <path id="Trazado_100847" data-name="Trazado 100847" d="M476.431,3439.951c.479,3.942,1,5.94-1.388,7.472s3.4,5.739,7,5.152,4.858-1.469,5.189-2.678a2.132,2.132,0,0,0-1.026-2.581c-.576-.3-1.318-.492-1.318-1.025a6.56,6.56,0,0,1,.067-3.251C485.486,3441.389,476.431,3439.951,476.431,3439.951Z" transform="translate(-451.577 -3413.562)" fill="#f7a997"/>
      <path id="Trazado_100848" data-name="Trazado 100848" d="M483.386,3421.16c1.481-.879,4.8-.39,6.154,1.239.78.942,2.809,4.195,2.77,6.991-.058,4.017-.734,8.8-1.918,11.293-.576,1.215-.95,2.511-2.21,2.531C484.528,3443.27,479.146,3423.677,483.386,3421.16Z" transform="translate(-450.197 -3417.17)" fill="#a65b4b"/>
      <path id="Trazado_100849" data-name="Trazado 100849" d="M517.629,3470.85c7.67-4.325,15.11-7.752,21.244-7.163s9.242,10.584,4.789,18.65-6.049,9.213-10.755,15.7-11.4,15.557-12.377,18.077-4.677,7.561-5.181,11.257.083,6.721-.588,7.478-4.068,1.091-5.244-1.848-.42-8.906-.722-11.595-2.152-3.024-1.033-6.889,6.915-4.231,8.259-4.51,2.436-9.1,2.94-13.553,3.361-11.51,1.344-12.77-8.318.588-8.654-1.765S515.694,3471.94,517.629,3470.85Z" transform="translate(-445.396 -3409.119)" fill="#f49a86"/>
      <path id="Trazado_100850" data-name="Trazado 100850" d="M499.045,3472.289c.672,5.713,10.11,1.877,13.694-.027s9.283-3.7,9.606-3.221c.259.382-3.809-.117-1.792,6.495s4.316,9.229,4.316,9.229-24.256,8.361-32.433,6.9S499.045,3472.289,499.045,3472.289Z" transform="translate(-448.669 -3408.116)" fill="#7293b9"/>
      <path id="Trazado_100851" data-name="Trazado 100851" d="M526.8,3489.556a67,67,0,0,0,12.585-4.9c.708-1.156,1.481-2.486,2.37-4.094a16.881,16.881,0,0,0,2.086-7.51,74.775,74.775,0,0,0-25.086,9.223c.988,1.5-.346,5.775-1.185,9.543C521.745,3490.984,525.9,3489.809,526.8,3489.556Z" transform="translate(-443.489 -3407.347)" fill="#dd7b6b" opacity="0.44"/>
      <path id="Trazado_100852" data-name="Trazado 100852" d="M483.686,3447.3a4.386,4.386,0,0,0,1.242-.473.66.66,0,0,1-.35-.538,6.56,6.56,0,0,1,.067-3.251c.533-1.651-8.523-3.089-8.523-3.089a33.91,33.91,0,0,1,.407,4.194c.639.558,1.22.978,1.511,1.187C479.468,3446.356,481.442,3447.775,483.686,3447.3Z" transform="translate(-451.269 -3413.562)" fill="#dd7b6b" opacity="0.34"/>
      <path id="Trazado_100853" data-name="Trazado 100853" d="M510.635,3464.712c2.113-.428,9.276-2.7,18.518-4.84s14.979-8.938,16.059-7.22.323,6.927-1.021,8.02-4.62.587-6.049.672a13.549,13.549,0,0,0-7.876,2.323,100.086,100.086,0,0,1-16.607,8.409c-5.679,2.037-11.827,2.593-12.2,1.853S508.982,3465.047,510.635,3464.712Z" transform="translate(-446.514 -3411.229)" fill="#f49a86"/>
      <path id="Trazado_100854" data-name="Trazado 100854" d="M487.708,3445.426c6.5,1.652,10.306,9.661,14.731,13.358s8.965,5.078,10.775,6.1-1.2,6.833-4.222,9.3-7.272,2.409-8.257,1.4-2.833-4.873-5.13-10.362S487.708,3445.426,487.708,3445.426Z" transform="translate(-449.094 -3412.534)" fill="#f3e3d8"/>
      <path id="Trazado_100855" data-name="Trazado 100855" d="M512.121,3473.474c6.583-1.238,12.633,17.918,9.048,21.838s-17.924-6.193-17.139-11.385S512.121,3473.474,512.121,3473.474Z" transform="translate(-446.036 -3407.28)" fill="#426683"/>
      <path id="Trazado_100856" data-name="Trazado 100856" d="M509.816,3478.648c14.531-6.982,21.75-10.554,26.538-12.486s9.157-.588,10.081.924,2.184,1.681,5.629,6.133,10.417,10.585,14.367,15.458a118.691,118.691,0,0,0,9.073,10.417c1.849,1.681,6.3,3.361,9.159,4.117s3.824,1.7,9.115,2.184c4.579.42,5.545.21,6.049.63s-.126,1.807-1.722,3.991-5.377,2.184-9.325,2.1-4.621,1.513-7.645,2.269-4.537-.84-5.8-4.453-1.932-5.629-2.689-5.8-3.108-1.26-9.661-4.2-19.576-14.787-21.508-17.308-2.52-.9-9.577,2.83-12.351,6.916-14.871,7.588S506.968,3480.016,509.816,3478.648Z" transform="translate(-445.063 -3408.821)" fill="#f7a997"/>
      <path id="Trazado_100857" data-name="Trazado 100857" d="M513.172,3464.78c-.113-.064-.236-.129-.371-.2a2.742,2.742,0,0,1-.156,1.542,4.316,4.316,0,0,1-4.368,2.24c-1.5-.27-2.132-1.567-2.968-1.232-.854.341-.588,1.846-1.569,2.24-.784.315-1.415-.463-2.016-.112-.81.472-.325,2.269-.616,2.352-.728.209-4.2-9.8-4.2-9.8-2.1-6.061-2.422-7.43-3.809-9.8-.616-1.055-3.541-6.048-5.162-6,1.143,2.914,5.631,14.339,7.626,19.109,2.3,5.489,4.145,9.354,5.13,10.362s5.233,1.064,8.257-1.4S514.982,3465.808,513.172,3464.78Z" transform="translate(-449.051 -3412.425)" fill="#f0e7e0"/>
      <path id="Trazado_100858" data-name="Trazado 100858" d="M571.414,3501.006c-1.21-.382-4.677-1.34-10.166-5.461-9.914-7.444-18.136-17.073-18.988-18.986-.359-.809-.666-1.6-1.372-1.821-1.322-.417-10.56,6.371-19.043,9.073-6.823,2.173-8.783,1.587-10.117,2.443,1.717,2.914,3.737,5.3,4.823,5.006,2.52-.672,7.814-3.865,14.871-7.588s7.644-5.35,9.577-2.83,14.955,14.367,21.508,17.308,8.906,4.032,9.661,4.2c.74.165,1.4,2.1,2.611,5.573.184-2.111-.037-4.594-1.6-5.992A4.437,4.437,0,0,0,571.414,3501.006Z" transform="translate(-444.585 -3407.035)" fill="#dd7b6b" opacity="0.31"/>
      <path id="Trazado_100859" data-name="Trazado 100859" d="M517.03,3491.089a35.179,35.179,0,0,0,6.069-2.83,9.634,9.634,0,0,1-3.339-.951,12.212,12.212,0,0,1-3.738-3.023,15.434,15.434,0,0,1-3.613-6.511,16.159,16.159,0,0,1-.379-2.147l-2.215,1.065C506.968,3478.06,514.51,3491.761,517.03,3491.089Z" transform="translate(-445.063 -3406.865)" fill="#dd7b6b" opacity="0.28"/>
      <path id="Trazado_100860" data-name="Trazado 100860" d="M471.954,3438.759c.969,4.407,2.656,3.1,3.136,2.578s.606,1.2,1.405,2.375,6.112,4.528,8.35,4.635,3.462-.48,4.741-3.089a23.451,23.451,0,0,0,2.609-8.63c.319-3.462.587-5.083-.266-7.736s-1.918-2.811-4.421-3.557S471.367,3436.1,471.954,3438.759Z" transform="translate(-452.055 -3416.312)" fill="#f7a997"/>
      <path id="Trazado_100861" data-name="Trazado 100861" d="M503.478,3477.5c-2.017-5.874-4.509-16.053-5.769-19.918s-4.817-11.427-6.5-12.1a4.524,4.524,0,0,0-2.6-.3c-1.068.293-2.364.568-2.135.917.052.081,2.021-.355,2.626.6,1.438,2.283,5.581,10.79,3.875,12.729-1.848,2.1-10.166,2.521-9.9,1.6s-1.187-6.721-3.265-9.829-2.543-4.453-4.979-4.286-4.7,2.269-5.782,10.224c0,0,6.2,26.575,6.873,34.052s3.193,14.142,8.01,18.847,16.578,6.946,23.3,2.689,18.259-10.082,20.5-12.1c0,0-.784,1.568-3.248-3.137s-1.352-4.269-3.025-7.617c-1.778-3.558-3.967-3.808-4.045-7.394-.071-3.293,1.271-3.691,1.271-3.691s-12.18,4.419-14.364,5.6S503.478,3477.5,503.478,3477.5Z" transform="translate(-452.597 -3412.594)" fill="#7293b9"/>
      <path id="Trazado_100862" data-name="Trazado 100862" d="M503.19,3478.984c.04-.418.085-.807.128-1.14-2.031.457-8.626,4.1-14.123,1.407-3.247-1.589-5.227-4.958-5.77-5.88a20.1,20.1,0,0,1-2.3-6.833c-.834-4.1-.608-6.561-1.736-12.826-.3-1.673-.618-3.166-1.848-3.978-1.677-1.105-4.02-.265-4.762,0a7.228,7.228,0,0,0-2.866,2.229,33.3,33.3,0,0,0-.871,4.41s6.2,26.575,6.873,34.052c.1,1.124.249,2.225.435,3.308,3.434-.73,7.3-2.475,15.192-7.144C494,3485.138,500.9,3481.054,503.19,3478.984Z" transform="translate(-452.597 -3411.83)" fill="#426683" opacity="0.42"/>
      <path id="Trazado_100863" data-name="Trazado 100863" d="M491.112,3424.99a9.875,9.875,0,0,1,.24,2.876,11.382,11.382,0,0,1-1.438,5.273c-.846,1.613-1.716,3.016-2.718,3.516-.4.2.36-3.955.321-4.674s-.36,2.356-2.677,4.114a6.21,6.21,0,0,1-4.914,1.279c-.64-.041-2.1,1.917-2.258,2.716s-1.058-1.687-2.3-1.847-1.837.181-2.157,1.008.663,3.251.823,3.57c.235.47-2.909-.836-4.846-3.079a13.429,13.429,0,0,1-1.438-14.648,13.9,13.9,0,0,1,7.671-6.179c1.568-.582,5.859-2.176,10.174-.106C486.13,3419.066,490.108,3421.044,491.112,3424.99Z" transform="translate(-453.128 -3417.724)" fill="#a87265"/>
      <path id="Trazado_100864" data-name="Trazado 100864" d="M481.782,3475.069a108.823,108.823,0,0,1,13.049-1.9c3.361-.28,7.42-1.116,8.246-1.13.991-.017,2.451-2.454,3.292-4.021a3.841,3.841,0,0,1,3.416-1.905c.784.057,1.359.309,1.652.266s2.353-1.763,4.075-2.9,2.017-1.008,2.479-.924.5.714,0,1.428-4.033,3.066-4.159,3.235.757.545.8,1.3.462,1.345.21,2.143.252,1.68-.126,2.31.21,1.4-3.444,2.068-5.167.327-5.5.578-3.992,2.226-12.448,6.063c-8.033,3.645-11.762,4.537-14.451,4.257S481.45,3475.15,481.782,3475.069Z" transform="translate(-450.896 -3409.329)" fill="#f7a997"/>
      <path id="Trazado_100865" data-name="Trazado 100865" d="M478.868,3484.053a11.51,11.51,0,0,0,4-.43,14.9,14.9,0,0,0,2.387-8.7c-.039-.808-.081-1.631-.189-2.389-1.217.208-2.349.428-3.283.652C481.45,3473.266,476.18,3483.772,478.868,3484.053Z" transform="translate(-450.896 -3407.446)" fill="#dd7b6b" opacity="0.47"/>
      <path id="Trazado_100866" data-name="Trazado 100866" d="M482.091,3437.009c-3-.462-8.777-2.1-8.835-2.115l.148-.522c.057.016,5.8,1.644,8.77,2.1Z" transform="translate(-451.807 -3414.609)" fill="#f16449"/>
      <path id="Trazado_100867" data-name="Trazado 100867" d="M472.383,3449.567c-3.693,2.229-3.986,12.35-3.986,19.239s.709,13.946,1.993,17.307,3.385,4.789,5.652,4.369,4.37-.477,5.545-1.959,5.557-9.37,4.453-11.733a5.178,5.178,0,0,0-2.846-2.774c-.767-.42-2.048-1.521-2.615-5.747-.65-4.839-.65-9.123-1.766-13.743C477.639,3449.664,475.444,3447.719,472.383,3449.567Z" transform="translate(-452.719 -3411.886)" fill="#f3e3d8"/>
      <path id="Trazado_100868" data-name="Trazado 100868" d="M501.085,3478.4a.583.583,0,0,1-.846-.142c-1.43.635-2.951,1.257-4.531,1.822a21.04,21.04,0,0,0-6.61,3.809c-1.383,1.184-3.086,2.97-2.8,3.36.385.526,4.24-1.7,4.592-1.9,3.757-2.183,6.088-4.561,6.273-4.369.107.11-.682.892-1.568,2.24-1.33,2.021-2.339,4.5-2.017,4.7.461.3,3.049-4.462,8.4-9.073.8-.69,1.581-1.3,2.33-1.856C502.821,3477.6,501.627,3478.108,501.085,3478.4Z" transform="translate(-449.364 -3406.609)" fill="#426683" opacity="0.42"/>
      <path id="Trazado_100869" data-name="Trazado 100869" d="M515.094,3504.158c-4.367-.229-6.594,2.006-7.333,4.561-1.119,3.865.732,4.2,1.033,6.889s-.454,8.654.722,11.595,4.571,2.6,5.244,1.848.083-3.781.588-7.478,4.439-8.57,5.418-11.09c.347-.892.975-2.944,2.479-3.7a5.012,5.012,0,0,0,1.344-.8c.72-.651.129-1.392.588-2.184.688-1.19,1.267-.9,2.731-2.437.748-.789,1.768-1.864,1.47-2.687a15.6,15.6,0,0,0-2.1-.714,24.608,24.608,0,0,0-3.845-1.008c-1.456-.271-1.706-.937-5.271-2.353a.865.865,0,0,0-.714-.042c-.435.238-.412,1.1-.378,2.016.05,1.337.3,1.7,0,2.185-.318.507-.76.355-.967.84-.258.6.365,1,.169,1.806-.152.626-.6.694-.546,1.135A2.4,2.4,0,0,1,515.094,3504.158Z" transform="translate(-445.396 -3403.323)" fill="#f3e3d8"/>
      <path id="Trazado_100870" data-name="Trazado 100870" d="M563.82,3500.846c1.519,1.234,2.228,1.624,3.361,4.872,1.26,3.613,2.772,5.209,5.8,4.453s3.7-2.352,7.645-2.269,7.729.084,9.325-2.1,2.227-3.571,1.722-3.991-1.47-.21-6.049-.63c-5.29-.485-6.258-1.428-9.115-2.184a18.023,18.023,0,0,1-5.378-2.185c-.913-.539-1.874-.748-2.267-1.26s-.559-.994-1.177-1.344c-.443-.251-.57-.121-.924-.336-.682-.413-.518-1.088-1.05-2.016-.691-1.207-1.4-.817-2.017-2.017-.394-.765-.293-1.281-.881-1.764a1.771,1.771,0,0,0-1.051-.42,2.439,2.439,0,0,0-1.722,1.05c-2.227,2.545-1.9,3.375-3.276,4.327a7.981,7.981,0,0,1-3.067,1.429c-.4.055-.935.078-1.05.377-.131.336.324.873.755,1.176.829.582,1.368.154,2.184.672.738.468.481.935,1.177,1.345.9.527,1.507-.137,2.394.377.776.45.673,1.171,1.3,1.3A15.616,15.616,0,0,1,563.82,3500.846Z" transform="translate(-436.908 -3404.607)" fill="#f3e3d8"/>
      <path id="Trazado_100871" data-name="Trazado 100871" d="M482.21,3474.606c.019-.305.014-.709,0-1.179-.081-.041-.162-.082-.236-.123-.767-.42-2.048-1.521-2.615-5.747-.65-4.839-.65-9.123-1.766-13.743-.1-.409-.207-.789-.321-1.155a44.712,44.712,0,0,0,.742,10.059c.735,3.908,1.967,7.147.253,9.41a16.663,16.663,0,0,0-2.185,2.94c-.76,1.387-1.343,3.051-1.091,3.192.189.107.82-.664,1.134-1.05.986-1.207,1.084-1.911,2.058-2.856.268-.261.83-.807,1.05-.672.252.153-.062,1.12-.378,1.974-1.449,3.923-3.241,6.3-2.941,6.554.191.164,1.211-.554,1.974-1.429a11.406,11.406,0,0,0,2.227-5.334c.2-.958.28-1.684.419-1.681.177,0,.325,1.183.336,2.185.027,2.507-.8,4.172-.629,4.243a6.012,6.012,0,0,0,1.386-2.6A13.217,13.217,0,0,0,482.21,3474.606Z" transform="translate(-451.493 -3411.176)" fill="#f0e7e0"/>
      <path id="Trazado_100872" data-name="Trazado 100872" d="M480.5,3483c-.2.174-2.061,1.8-2.856,1.3-.331-.209-.274-.659-.672-.841-.7-.319-1.732.684-1.848.546s1.065-1.131.881-1.47c-.219-.4-2.025.74-3.486.168-1.251-.489-1.736-2.036-2.017-2.982a79.556,79.556,0,0,1-1.916-8.418,41.764,41.764,0,0,0,1.766,10.6c1.284,3.36,3.385,4.789,5.652,4.369s4.37-.477,5.545-1.959a33.943,33.943,0,0,0,4.358-9A22.793,22.793,0,0,1,480.5,3483Z" transform="translate(-452.683 -3407.677)" fill="#f0e7e0"/>
      <g id="Grupo_53972" data-name="Grupo 53972" transform="translate(30.447 44.991)" opacity="0.51">
        <path id="Trazado_100873" data-name="Trazado 100873" d="M491.1,3455.613a2.48,2.48,0,0,1-.348,1.847c-1.716,1.95-9,2.45-9.828,1.773.154,1.9.141,2.558.178,2.651.044.113,2.117.5,6.654-.364s4.564-1.792,4.564-2.268a19.836,19.836,0,0,0-1.219-3.637Z" transform="translate(-480.816 -3455.613)" fill="#f0e7e0"/>
        <path id="Trazado_100874" data-name="Trazado 100874" d="M480.885,3458.254a5.678,5.678,0,0,0-.053-.586C480.852,3457.874,480.869,3458.067,480.885,3458.254Z" transform="translate(-480.832 -3455.228)" fill="#f0e7e0"/>
      </g>
      <path id="Trazado_100875" data-name="Trazado 100875" d="M506.936,3465.762a9.116,9.116,0,0,0-3.052,1.415,8.763,8.763,0,0,1-1.792,1.093,6.019,6.019,0,0,1,2.044-2.1A14,14,0,0,1,506.936,3465.762Z" transform="translate(-446.394 -3408.716)" fill="#dd7b6b" opacity="0.49"/>
      <path id="Trazado_100876" data-name="Trazado 100876" d="M533.019,3437.592l10.59,6.99-7.4,14.52-7.011-15.266,2.8-5.966A.7.7,0,0,1,533.019,3437.592Z" transform="translate(-441.305 -3414.027)" fill="#5e83a7"/>
      <path id="Trazado_100877" data-name="Trazado 100877" d="M515.437,3463.931a1.343,1.343,0,0,0,.316-1.168,7.82,7.82,0,0,1-.758.979,11.239,11.239,0,0,1-3.738,2.941c-.287.128-.963.407-.925.588.034.159.574.047.988.44a.881.881,0,0,1,.315.609c-.008.313-.28.445-.21.652.053.155.222.119.4.315a.907.907,0,0,1,.21.692c-.051.39-.371.458-.357.8.007.172.088.166.189.462a1.712,1.712,0,0,1,.084.861,1.534,1.534,0,0,1-.42.735,3.564,3.564,0,0,1-1.217.883,21.741,21.741,0,0,1-4.81,1.071c-.816.127-1.624.313-2.436.462-3.171.583-7.888,3.646-11.352,5.945,7.774-3.55,11.176-5.388,11.5-5.631s1.848.094,5.5-.578,3.067-1.437,3.444-2.068-.126-1.512.126-2.31-.167-1.386-.21-2.143-.924-1.134-.8-1.3S514.933,3464.646,515.437,3463.931Z" transform="translate(-448.342 -3409.279)" fill="#dd7b6b" opacity="0.37"/>
      <path id="Trazado_100878" data-name="Trazado 100878" d="M531.567,3437.327l11.228,7.107-7.154,14.695-7.225-15.346Z" transform="translate(-441.452 -3414.054)" fill="#f9f1ed"/>
      <path id="Trazado_100879" data-name="Trazado 100879" d="M544.736,3443.874l-17.529-3.564-9.129,21.829,18.539,2.927Z" transform="translate(-443.393 -3413.495)" fill="#f3e3d8"/>
      <path id="Trazado_100880" data-name="Trazado 100880" d="M518.993,3463.483l9.283-20.124a1.028,1.028,0,0,1,.977-.6l15.862.674a.763.763,0,0,1,.673,1.056l-8.706,21.025a1.027,1.027,0,0,1-1.027.632l-16.205-1.21A1.028,1.028,0,0,1,518.993,3463.483Z" transform="translate(-443.239 -3413.034)" fill="#4fa3b1"/>
      <g id="Grupo_53974" data-name="Grupo 53974" transform="translate(16.821)">
        <path id="Trazado_100881" data-name="Trazado 100881" d="M473.483,3442.928c-.7.153-2.738-2.225-3.5-5.945a22.424,22.424,0,0,1,.422-12.065c.577-2.038,3.569-6.009,7.3-6.849a17.211,17.211,0,0,1,6.465-.062c1.755.679,5.374,3.568,4.431,3.284a7.592,7.592,0,0,0-4.954.671,18.362,18.362,0,0,0-7.75,8.39c-1.5,3.032-1.063,7.78-1.839,7.9-1.643.251-1.6,1.969-1.158,3.088C473.265,3442.262,473.777,3442.863,473.483,3442.928Z" transform="translate(-469.359 -3417.733)" fill="#f4846d"/>
        <g id="Grupo_53973" data-name="Grupo 53973" clip-path="url(#clip-path)">
          <path id="Trazado_100882" data-name="Trazado 100882" d="M473.793,3437.955h-.133a7.7,7.7,0,0,1-4.962-2.041l.429-.474a7.064,7.064,0,0,0,4.545,1.875,7.425,7.425,0,0,0,6.544-4.106l.563.3A8.053,8.053,0,0,1,473.793,3437.955Z" transform="translate(-469.483 -3414.827)" fill="#f6cead"/>
          <path id="Trazado_100883" data-name="Trazado 100883" d="M473.548,3435.85a6.5,6.5,0,0,1-2.14-.36,6.737,6.737,0,0,1-2.727-1.8l.469-.432a6.118,6.118,0,0,0,2.467,1.632,6.487,6.487,0,0,0,4.982-.422l.292.568A7.535,7.535,0,0,1,473.548,3435.85Z" transform="translate(-469.486 -3414.819)" fill="#f6cead"/>
          <path id="Trazado_100884" data-name="Trazado 100884" d="M474.624,3433.595a8.768,8.768,0,0,1-6.341-2.657l.456-.448a8.192,8.192,0,0,0,2.538,1.77,8.785,8.785,0,0,0,6.011.305l.183.613A10.091,10.091,0,0,1,474.624,3433.595Z" transform="translate(-469.561 -3415.338)" fill="#f6cead"/>
          <path id="Trazado_100885" data-name="Trazado 100885" d="M475.3,3431.406a10.712,10.712,0,0,1-6.9-2.5l.41-.491a10.125,10.125,0,0,0,3.137,1.781,10.437,10.437,0,0,0,6.009.232l.157.62A11.521,11.521,0,0,1,475.3,3431.406Z" transform="translate(-469.538 -3415.726)" fill="#f6cead"/>
          <path id="Trazado_100886" data-name="Trazado 100886" d="M476.589,3429.727a11.272,11.272,0,0,1-5.585-1.448,10.99,10.99,0,0,1-2.593-2.057l.468-.436a10.344,10.344,0,0,0,2.441,1.937,10.665,10.665,0,0,0,5.664,1.358l.023.639C476.875,3429.725,476.734,3429.727,476.589,3429.727Z" transform="translate(-469.537 -3416.221)" fill="#f6cead"/>
          <path id="Trazado_100887" data-name="Trazado 100887" d="M476.832,3427.442a10.576,10.576,0,0,1-4.777-1.108,10.42,10.42,0,0,1-2.556-1.812l.443-.461a9.8,9.8,0,0,0,2.4,1.7,10.386,10.386,0,0,0,6.55.849l.116.63A12.139,12.139,0,0,1,476.832,3427.442Z" transform="translate(-469.333 -3416.545)" fill="#f6cead"/>
          <path id="Trazado_100888" data-name="Trazado 100888" d="M478.658,3425.414a11.97,11.97,0,0,1-5.958-1.532,11.551,11.551,0,0,1-2.466-1.89l.454-.45a10.89,10.89,0,0,0,2.328,1.784,11.586,11.586,0,0,0,6.765,1.4l.057.637C479.479,3425.394,479.082,3425.414,478.658,3425.414Z" transform="translate(-469.194 -3417.018)" fill="#f6cead"/>
          <path id="Trazado_100889" data-name="Trazado 100889" d="M481.529,3424.719a13.833,13.833,0,0,1-5.6-1.17,13.685,13.685,0,0,1-4.213-2.9l.454-.45a13.113,13.113,0,0,0,4.017,2.77,13.339,13.339,0,0,0,6.632,1.052l.061.636C482.477,3424.693,482.023,3424.719,481.529,3424.719Z" transform="translate(-468.917 -3417.27)" fill="#f6cead"/>
          <path id="Trazado_100890" data-name="Trazado 100890" d="M482.034,3424.634c-1.7-1.268-3.465-2.487-5.253-3.621-1.193-.754-2.424-1.491-3.662-2.189l.314-.557c1.248.7,2.489,1.445,3.69,2.207,1.8,1.141,3.585,2.37,5.294,3.649Z" transform="translate(-468.653 -3417.632)" fill="#f6cead"/>
          <path id="Trazado_100891" data-name="Trazado 100891" d="M481.708,3423.322a21.164,21.164,0,0,0-7.124-5.392l.27-.58a21.816,21.816,0,0,1,7.339,5.554Z" transform="translate(-468.378 -3417.804)" fill="#f6cead"/>
          <path id="Trazado_100892" data-name="Trazado 100892" d="M483.065,3423.539a15.28,15.28,0,0,0-5.714-6.065l.329-.549a15.892,15.892,0,0,1,5.952,6.32Z" transform="translate(-467.859 -3417.884)" fill="#f6cead"/>
          <path id="Trazado_100893" data-name="Trazado 100893" d="M485.78,3423.166a21.918,21.918,0,0,0-5.947-5.631l.346-.538a22.587,22.587,0,0,1,6.119,5.795Z" transform="translate(-467.393 -3417.87)" fill="#f6cead"/>
        </g>
      </g>
      <path id="Trazado_100895" data-name="Trazado 100895" d="M483.358,3441.156c-.063,0-.125,0-.188-.007a2.713,2.713,0,0,1-2.071-1.373,4.936,4.936,0,0,1,.447-5.544,2.569,2.569,0,0,1,4.335.348,4.692,4.692,0,0,1,.632,2.841C486.342,3439.528,484.947,3441.156,483.358,3441.156Zm.262-7.322a2.146,2.146,0,0,0-1.6.814,4.309,4.309,0,0,0-.386,4.793,2.1,2.1,0,0,0,1.584,1.076c1.316.094,2.511-1.307,2.659-3.147a4.064,4.064,0,0,0-.538-2.455,2.1,2.1,0,0,0-1.584-1.076C483.712,3433.835,483.665,3433.834,483.62,3433.834Z" transform="translate(-450.456 -3414.829)" fill="#f16449"/>
      <path id="Trazado_100896" data-name="Trazado 100896" d="M488.476,3439.933c-.044,0-.088,0-.132,0-1.343-.108-2.265-1.816-2.1-3.889s1.348-3.606,2.693-3.5,2.265,1.816,2.1,3.889a4.932,4.932,0,0,1-.869,2.511A2.147,2.147,0,0,1,488.476,3439.933Zm.335-6.857c-.974,0-1.89,1.346-2.024,3.007-.138,1.709.6,3.221,1.6,3.3a1.563,1.563,0,0,0,1.342-.772,4.393,4.393,0,0,0,.765-2.232c.138-1.709-.6-3.221-1.6-3.3A.706.706,0,0,0,488.811,3433.076Z" transform="translate(-449.372 -3414.955)" fill="#f16449"/>
      <path id="Trazado_100897" data-name="Trazado 100897" d="M485.6,3436.512l-.521-.155a1.114,1.114,0,0,1,1.119-.912.871.871,0,0,1,.793.786l-.539.072a.329.329,0,0,0-.3-.316C485.977,3435.976,485.723,3436.1,485.6,3436.512Z" transform="translate(-449.587 -3414.408)" fill="#f16449"/>
      <path id="Trazado_100898" data-name="Trazado 100898" d="M484.128,3436.517c0-.834-.4-1.509-.9-1.509s-.9.675-.9,1.509.4,1.507.9,1.507S484.128,3437.349,484.128,3436.517Z" transform="translate(-450.104 -3414.49)" fill="#a65b4b"/>
      <path id="Trazado_100899" data-name="Trazado 100899" d="M488.914,3436.349c0-.834-.4-1.509-.9-1.509s-.9.675-.9,1.509.4,1.507.9,1.507S488.914,3437.181,488.914,3436.349Z" transform="translate(-449.206 -3414.521)" fill="#a65b4b"/>
    </g>
  </g>
</svg>
