<svg xmlns="http://www.w3.org/2000/svg" width="295" height="293.289" viewBox="0 0 295 293.289">
  <g id="Grupo_53830" data-name="Grupo 53830" transform="translate(-1183.501 -963.697)">
    <g id="Grupo_53825" data-name="Grupo 53825" transform="translate(1183.501 963.697)">
      <g id="Grupo_53819" data-name="Grupo 53819" transform="translate(105.778 118.367)">
        <g id="Grupo_53818" data-name="Grupo 53818">
          <path id="Trazado_100566" data-name="Trazado 100566" d="M1302.667,1220.235s1.633,1.449-9.964,2.306c-13.274,4.676-12.33-1.869-12.33-1.869l16.937-8.478,2.655-2.334a10.563,10.563,0,0,1,2.367,4.785S1302.448,1218.049,1302.667,1220.235Z" transform="translate(-1276.389 -1049.303)" fill="#030202"/>
          <path id="Trazado_100567" data-name="Trazado 100567" d="M1302.387,1220.355s-1.566,1.523,10.058,1.85c13.472,4.07,12.233-2.425,12.233-2.425l-17.306-7.7-2.758-2.211a10.571,10.571,0,0,0-2.147,4.887S1302.507,1218.161,1302.387,1220.355Z" transform="translate(-1273.466 -1049.302)" fill="#030202"/>
          <path id="Trazado_100568" data-name="Trazado 100568" d="M1281.5,1095.5l-.418,9.934,12.461,124.641,9.1.521,4.247-108.875-1.469,78.023-.785,30.625,10.355-.054s8.309-141.435,8.4-141.937C1317.725,1092.66,1290.01,1076.881,1281.5,1095.5Z" transform="translate(-1276.292 -1065.763)" fill="#001a45"/>
          <path id="Trazado_100569" data-name="Trazado 100569" d="M1320.709,1068.161c-5.238,4.8-37.153,8.987-43.854,28.326,0,0,6.646,16.456,10.158,18.3,5.242,3.18,9.765,2.65,16.132-.422,6.975-3.2,20.815-14.873,20.986-19.448-.188-2.246-18.882-7.062-17.683-8.306,5.247-5.665,10.5-11.692,14.3-18.435C1320.721,1068.173,1320.708,1068.169,1320.709,1068.161Z" transform="translate(-1276.855 -1068.161)" fill="#00102e"/>
          <path id="Trazado_100570" data-name="Trazado 100570" d="M1304.3,1118.187c.646-.187,7.322-10.233,7.322-10.233l-5.139,18.359-3.262,48.4Z" transform="translate(-1273.347 -1062.865)" fill="#00102e"/>
        </g>
      </g>
      <g id="Grupo_53824" data-name="Grupo 53824">
        <path id="Trazado_100571" data-name="Trazado 100571" d="M1333.111,1057.619l12.909,24.156,41,17.221,1.814-11.88-27.94-17.732-4.272-24.26-9.922-25.416S1328.749,1049.452,1333.111,1057.619Z" transform="translate(-1163.681 -956.243)" fill="#001a45"/>
        <g id="Grupo_53820" data-name="Grupo 53820" transform="translate(0 117.336)">
          <path id="Trazado_100572" data-name="Trazado 100572" d="M1229.331,1106.769a3.861,3.861,0,1,1-5.251-5.663l.413-.384c-6.566-8.494-17.217-26.378-17.217-26.378l-23.619,21.907,47.27,50.964,23.619-21.91s-16.5-11.678-24.749-18.97Z" transform="translate(-1183.48 -1066.307)" fill="#522d00"/>
          <path id="Trazado_100573" data-name="Trazado 100573" d="M1242.3,1099c2.307-2.37,2.676-5.821.776-7.87l-3.443-3.713c-1.9-2.049-5.371-1.94-7.907.184l-18.873-20.349-8.713,8.08s10.772,18.02,17.4,26.58c.823,1.063,1.582,1.98,2.249,2.7.788.85,1.854,1.859,3.1,2.966,8.313,7.363,24.932,19.17,24.932,19.17l8.712-8.082Zm-9.441-10.18c2.2-1.229,4.579-1.25,5.864.134l2.839,3.064c1.285,1.386,1.086,3.755-.3,5.857Z" transform="translate(-1180.754 -1067.251)" fill="#643700"/>
          <path id="Trazado_100574" data-name="Trazado 100574" d="M1219.288,1104.12a4.43,4.43,0,0,0,6.263.236l.531-.492c-1.422-1.261-2.631-2.407-3.53-3.374-.759-.817-1.623-1.861-2.557-3.068l-.471.438A4.427,4.427,0,0,0,1219.288,1104.12Z" transform="translate(-1178.896 -1063.236)" fill="#ffd30d"/>
          <path id="Trazado_100575" data-name="Trazado 100575" d="M1207.12,1074.485l-23.619,21.907,21.818,23.523c4.4-7.992,8.841-15.8,13.012-23.754-1.865-3.977-3.626-8.026-5.353-12.164C1209.633,1078.687,1207.12,1074.485,1207.12,1074.485Z" transform="translate(-1183.501 -1066.288)" fill="#643700"/>
          <path id="Trazado_100576" data-name="Trazado 100576" d="M1209.516,1082.88c1.727,4.138,3.488,8.187,5.353,12.164.381-.725.763-1.45,1.138-2.178C1213.784,1089.579,1211.5,1086.035,1209.516,1082.88Z" transform="translate(-1180.039 -1065.171)" fill="#522d00"/>
          <path id="Trazado_100577" data-name="Trazado 100577" d="M1211.516,1071.676l-4.519,3.548s7.239,14.561,10.73,19.367a100.318,100.318,0,0,0,7.987,9.509S1208.028,1080.259,1211.516,1071.676Z" transform="translate(-1180.374 -1066.662)" fill="#804600"/>
        </g>
        <path id="Trazado_100578" data-name="Trazado 100578" d="M1338.141,1012.545l-17.415-5.763c2.494,16.146-5.2,34.8-9.858,50.628-2.733,8.93-6.006,17.308-9.393,26.011-2.571,7.018-7.149,14.472-10.669,20.792,1.6.528,9.825,16.012,26.658,6.729,0,0,14.909-26.986,29.148-44.238,1.749-2.121.681-3.551,2.312-5.8C1357.48,1023.07,1354.383,1026.625,1338.141,1012.545Z" transform="translate(-1169.22 -957.963)" fill="#e3e3e3"/>
        <path id="Trazado_100579" data-name="Trazado 100579" d="M1318.511,1008.424l13.221,23.8,3.338-5.7s-6.736,26.885-6.51,26.766,10.083-23.249,10.083-23.249l1.457-1.72,3.1,2.885,5.885-8.767-1.4-2.846-8.436,3.994s-6.414-.373-6.681-.5S1318.511,1008.424,1318.511,1008.424Z" transform="translate(-1165.533 -957.744)" fill="#c9c9c9"/>
        <path id="Trazado_100580" data-name="Trazado 100580" d="M1242.444,1080.1c-.859-1.006-2.57-1.746-3.45-2.976-1.592,1.015-4.554,4.375-7.17,6.617-2.989,2.561,1.389,7.944,4.881,9.419,3.522,1.491,1.194-2.143,4.272-.981,2.581.974,5.072-5.467,5.651-7.477A23.3,23.3,0,0,1,1242.444,1080.1Z" transform="translate(-1177.202 -948.601)" fill="#ffd59a"/>
        <path id="Trazado_100581" data-name="Trazado 100581" d="M1335.034,995.214l-.461-2.556s-13.518,12.272-15.565,13.881,21.572,19.374,21.572,19.374.784-1.41,5.722-3.04c0,0-.531-5.469.014-6C1349.617,1013.675,1335.034,995.214,1335.034,995.214Z" transform="translate(-1165.484 -959.843)" fill="#ffc16b"/>
        <path id="Trazado_100582" data-name="Trazado 100582" d="M1334.84,1020.626l5.193,4.169s-19.056,54.623-31.877,67.926c-.333,5.1,2.089,10.747,2.089,10.747l6.895-7.911s-.3-4.548,7.646-19.394c9.625-17.995,17.24-51.316,17.24-51.316l4.683-2.87-5.335-2.82Z" transform="translate(-1166.915 -956.316)" fill="#4fa3b1"/>
        <path id="Trazado_100583" data-name="Trazado 100583" d="M1330.914,1053.993c6.708-16.425,3.448-31.278-9.372-51.1l-27.312,18.594s-.233,21.534-.8,33.017c.974,6.169-2.635,15.071-7.382,23.612-7.348,13.221-10.491,15.234-10.491,15.234-3.057,11.509,4.187,26.944,11.811,29.225C1290.48,1118.355,1317.436,1087.006,1330.914,1053.993Z" transform="translate(-1171.345 -958.48)" fill="#001a45"/>
        <path id="Trazado_100584" data-name="Trazado 100584" d="M1318.874,1021.554c-2.044,2.077-3.666,4.462-6.73,5.3,3.705.921,7.7,4.686,6.791,7.844-.46,1.855-5.925,1.787-6.038,2.113.9,13.791,1.011,28.175-1.1,42.141a204.313,204.313,0,0,0,14.2-27.439,41.408,41.408,0,0,0,2.629-24.316A16.165,16.165,0,0,1,1318.874,1021.554Z" transform="translate(-1166.426 -955.997)" fill="#00102e"/>
        <path id="Trazado_100585" data-name="Trazado 100585" d="M1316.665,1002.769l-2.895,1.97c6.026,14.667-2.134,20.252-2.134,20.252l9.463,8.314-9.208,2.018s8.2,22.512,1.338,43.653c0,0,9.512-17.036,12.81-25.113C1332.745,1037.439,1329.484,1022.587,1316.665,1002.769Z" transform="translate(-1166.448 -958.497)" fill="#00245e"/>
        <path id="Trazado_100586" data-name="Trazado 100586" d="M1347.613,1018.518l-3.844,2.461c-.665,23.241-10.179,54.973-23.039,76.057,16.525-12.3,31.324-38.926,37.453-51.755Z" transform="translate(-1165.238 -956.401)" fill="#001a45"/>
        <path id="Trazado_100587" data-name="Trazado 100587" d="M1344.451,1060.275c1.747-2.144,3.9-9.84,3.9-9.84s-.419-2.16-1.543-5.976c3.672-.128,3.013-2.308,6.613-3.165-2.129-.7-3.221-6.489-4.2-8.384-3.914-.055-3.224,3.583-7.247,3.526-1.352,16.646-.811,26.5-13.844,43.3C1332.212,1076.988,1339.057,1066.391,1344.451,1060.275Z" transform="translate(-1164.253 -954.486)" fill="#00102e"/>
        <path id="Trazado_100588" data-name="Trazado 100588" d="M1331.355,1077.875c8.325-9.937,11.156-17.707,20.87-26.065-3.31-1.139-5.209-5.761-6.284-9.091,3.94.089,4.4-.917,8.241-1.8-5.877-5.212-8.786-15.155-7.493-22.4l-3.844,2.461c-.613,21.43-6.861,40.776-15.173,61.506C1328.425,1080.607,1330.278,1079.424,1331.355,1077.875Z" transform="translate(-1164.314 -956.401)" fill="#00245e"/>
        <g id="Grupo_53822" data-name="Grupo 53822" transform="translate(151.64 43.565)">
          <path id="Trazado_100589" data-name="Trazado 100589" d="M1320.266,1002.145l21.134,19.4,4.973-3.5,1.656,2.723-5.488,8.737-1.381-7.383-10.048,4.086-13.783-21.425Z" transform="translate(-1317.33 -1002.145)" fill="#e3e3e3"/>
          <g id="Grupo_53821" data-name="Grupo 53821" transform="translate(9.019 8.599)">
            <path id="Trazado_100590" data-name="Trazado 100590" d="M1340.341,1020.539l-15.017-10.805c-.186,3.809.466,4.345-.007,8.036l4.736,7.431,10.047-4.086,1.381,7.383,4.587-7.092c.2-.441-.784-3.2-.784-3.2Z" transform="translate(-1325.29 -1009.734)" fill="#fff"/>
          </g>
        </g>
        <g id="Grupo_53823" data-name="Grupo 53823" transform="translate(163.466)">
          <path id="Trazado_100591" data-name="Trazado 100591" d="M1336.08,1013.959c-7-6.572-6.956-12.278-6.086-13.792a24.364,24.364,0,0,1,2.934-4.084C1334.1,994.6,1345.486,1022.783,1336.08,1013.959Z" transform="translate(-1327.524 -962.355)" fill="#ffd59a"/>
          <path id="Trazado_100596" data-name="Trazado 100596" d="M1350.626,1004.437s-2.055-1.724-.607-3.032a8.2,8.2,0,0,1,1.763-1.2S1346.225,1001.628,1350.626,1004.437Z" transform="translate(-1324.95 -958.838)" fill="#ffc16b"/>
          <path id="Trazado_101049" data-name="Trazado 101049" d="M10.093,53.318S30.287,61,35.08,50.772s4.145-26.681,0-30.566S15,11.269,15,11.269L8.657,22.278,4.642,36.655Z" fill="#ffd59a"/>
          <path id="Trazado_100592" data-name="Trazado 100592" d="M1345.751,979.143s-1.819,12.874-5.816,14.814-10.013,4.893-10.013,4.893-2.971,1.755-1.936-11.249c1.063-13.361-.042-12.948,2.842-14.741a9.65,9.65,0,0,1,5.046-1.693s-.121-5.519,3.254-6.995,14.918.5,23.7,5.688,14.738,12.511,11.7,17.076C1372.027,990.693,1359,992.9,1345.751,979.143Z" transform="translate(-1327.767 -963.697)" fill="#382100"/>
          <path id="Trazado_100593" data-name="Trazado 100593" d="M1374.781,981.3c-2.615,4.279-11.6-8.751-22.4-12.607-4.587-1.638-9.213-1.7-12.465.462s1.57,5.729,1.57,5.729a29.8,29.8,0,0,0-5.241-2.771c-1.576-.406-4.8,5.551-5.852,8.456-.914,2.522-4.224,11.476.261,17.372,1.776-.871,6.1-2.988,9.2-4.495,4-1.94,5.816-14.814,5.816-14.814,13.25,13.756,26.275,11.55,28.775,7.792A5.5,5.5,0,0,0,1374.781,981.3Z" transform="translate(-1327.688 -963.191)" fill="#261700"/>
          <path id="Trazado_100594" data-name="Trazado 100594" d="M1341.3,990.9a6.7,6.7,0,1,1-3.471-8.816A6.7,6.7,0,0,1,1341.3,990.9Z" transform="translate(-1327.675 -961.324)" fill="#ffd59a"/>
          <path id="Trazado_100595" data-name="Trazado 100595" d="M1333.7,992.938a1.821,1.821,0,0,1,.352-3.109c1.133-.731,2.684.39,2.684.39s.081-3.338-2.025-3.439a2.819,2.819,0,0,0-2.786,1.715s.433-3.3,3.456-2.574,1.585,4.879,1.585,4.879-2.589-1.72-3.289.571A2.079,2.079,0,0,0,1333.7,992.938Z" transform="translate(-1327.214 -960.753)" fill="#ffc16b"/>
        </g>
        <path id="Trazado_100597" data-name="Trazado 100597" d="M1239.8,1081.793l9.551,9.661,23.521-24.483,27.931-15.4c.031.151,5.187-11.974,5.212-11.82.566-11.482-7.11-20.445-7.11-20.445l-37.049,31.892Z" transform="translate(-1176.008 -956.296)" fill="#001a45"/>
        <path id="Trazado_100598" data-name="Trazado 100598" d="M1245.943,1086.763l-8.827-9.119,3.181-3.039,8.828,9.119Z" transform="translate(-1176.366 -948.937)" fill="#e6e6e6"/>
        <path id="Trazado_100599" data-name="Trazado 100599" d="M1300.418,1033.5c-.5,5.835-3.877,12.7-3.877,12.7s-15.06,10.643-15.94,11.672l12.242-6.218c.237,6.137-2.582,13.1-7.448,21.857.634-.818,1.238-1.675,1.8-2.575C1293.55,1061.068,1303.742,1044.676,1300.418,1033.5Z" transform="translate(-1170.578 -954.407)" fill="#00102e"/>
      </g>
    </g>
    <g id="Grupo_53829" data-name="Grupo 53829" transform="translate(1405.351 1049.059)">
      <g id="Grupo_53826" data-name="Grupo 53826" transform="translate(0 44.139)">
        <path id="Trazado_100600" data-name="Trazado 100600" d="M1383.464,1083.134c.238-1.365,1.386-2.945,1.525-4.522a94.806,94.806,0,0,1,10.529,1.137c1.627.287,2.967,1.936,2.51,3.146-.92,2.432,2.432,2.279.885,6.853-1.022,3.021-.552,2.813-5.858,2.656-2.887-.086-7.212-.006-10.711-1.265C1383.128,1089.142,1383.248,1085.26,1383.464,1083.134Z" transform="translate(-1378.888 -1077.905)" fill="#ffd59a"/>
        <rect id="Rectángulo_5233" data-name="Rectángulo 5233" width="14.285" height="4.4" transform="translate(0 14.104) rotate(-80.872)" fill="#e6e6e6"/>
      </g>
      <g id="Grupo_53828" data-name="Grupo 53828" transform="translate(6.709)">
        <g id="Grupo_53827" data-name="Grupo 53827" transform="translate(16.82 38.197)">
          <path id="Trazado_100601" data-name="Trazado 100601" d="M1400.425,1077.539a1.8,1.8,0,0,1,.344-2.519l2.59-1.91a1.8,1.8,0,0,1,2.516.341v0a1.8,1.8,0,0,1-.344,2.519l-2.59,1.91a1.8,1.8,0,0,1-2.516-.341Z" transform="translate(-1400.059 -1072.744)" fill="#132a3f"/>
        </g>
        <path id="Trazado_100602" data-name="Trazado 100602" d="M1385.952,1089.835l0-.007a3.6,3.6,0,0,1,.689-5.039l12.38-9.4a3.6,3.6,0,0,1,5.032.684l.006.007a3.6,3.6,0,0,1-.69,5.038l-12.38,9.4a3.6,3.6,0,0,1-5.032-.684Z" transform="translate(-1385.215 -1034.291)" fill="#183351"/>
        <path id="Trazado_100603" data-name="Trazado 100603" d="M1439.835,1083.988a25.029,25.029,0,1,0-35.028-4.742h0a24.992,24.992,0,0,0,35.027,4.742Zm-17.907.365a20.505,20.505,0,1,1,15.147-4A20.322,20.322,0,0,1,1421.928,1084.353Z" transform="translate(-1383.292 -1039.033)" fill="#21496d"/>
        <path id="Trazado_100604" data-name="Trazado 100604" d="M1441.76,1050.41A21.918,21.918,0,1,0,1406.912,1077h0a21.918,21.918,0,1,0,34.848-26.594Z" transform="translate(-1382.927 -1038.669)" fill="#d7f0f9" opacity="0.28"/>
      </g>
      <path id="Trazado_100605" data-name="Trazado 100605" d="M1388.928,1078.64c.327.021,4.776,2.512,3.851,3.907a3.122,3.122,0,0,1-4.139.651,15.146,15.146,0,0,1-2.357-1.972A2.4,2.4,0,0,1,1388.928,1078.64Z" transform="translate(-1378.364 -1033.763)" fill="#ffd59a"/>
      <path id="Trazado_100606" data-name="Trazado 100606" d="M1397.073,1083.5s.132-3.645-1.66-2.776-4.818.392-5.234,1.983-1.782,7.2-.119,7.93,1.77,2.233,3.9,1.495,1.682-4.9,1.682-4.9Z" transform="translate(-1377.968 -1033.502)" fill="#ffd59a"/>
    </g>
  </g>
</svg>
