<svg xmlns="http://www.w3.org/2000/svg" width="147.444" height="153.077" viewBox="0 0 147.444 153.077">
  <g id="Grupo_54089" data-name="Grupo 54089" transform="translate(-1961.632 -2194.301)">
    <circle id="Elipse_4069" data-name="Elipse 4069" cx="73" cy="73" r="73" transform="translate(1962.354 2200.574)" fill="#ffebff"/>
    <g id="Grupo_54122" data-name="Grupo 54122">
      <path id="Trazado_101052" data-name="Trazado 101052" d="M2060.694,2323.553l37.735-11.712a73.73,73.73,0,1,0-117.341,11.712Z" fill="#4fabf7"/>
      <path id="Trazado_101053" data-name="Trazado 101053" d="M2055.364,2209.481a4.971,4.971,0,0,1,6.288-4.447,1.325,1.325,0,0,0,1.423-.46,9.006,9.006,0,0,1,15.7,2.736,1.313,1.313,0,0,0,1.417.882,5.477,5.477,0,0,1,5.278,2.588,1.323,1.323,0,0,0,1.779.454,4.188,4.188,0,1,1,2.024,7.853h-35.318a4.272,4.272,0,0,1-4.289-4.263,4.2,4.2,0,0,1,4.363-4.112,1.3,1.3,0,0,0,1.339-1.231Z" fill="#73c3f9"/>
      <path id="Trazado_101054" data-name="Trazado 101054" d="M2034.69,2228.877a7.667,7.667,0,0,1,9.7-6.859,2.046,2.046,0,0,0,2.195-.71,13.893,13.893,0,0,1,24.215,4.221,2.028,2.028,0,0,0,2.187,1.36,8.45,8.45,0,0,1,8.142,3.993,2.041,2.041,0,0,0,2.745.7A6.46,6.46,0,1,1,2087,2243.7H2032.51a6.592,6.592,0,0,1-6.617-6.576,6.472,6.472,0,0,1,6.73-6.344,2.009,2.009,0,0,0,2.067-1.9Z" fill="#9bd8f9"/>
      <path id="Trazado_101055" data-name="Trazado 101055" d="M2019.51,2266.886a6.459,6.459,0,0,0-9.541-4.916,2.042,2.042,0,0,1-2.746-.7,8.45,8.45,0,0,0-8.142-3.993,2.026,2.026,0,0,1-2.186-1.36,13.893,13.893,0,0,0-24.215-4.221,2.048,2.048,0,0,1-2.2.71,7.5,7.5,0,0,0-5.977.8,73.76,73.76,0,0,0-2.875,20.445c0,.144,0,.287.005.431h51.454a6.463,6.463,0,0,0,6.419-7.2Z" fill="#73c3f9"/>
      <path id="Trazado_101056" data-name="Trazado 101056" d="M2070.239,2305.558h-.46v33.3a74.06,74.06,0,0,0,28.867-27.386v-53.283l-46.7-22.229v62.24h18.291a3.679,3.679,0,0,1,0,7.358Z" fill="#3c58a0"/>
      <path id="Trazado_101057" data-name="Trazado 101057" d="M2051.948,2298.2h18.3v-.461c-3.669-1.092-3.453-5.127-3.453-5.127v-41.374c0-4.213,3.725-3.894,3.725-3.894l-.454-2.759-18.122-8.626v62.24Z" fill="#2a428c"/>
      <path id="Trazado_101058" data-name="Trazado 101058" d="M1980.808,2323.252a73.575,73.575,0,0,0,44.742,23.476v-41.016h17.317v-41.7h-62.059Z" fill="#dae2fe"/>
      <path id="Trazado_101059" data-name="Trazado 101059" d="M1997.066,2275.558a11.546,11.546,0,0,1,11.546-11.546h-27.8v59.24a74.079,74.079,0,0,0,16.258,13.41Z" fill="#bec8f7"/>
      <path id="Trazado_101060" data-name="Trazado 101060" d="M1987.764,2229.8h48.148v34.515h-48.148Z" fill="#dae2fe"/>
      <path id="Trazado_101061" data-name="Trazado 101061" d="M2000.711,2256.158v-18.2a8.16,8.16,0,0,1,8.16-8.16h-21.107v34.515h21.107a8.16,8.16,0,0,1-8.16-8.16Z" fill="#bec8f7"/>
      <g id="Grupo_54089-2" data-name="Grupo 54089">
        <path id="Trazado_101062" data-name="Trazado 101062" d="M2011.838,2207.407a2.224,2.224,0,0,1-2.3-2.138v-8.829a2.306,2.306,0,0,1,4.6,0v8.829A2.223,2.223,0,0,1,2011.838,2207.407Z" fill="#dae2fe"/>
      </g>
      <g id="Grupo_54090" data-name="Grupo 54090">
        <path id="Trazado_101063" data-name="Trazado 101063" d="M1990.005,2271.978a2.3,2.3,0,0,0-2.3,2.3v55.629q2.226,1.887,4.6,3.6v-59.228A2.3,2.3,0,0,0,1990.005,2271.978Z" fill="#a8b7ef"/>
        <path id="Trazado_101064" data-name="Trazado 101064" d="M1998.738,2271.978a2.3,2.3,0,0,0-2.3,2.3v62q2.246,1.4,4.6,2.639v-64.637A2.3,2.3,0,0,0,1998.738,2271.978Z" fill="#a8b7ef"/>
        <path id="Trazado_101065" data-name="Trazado 101065" d="M2007.471,2271.978a2.3,2.3,0,0,0-2.3,2.3v66.657q2.259,1.016,4.6,1.881v-68.538A2.3,2.3,0,0,0,2007.471,2271.978Z" fill="#a8b7ef"/>
        <path id="Trazado_101066" data-name="Trazado 101066" d="M2016.2,2271.978a2.3,2.3,0,0,0-2.3,2.3V2344.2q2.269.69,4.6,1.237v-71.164A2.3,2.3,0,0,0,2016.2,2271.978Z" fill="#a8b7ef"/>
      </g>
      <g id="Grupo_54091" data-name="Grupo 54091">
        <path id="Trazado_101067" data-name="Trazado 101067" d="M2024.937,2294.981a2.3,2.3,0,0,1-2.3-2.3v-18.4a2.3,2.3,0,0,1,4.6,0v18.4A2.3,2.3,0,0,1,2024.937,2294.981Z" fill="#a8b7ef"/>
      </g>
      <g id="Grupo_54092" data-name="Grupo 54092">
        <path id="Trazado_101068" data-name="Trazado 101068" d="M1998.738,2258.8a2.3,2.3,0,0,1-2.3-2.3v-18.31a2.3,2.3,0,1,1,4.6,0v18.31A2.3,2.3,0,0,1,1998.738,2258.8Z" fill="#a8b7ef"/>
      </g>
      <g id="Grupo_54093" data-name="Grupo 54093">
        <path id="Trazado_101069" data-name="Trazado 101069" d="M2007.471,2258.8a2.3,2.3,0,0,1-2.3-2.3v-18.31a2.3,2.3,0,1,1,4.6,0v18.31A2.3,2.3,0,0,1,2007.471,2258.8Z" fill="#a8b7ef"/>
      </g>
      <g id="Grupo_54094" data-name="Grupo 54094">
        <path id="Trazado_101070" data-name="Trazado 101070" d="M2016.2,2258.8a2.3,2.3,0,0,1-2.3-2.3v-18.31a2.3,2.3,0,1,1,4.6,0v18.31A2.3,2.3,0,0,1,2016.2,2258.8Z" fill="#a8b7ef"/>
      </g>
      <g id="Grupo_54095" data-name="Grupo 54095">
        <path id="Trazado_101071" data-name="Trazado 101071" d="M2024.937,2258.8a2.3,2.3,0,0,1-2.3-2.3v-18.31a2.3,2.3,0,1,1,4.6,0v18.31A2.3,2.3,0,0,1,2024.937,2258.8Z" fill="#a8b7ef"/>
      </g>
      <g id="Grupo_54096" data-name="Grupo 54096">
        <path id="Trazado_101072" data-name="Trazado 101072" d="M2024.937,2258.8a2.3,2.3,0,0,1-2.3-2.3v-18.31a2.3,2.3,0,1,1,4.6,0v18.31A2.3,2.3,0,0,1,2024.937,2258.8Z" fill="#a8b7ef"/>
      </g>
      <g id="Grupo_54097" data-name="Grupo 54097">
        <path id="Trazado_101073" data-name="Trazado 101073" d="M2033.67,2294.981a2.3,2.3,0,0,1-2.3-2.3v-18.4a2.3,2.3,0,0,1,4.6,0v18.4a2.3,2.3,0,0,1-2.3,2.3Z" fill="#a8b7ef"/>
      </g>
      <path id="Trazado_101074" data-name="Trazado 101074" d="M1999.226,2206.815h25.223V2229.8h-25.223Z" fill="#dae2fe"/>
      <path id="Trazado_101075" data-name="Trazado 101075" d="M2009.767,2222.847v-9.075a6.956,6.956,0,0,1,6.956-6.957h-17.5V2229.8h17.5A6.956,6.956,0,0,1,2009.767,2222.847Z" fill="#bec8f7"/>
      <path id="Trazado_101076" data-name="Trazado 101076" d="M2024.937,2305.712v40.93a74.406,74.406,0,0,0,10.417.736,73.38,73.38,0,0,0,34.9-8.77v-32.9Z" fill="#ffc839"/>
      <path id="Trazado_101077" data-name="Trazado 101077" d="M2041.238,2336.983V2316.1a10.4,10.4,0,0,1,10.4-10.394h-26.7v40.931a74.278,74.278,0,0,0,22.307-.22,10.415,10.415,0,0,1-6.006-9.439Z" fill="#ffb332"/>
      <g id="Grupo_54098" data-name="Grupo 54098">
        <path id="Trazado_101078" data-name="Trazado 101078" d="M2088.661,2270.107h-27.034a2.3,2.3,0,1,1,0-4.6h27.034a2.3,2.3,0,1,1,0,4.6Z" fill="#73c3f9"/>
      </g>
      <g id="Grupo_54099" data-name="Grupo 54099">
        <path id="Trazado_101079" data-name="Trazado 101079" d="M2088.661,2279.8h-27.034a2.3,2.3,0,1,1,0-4.6h27.034a2.3,2.3,0,1,1,0,4.6Z" fill="#73c3f9"/>
      </g>
      <g id="Grupo_54100" data-name="Grupo 54100">
        <path id="Trazado_101080" data-name="Trazado 101080" d="M2088.661,2289.485h-27.034a2.3,2.3,0,1,1,0-4.6h27.034a2.3,2.3,0,1,1,0,4.6Z" fill="#73c3f9"/>
      </g>
      <g id="Grupo_54101" data-name="Grupo 54101">
        <path id="Trazado_101081" data-name="Trazado 101081" d="M2088.661,2299.174h-8.9a2.3,2.3,0,0,1,0-4.6h8.9a2.3,2.3,0,1,1,0,4.6Z" fill="#73c3f9"/>
      </g>
      <g id="Grupo_54102" data-name="Grupo 54102">
        <path id="Trazado_101082" data-name="Trazado 101082" d="M2088.661,2308.863h-8.9a2.3,2.3,0,0,1,0-4.6h8.9a2.3,2.3,0,1,1,0,4.6Z" fill="#73c3f9"/>
      </g>
      <g id="Grupo_54103" data-name="Grupo 54103">
        <path id="Trazado_101083" data-name="Trazado 101083" d="M2088.661,2318.552h-10.743a2.3,2.3,0,1,1,0-4.6h10.743a2.3,2.3,0,1,1,0,4.6Z" fill="#73c3f9"/>
      </g>
      <path id="Trazado_101084" data-name="Trazado 101084" d="M2088.661,2323.642h-10.743a2.3,2.3,0,1,0,0,4.6h6.989q2.351-2.136,4.509-4.47A2.3,2.3,0,0,0,2088.661,2323.642Z" fill="#73c3f9"/>
      <g id="Grupo_54104" data-name="Grupo 54104">
        <path id="Trazado_101085" data-name="Trazado 101085" d="M2098.925,2260.629a2.3,2.3,0,0,1-.988-.224l-47.5-22.63a2.3,2.3,0,0,1,1.978-4.152l47.5,22.63a2.3,2.3,0,0,1-.991,4.376Z" fill="#4f71b6"/>
      </g>
      <g id="Grupo_54105" data-name="Grupo 54105">
        <path id="Trazado_101086" data-name="Trazado 101086" d="M2034.495,2319.877a2.3,2.3,0,0,1-2.3-2.3v-2.8a2.3,2.3,0,1,1,4.6,0v2.8a2.3,2.3,0,0,1-2.3,2.3Z" fill="#ff9100"/>
      </g>
      <g id="Grupo_54106" data-name="Grupo 54106">
        <path id="Trazado_101087" data-name="Trazado 101087" d="M2043.228,2319.877a2.3,2.3,0,0,1-2.3-2.3v-2.8a2.3,2.3,0,1,1,4.6,0v2.8A2.3,2.3,0,0,1,2043.228,2319.877Z" fill="#ff9100"/>
      </g>
      <g id="Grupo_54107" data-name="Grupo 54107">
        <path id="Trazado_101088" data-name="Trazado 101088" d="M2051.961,2319.877a2.3,2.3,0,0,1-2.3-2.3v-2.8a2.3,2.3,0,1,1,4.6,0v2.8A2.3,2.3,0,0,1,2051.961,2319.877Z" fill="#ff9100"/>
      </g>
      <g id="Grupo_54108" data-name="Grupo 54108">
        <path id="Trazado_101089" data-name="Trazado 101089" d="M2060.694,2319.877a2.3,2.3,0,0,1-2.3-2.3v-2.8a2.3,2.3,0,1,1,4.6,0v2.8A2.3,2.3,0,0,1,2060.694,2319.877Z" fill="#ff9100"/>
      </g>
      <g id="Grupo_54109" data-name="Grupo 54109">
        <path id="Trazado_101090" data-name="Trazado 101090" d="M2034.495,2331.772a2.3,2.3,0,0,1-2.3-2.3v-2.8a2.3,2.3,0,1,1,4.6,0v2.8a2.3,2.3,0,0,1-2.3,2.3Z" fill="#ff9100"/>
      </g>
      <g id="Grupo_54110" data-name="Grupo 54110">
        <path id="Trazado_101091" data-name="Trazado 101091" d="M2043.228,2331.772a2.3,2.3,0,0,1-2.3-2.3v-2.8a2.3,2.3,0,1,1,4.6,0v2.8A2.3,2.3,0,0,1,2043.228,2331.772Z" fill="#ff9100"/>
      </g>
      <g id="Grupo_54111" data-name="Grupo 54111">
        <path id="Trazado_101092" data-name="Trazado 101092" d="M2051.961,2331.772a2.3,2.3,0,0,1-2.3-2.3v-2.8a2.3,2.3,0,1,1,4.6,0v2.8A2.3,2.3,0,0,1,2051.961,2331.772Z" fill="#ff9100"/>
      </g>
      <g id="Grupo_54112" data-name="Grupo 54112">
        <path id="Trazado_101093" data-name="Trazado 101093" d="M2060.694,2331.772a2.3,2.3,0,0,1-2.3-2.3v-2.8a2.3,2.3,0,1,1,4.6,0v2.8A2.3,2.3,0,0,1,2060.694,2331.772Z" fill="#ff9100"/>
      </g>
      <g id="Grupo_54113" data-name="Grupo 54113">
        <path id="Trazado_101094" data-name="Trazado 101094" d="M2034.495,2343.667a2.3,2.3,0,0,1-2.3-2.3v-2.8a2.3,2.3,0,1,1,4.6,0v2.8a2.3,2.3,0,0,1-2.3,2.3Z" fill="#ff9100"/>
      </g>
      <g id="Grupo_54114" data-name="Grupo 54114">
        <path id="Trazado_101095" data-name="Trazado 101095" d="M2043.228,2343.667a2.3,2.3,0,0,1-2.3-2.3v-2.8a2.3,2.3,0,1,1,4.6,0v2.8A2.3,2.3,0,0,1,2043.228,2343.667Z" fill="#ff9100"/>
      </g>
      <g id="Grupo_54115" data-name="Grupo 54115">
        <path id="Trazado_101096" data-name="Trazado 101096" d="M2051.961,2343.667a2.3,2.3,0,0,1-2.3-2.3v-2.8a2.3,2.3,0,1,1,4.6,0v2.8A2.3,2.3,0,0,1,2051.961,2343.667Z" fill="#ff9100"/>
      </g>
      <path id="Trazado_101097" data-name="Trazado 101097" d="M2060.694,2336.263a2.3,2.3,0,0,0-2.3,2.3v2.8a2.3,2.3,0,0,0,1.1,1.961q1.715-.594,3.389-1.269a2.3,2.3,0,0,0,.106-.692v-2.8A2.3,2.3,0,0,0,2060.694,2336.263Z" fill="#ff9100"/>
      <g id="Grupo_54116" data-name="Grupo 54116">
        <path id="Trazado_101098" data-name="Trazado 101098" d="M2070.252,2306.018h-45.315a4.139,4.139,0,1,1,0-8.278h45.314a4.139,4.139,0,0,1,0,8.278Z" fill="#ffdd40"/>
      </g>
      <path id="Trazado_101099" data-name="Trazado 101099" d="M2043.728,2301.879a4.139,4.139,0,0,1,4.139-4.139h-22.93a4.139,4.139,0,1,0,0,8.278h22.93A4.139,4.139,0,0,1,2043.728,2301.879Z" fill="#ffc839"/>
      <g id="Grupo_54117" data-name="Grupo 54117">
        <path id="Trazado_101100" data-name="Trazado 101100" d="M2024.449,2209.114h-25.223a2.3,2.3,0,0,1,0-4.6h25.223a2.3,2.3,0,0,1,0,4.6Z" fill="#e9efff"/>
      </g>
      <g id="Grupo_54118" data-name="Grupo 54118">
        <path id="Trazado_101101" data-name="Trazado 101101" d="M2035.912,2232.1h-48.148a2.3,2.3,0,1,1,0-4.6h48.148a2.3,2.3,0,0,1,0,4.6Z" fill="#e9efff"/>
      </g>
      <g id="Grupo_54119" data-name="Grupo 54119">
        <path id="Trazado_101102" data-name="Trazado 101102" d="M2042.867,2266.311h-62.059a2.3,2.3,0,0,1,0-4.6h62.059a2.3,2.3,0,0,1,0,4.6Z" fill="#e9efff"/>
      </g>
      <g id="Grupo_54120" data-name="Grupo 54120">
        <path id="Trazado_101103" data-name="Trazado 101103" d="M2007.471,2223.585a2.3,2.3,0,0,1-2.3-2.3v-6.463a2.3,2.3,0,0,1,4.6,0v6.463A2.3,2.3,0,0,1,2007.471,2223.585Z" fill="#a8b7ef"/>
      </g>
      <g id="Grupo_54121" data-name="Grupo 54121">
        <path id="Trazado_101104" data-name="Trazado 101104" d="M2016.2,2223.585a2.3,2.3,0,0,1-2.3-2.3v-6.463a2.3,2.3,0,0,1,4.6,0v6.463A2.3,2.3,0,0,1,2016.2,2223.585Z" fill="#a8b7ef"/>
      </g>
    </g>
  </g>
</svg>
