<svg xmlns="http://www.w3.org/2000/svg" width="146.571" height="153.151" viewBox="0 0 146.571 153.151">
  <g id="Grupo_54091" data-name="Grupo 54091" transform="translate(-2156.449 -2194.227)">
    <circle id="Elipse_4069" data-name="Elipse 4069" cx="73" cy="73" r="73" transform="translate(2157.02 2201.378)" fill="#5bff3b"/>
    <g id="Grupo_54131" data-name="Grupo 54131">
      <path id="Trazado_101126" data-name="Trazado 101126" d="M2290.987,2314.333a73.286,73.286,0,1,0-122.505,0Z" fill="#4fabf7"/>
      <path id="Trazado_101127" data-name="Trazado 101127" d="M2252.712,2240.845c.059.139.117.278.171.417a13.535,13.535,0,0,1,.721,2.7,5.392,5.392,0,0,1,2.845-.654c.042-1.474.119-2.99.2-4.322a16.832,16.832,0,0,1-3.936,1.86Z" fill="#3c58a0"/>
      <path id="Trazado_101128" data-name="Trazado 101128" d="M2207.117,2240.429c-.066.157-.132.315-.193.472a15.346,15.346,0,0,0-.818,3.06,6.091,6.091,0,0,0-3.224-.741c-.048-1.672-.135-3.39-.226-4.9a19.125,19.125,0,0,0,4.461,2.108Z" fill="#3c58a0"/>
      <path id="Trazado_101129" data-name="Trazado 101129" d="M2229.734,2307.461a24.2,24.2,0,0,0,23.386-18l-3.839-1.7a6.331,6.331,0,0,1-3.469-3.827,28.881,28.881,0,0,1-1.182-7.617c-4.041,4.706-8.642,7.912-14.895,7.912s-10.854-3.206-14.9-7.912a28.911,28.911,0,0,1-1.184,7.62,6.331,6.331,0,0,1-3.469,3.827l-3.837,1.7a24.194,24.194,0,0,0,23.385,18Z" fill="#fcad6d"/>
      <path id="Trazado_101130" data-name="Trazado 101130" d="M2214.84,2276.314a28.911,28.911,0,0,1-1.184,7.62,6.331,6.331,0,0,1-3.469,3.827l-3.837,1.7a24.224,24.224,0,0,0,18.162,17.429c5.89-8.888,5.222-22.668,5.222-22.668C2223.482,2284.226,2218.881,2281.02,2214.84,2276.314Z" fill="#fd995b"/>
      <path id="Trazado_101131" data-name="Trazado 101131" d="M2198.014,2293.077q-2.349,1.118-4.656,2.42c-2.265,1.278-3.288,2.023-5.21,2.18-11.559.945-17.276,8.228-20.06,16.057a73.708,73.708,0,0,0,19.353,20.214h10.573v-40.871Z" fill="#bec8f7"/>
      <path id="Trazado_101132" data-name="Trazado 101132" d="M2271.321,2297.677c-1.922-.157-2.945-.9-5.21-2.18a70.269,70.269,0,0,0-9.744-4.591l-3.392-1.507a24.184,24.184,0,0,1-46.117,1.145v43.4h65.17a73.707,73.707,0,0,0,19.353-20.213c-2.784-7.83-8.5-15.113-20.06-16.058Z" fill="#e9efff"/>
      <path id="Trazado_101133" data-name="Trazado 101133" d="M2272.028,2333.948a73.787,73.787,0,0,0,9.09-7.609,18.677,18.677,0,0,0-3.759-6.092,3.348,3.348,0,0,0-5.822,2.254v11.447Z" fill="#bec8f7"/>
      <path id="Trazado_101134" data-name="Trazado 101134" d="M2257.92,2243.386c-1.165-1.068-3.486-.526-4.49.127a14.092,14.092,0,0,1,.043,4.153l-1.184,8.624q0,1.044-.063,2.048c2.888.871,4.322-1.722,4.564-3.5a13.232,13.232,0,0,1,.51-2.258c.768-2.4,3.539-6.519.62-9.194Z" fill="#fcad6d"/>
      <path id="Trazado_101135" data-name="Trazado 101135" d="M2201.549,2243.386c1.165-1.068,3.486-.526,4.49.127a14.092,14.092,0,0,0-.043,4.153l1.184,8.624q0,1.044.063,2.048c-2.888.871-4.322-1.722-4.564-3.5a13.232,13.232,0,0,0-.51-2.258c-.768-2.4-3.539-6.519-.62-9.194Z" fill="#fd995b"/>
      <g id="Grupo_54126" data-name="Grupo 54126">
        <path id="Trazado_101136" data-name="Trazado 101136" d="M2252.726,2240.521a18.831,18.831,0,0,1-5.544.826h-34.036a18.694,18.694,0,0,1-6.295-1.078c-.068.15-.134.3-.2.467a13.946,13.946,0,0,0-.789,6.946l1.184,8.609a31.9,31.9,0,0,0,12.3,25.308,16.97,16.97,0,0,0,20.767,0,31.88,31.88,0,0,0,12.3-25.29l1.185-8.625a13.98,13.98,0,0,0-.763-6.882c-.038-.1-.076-.189-.115-.281Z" fill="#f9ba8f"/>
      </g>
      <g id="Grupo_54127" data-name="Grupo 54127">
        <path id="Trazado_101137" data-name="Trazado 101137" d="M2236.247,2281.6a31.9,31.9,0,0,1-12.3-25.309l-1.184-8.608a14.032,14.032,0,0,1,.574-6.336h-10.189a18.674,18.674,0,0,1-6.295-1.078c-.068.15-.134.3-.2.467a13.951,13.951,0,0,0-.789,6.947l1.184,8.608a31.9,31.9,0,0,0,12.3,25.309,16.978,16.978,0,0,0,18.832,1.295A16.915,16.915,0,0,1,2236.247,2281.6Z" fill="#fcad6d"/>
      </g>
      <path id="Trazado_101138" data-name="Trazado 101138" d="M2272.057,2327.552a15.45,15.45,0,0,1-2.326-2.5h-38.908q-.53.888-1.089,1.78v20.541a72.955,72.955,0,0,0,43.12-14.028c.148-.6.3-1.189.453-1.762a3.943,3.943,0,0,0-1.25-4.036Z" fill="#ffc839"/>
      <path id="Trazado_101139" data-name="Trazado 101139" d="M2228.646,2325.057h-38.908a15.45,15.45,0,0,1-2.326,2.5,3.942,3.942,0,0,0-1.25,4.036c.155.573.3,1.163.453,1.762a72.954,72.954,0,0,0,43.119,14.028v-20.542Q2229.175,2325.945,2228.646,2325.057Z" fill="#ffc839"/>
      <g id="Grupo_54128" data-name="Grupo 54128">
        <path id="Trazado_101140" data-name="Trazado 101140" d="M2195.349,2292.955c-.174,3.6-.571,10.733-1.329,19.643-.541,6.357-2.623,10.4-4.607,12.878H2228.9q-.382-.635-.752-1.265a22.593,22.593,0,0,0-1.379-2.092,106.245,106.245,0,0,1-16.46-32.126,2.718,2.718,0,0,0-3.122-1.9l-9.226,1.814A3.254,3.254,0,0,0,2195.349,2292.955Z" fill="#ffdd40"/>
        <path id="Trazado_101141" data-name="Trazado 101141" d="M2270.056,2325.476c-1.984-2.476-4.066-6.521-4.607-12.878-.758-8.909-1.155-16.044-1.329-19.643a3.254,3.254,0,0,0-2.61-3.043l-9.226-1.814a2.717,2.717,0,0,0-3.122,1.9,106.224,106.224,0,0,1-16.461,32.127,22.4,22.4,0,0,0-1.378,2.091q-.369.632-.752,1.265Z" fill="#ffdd40"/>
        <path id="Trazado_101142" data-name="Trazado 101142" d="M2229.734,2324.742a2.084,2.084,0,0,0-2.072,2.094v20.511c.689.019,1.379.031,2.072.031s1.384-.012,2.073-.031v-20.511A2.084,2.084,0,0,0,2229.734,2324.742Z" fill="#ffdd40"/>
      </g>
      <g id="Grupo_54129" data-name="Grupo 54129">
        <path id="Trazado_101143" data-name="Trazado 101143" d="M2229.734,2340.039a2.6,2.6,0,0,1-2.59-2.617v-5.162a2.591,2.591,0,1,1,5.181,0v5.162A2.6,2.6,0,0,1,2229.734,2340.039Z" fill="#e9efff"/>
      </g>
      <path id="Trazado_101144" data-name="Trazado 101144" d="M2258.462,2288.684l-4.949-.973a1.035,1.035,0,0,0-1.228,1.023v55.1a72.685,72.685,0,0,0,7.011-2.672v-51.458A1.041,1.041,0,0,0,2258.462,2288.684Z" fill="#ffb332"/>
      <path id="Trazado_101145" data-name="Trazado 101145" d="M2205.956,2287.712l-4.949.973a1.038,1.038,0,0,0-.834,1.022v51.459a72.838,72.838,0,0,0,7.011,2.671v-55.1a1.034,1.034,0,0,0-1.228-1.022Z" fill="#ffb332"/>
      <path id="Trazado_101146" data-name="Trazado 101146" d="M2257.145,2328.56a3.476,3.476,0,0,1-4.86-3.183v18.46a72.685,72.685,0,0,0,7.011-2.672v-15.817A3.46,3.46,0,0,1,2257.145,2328.56Z" fill="#ff9100"/>
      <path id="Trazado_101147" data-name="Trazado 101147" d="M2202.394,2328.587a3.458,3.458,0,0,1-2.221-3.239v15.817a72.685,72.685,0,0,0,7.011,2.672v-18.46a3.476,3.476,0,0,1-4.79,3.21Z" fill="#ff9100"/>
      <path id="Trazado_101148" data-name="Trazado 101148" d="M2262.178,2223.412l-2.109-.871c.1.85.16,1.531.192,1.986a1.7,1.7,0,0,1-.336,1.134,21.363,21.363,0,0,1-6.6,5.544,11.83,11.83,0,0,1-5.785,1.482h-34.75a11.828,11.828,0,0,1-5.785-1.482,21.36,21.36,0,0,1-6.6-5.544,1.694,1.694,0,0,1-.335-1.134c.032-.455.089-1.136.191-1.986l-2.109.871a3.557,3.557,0,0,0-2.232,4.417,32.268,32.268,0,0,0,3.905,7.983,12.958,12.958,0,0,0,2.9,2.857,17.7,17.7,0,0,0,10.423,3.251h34.036a17.7,17.7,0,0,0,10.423-3.251,12.953,12.953,0,0,0,2.9-2.857,32.268,32.268,0,0,0,3.905-7.983,3.557,3.557,0,0,0-2.232-4.417Z" fill="#ffe98d"/>
      <path id="Trazado_101149" data-name="Trazado 101149" d="M2223.159,2241.92c-4.41-4.41.387-9.022.387-9.022l-.217-.211h-10.54A11.829,11.829,0,0,1,2207,2231.2a21.355,21.355,0,0,1-6.6-5.543,1.7,1.7,0,0,1-.335-1.134c.032-.455.089-1.136.191-1.986l-2.109.871a3.557,3.557,0,0,0-2.232,4.417,32.268,32.268,0,0,0,3.905,7.983,13,13,0,0,0,2.9,2.857,17.707,17.707,0,0,0,10.424,3.251Z" fill="#ffdd40"/>
      <path id="Trazado_101150" data-name="Trazado 101150" d="M2223.546,2197.451a31.881,31.881,0,0,0-14.345,6.313c-7.8,6.4-9.157,18.426-9.374,21.311a1.679,1.679,0,0,0,.375,1.178,21.183,21.183,0,0,0,6.673,5.231,12.8,12.8,0,0,0,5.914,1.414h10.757Z" fill="#ffc839"/>
      <path id="Trazado_101151" data-name="Trazado 101151" d="M2251.127,2203.764a31.152,31.152,0,0,0-12.944-6.026v35.16h9.356a12.8,12.8,0,0,0,5.914-1.414,21.2,21.2,0,0,0,6.673-5.231,1.681,1.681,0,0,0,.375-1.178c-.217-2.884-1.574-14.916-9.374-21.311Z" fill="#ffdd40"/>
      <path id="Trazado_101152" data-name="Trazado 101152" d="M2219.324,2224.1c3.152-2.446,6.909-6.221,6.909-10.315v-17.716c0-.025,0-.048,0-.072a39.375,39.375,0,0,0-5.3.984,2.341,2.341,0,0,0-1.916,2.137v25.233c.1-.084.2-.169.307-.251Z" fill="#ff9100"/>
      <path id="Trazado_101153" data-name="Trazado 101153" d="M2234.094,2196.066v17.716c0,4.094,3.758,7.869,6.91,10.315.1.081.205.167.307.251v-25.233a2.342,2.342,0,0,0-1.916-2.137,39.4,39.4,0,0,0-5.3-.984C2234.091,2196.018,2234.094,2196.041,2234.094,2196.066Z" fill="#ffb332"/>
      <path id="Trazado_101154" data-name="Trazado 101154" d="M2241.17,2223.954c-3.117-2.418-6.835-6.147-6.835-10.172v-17.716a1.958,1.958,0,0,0-1.983-1.765,32.433,32.433,0,0,0-4.376,0,1.959,1.959,0,0,0-1.984,1.765v17.716c0,4.025-3.718,7.754-6.834,10.172a10.148,10.148,0,0,0-4.182,7.97v.974h30.375v-.974a10.149,10.149,0,0,0-4.181-7.97Z" fill="#ffc839"/>
      <g id="Grupo_54130" data-name="Grupo 54130">
        <path id="Trazado_101155" data-name="Trazado 101155" d="M2225.746,2215.609h0l0,.019.005-.019Z" fill="#ffb332"/>
        <path id="Trazado_101156" data-name="Trazado 101156" d="M2230.09,2224.772c-6.2-1.485-4.5-8.566-4.355-9.125-.893,3.3-3.949,6.267-6.577,8.307a10.148,10.148,0,0,0-4.182,7.97v.974H2230.6C2232.41,2229.5,2233.577,2225.607,2230.09,2224.772Z" fill="#ffb332"/>
      </g>
      <path id="Trazado_101157" data-name="Trazado 101157" d="M2236.782,2232.9v-1.98a6.636,6.636,0,0,0-13.236,0v1.979Z" fill="#ffdd40"/>
      <path id="Trazado_101158" data-name="Trazado 101158" d="M2185.569,2215.609c2.911,3.3,6.262,9.481,1.59,17.787-7.179,12.763,23.73,42.142,4.387,49.687-13.225,5.159-24.118,7.956-30.707,16.044a73.362,73.362,0,0,1,24.73-83.518Z" fill="#4fabf7"/>
      <path id="Trazado_101159" data-name="Trazado 101159" d="M2259.884,2220.567c-.946-4.932-3.237-12.277-8.757-16.8-.651-.534-1.321-1.023-2-1.478a6.281,6.281,0,0,0-2.716,5.386c0,5.982.165,17.1,5.815,17.1,4.077,0,6.58-1.739,7.658-4.205Z" fill="#ffe98d"/>
    </g>
  </g>
</svg>
