<svg xmlns="http://www.w3.org/2000/svg" width="400" height="221" viewBox="0 0 400 221">
  <g id="Grupo_54176" data-name="Grupo 54176" transform="translate(-1020 -6247)">
    <g id="Grupo_54175" data-name="Grupo 54175" transform="translate(-545.425 3679.7)">
      <g id="Grupo_54165" data-name="Grupo 54165" transform="translate(1618.425 2571.693)">
        <g id="Grupo_54161" data-name="Grupo 54161" transform="translate(0 47.647)">
          <path id="Trazado_101214" data-name="Trazado 101214" d="M1792.162,2635.326a27.241,27.241,0,0,1-50.843,0Z" transform="translate(-1737.695 -2581.397)" fill="#50474c"/>
          <g id="Grupo_54159" data-name="Grupo 54159" transform="translate(2.704 0.037)">
            <path id="Trazado_101215" data-name="Trazado 101215" d="M1792.506,2651.859a.91.91,0,0,1-.808-.492l-24.613-46.943-24.61,46.943a.926.926,0,0,1-1.242.39.916.916,0,0,1-.385-1.241l25.426-48.5a.955.955,0,0,1,1.625,0l25.422,48.5a.912.912,0,0,1-.385,1.241A.958.958,0,0,1,1792.506,2651.859Z" transform="translate(-1740.742 -2601.565)" fill="#e5e5e5"/>
          </g>
          <g id="Grupo_54160" data-name="Grupo 54160" transform="translate(28.127)">
            <path id="Trazado_101216" data-name="Trazado 101216" d="M1757.588,2654.13a.916.916,0,0,1-.919-.918v-50.749a.92.92,0,1,1,1.841,0v50.749A.92.92,0,0,1,1757.588,2654.13Z" transform="translate(-1756.669 -2601.542)" fill="#e5e5e5"/>
          </g>
          <rect id="Rectángulo_5425" data-name="Rectángulo 5425" width="58.096" height="4.516" transform="translate(0 49.413)" fill="#fbcf15"/>
          <path id="Trazado_101217" data-name="Trazado 101217" d="M1786.291,2632.5v4.519h-3.625a27.182,27.182,0,0,1-25.421,17.455V2632.5Z" transform="translate(-1728.198 -2583.084)" fill="#e5dac4" style="mix-blend-mode: multiply;isolation: isolate"/>
        </g>
        <g id="Grupo_54164" data-name="Grupo 54164" transform="translate(125.763 47.647)">
          <path id="Trazado_101218" data-name="Trazado 101218" d="M1870.951,2635.326a27.243,27.243,0,0,1-50.846,0Z" transform="translate(-1816.479 -2581.397)" fill="#74506b"/>
          <g id="Grupo_54162" data-name="Grupo 54162" transform="translate(2.705 0.037)">
            <path id="Trazado_101219" data-name="Trazado 101219" d="M1871.3,2651.859a.909.909,0,0,1-.811-.492l-24.611-46.943-24.618,46.943a.915.915,0,1,1-1.62-.851l25.421-48.5a.959.959,0,0,1,1.63,0l25.422,48.5a.916.916,0,0,1-.386,1.241A.94.94,0,0,1,1871.3,2651.859Z" transform="translate(-1819.528 -2601.565)" fill="#e5e5e5"/>
          </g>
          <g id="Grupo_54163" data-name="Grupo 54163" transform="translate(28.132)">
            <path id="Trazado_101220" data-name="Trazado 101220" d="M1836.375,2654.13a.914.914,0,0,1-.918-.918v-50.749a.916.916,0,1,1,1.833,0v50.749A.913.913,0,0,1,1836.375,2654.13Z" transform="translate(-1835.457 -2601.542)" fill="#e5e5e5"/>
          </g>
          <rect id="Rectángulo_5426" data-name="Rectángulo 5426" width="58.099" height="4.516" transform="translate(0 49.413)" fill="#fbcf15"/>
          <path id="Trazado_101221" data-name="Trazado 101221" d="M1865.076,2632.5v4.519h-3.622a27.191,27.191,0,0,1-25.422,17.455V2632.5Z" transform="translate(-1806.982 -2583.084)" fill="#e5dac4" style="mix-blend-mode: multiply;isolation: isolate"/>
        </g>
        <path id="Trazado_101222" data-name="Trazado 101222" d="M1821.945,2592.428v9.371c-9.493.189-20.239,5.381-28.8,10.1a33.821,33.821,0,0,1-18.268,4.066c-7.1-.7-14.165-4.19-21.127-8.575v-5.236c6.961,4.38,12.816,6.952,20.732,7.241,7.063.249,12.8-3.245,18.662-6.864C1801.533,2597.386,1812.452,2592.618,1821.945,2592.428Z" transform="translate(-1730.283 -2559.329)" fill="#74506b"/>
        <path id="Trazado_101223" data-name="Trazado 101223" d="M1761.232,2601.829a5.337,5.337,0,1,1-5.336-5.341A5.337,5.337,0,0,1,1761.232,2601.829Z" transform="translate(-1732.186 -2556.908)" fill="#f4c215"/>
        <path id="Trazado_101224" data-name="Trazado 101224" d="M1796.471,2592.428v9.371c9.491.189,20.239,5.381,28.8,10.1a33.838,33.838,0,0,0,18.273,4.066c7.1-.7,14.167-4.19,21.124-8.575v-5.236c-6.957,4.38-12.815,6.952-20.732,7.241-7.065.249-12.809-3.245-18.664-6.864C1816.884,2597.386,1805.962,2592.618,1796.471,2592.428Z" transform="translate(-1704.809 -2559.329)" fill="#74506b"/>
        <path id="Trazado_101225" data-name="Trazado 101225" d="M1836.032,2601.829a5.338,5.338,0,1,0,5.338-5.341A5.339,5.339,0,0,0,1836.032,2601.829Z" transform="translate(-1681.219 -2556.908)" fill="#f4c215"/>
        <rect id="Rectángulo_5427" data-name="Rectángulo 5427" width="13.553" height="138.796" transform="translate(84.885 16.849)" fill="#593e52"/>
        <path id="Trazado_101226" data-name="Trazado 101226" d="M1812.255,2600.731a11.491,11.491,0,1,1-11.492-11.492A11.494,11.494,0,0,1,1812.255,2600.731Z" transform="translate(-1709.101 -2561.23)" fill="#f4c215"/>
        <path id="Trazado_101227" data-name="Trazado 101227" d="M1808.519,2580.466a8.772,8.772,0,1,1-8.771-8.773A8.775,8.775,0,0,1,1808.519,2580.466Z" transform="translate(-1708.086 -2571.693)" fill="#f4d916"/>
        <path id="Trazado_101228" data-name="Trazado 101228" d="M1803.862,2598.448a5.381,5.381,0,1,1-5.381-5.379A5.379,5.379,0,0,1,1803.862,2598.448Z" transform="translate(-1706.819 -2558.947)" fill="#f4d916"/>
        <rect id="Rectángulo_5428" data-name="Rectángulo 5428" width="74.405" height="20.727" transform="translate(54.456 155.644)" fill="#50474c"/>
        <rect id="Rectángulo_5429" data-name="Rectángulo 5429" width="134.987" height="15.413" transform="translate(24.167 176.371)" fill="#74506b"/>
        <rect id="Rectángulo_5430" data-name="Rectángulo 5430" width="74.405" height="5.048" transform="translate(54.456 159.63)" fill="#f4c215"/>
        <path id="Trazado_101229" data-name="Trazado 101229" d="M1810.477,2584.082a3.728,3.728,0,0,1-3.73,3.73h-12.928a3.732,3.732,0,0,1-3.737-3.73h0a3.738,3.738,0,0,1,3.737-3.739h12.928a3.734,3.734,0,0,1,3.73,3.739Z" transform="translate(-1708.619 -2566.535)" fill="#f4c215"/>
        <rect id="Rectángulo_5431" data-name="Rectángulo 5431" width="37.198" height="20.727" transform="translate(91.663 155.644)" fill="#74506b"/>
      </g>
      <g id="Grupo_54169" data-name="Grupo 54169" transform="translate(1704.837 2649.696)">
        <rect id="Rectángulo_5432" data-name="Rectángulo 5432" width="170.136" height="9.027" transform="translate(7.604 104.778)" fill="#bebebe"/>
        <rect id="Rectángulo_5433" data-name="Rectángulo 5433" width="185.062" height="39.458" transform="translate(0 6.241)" fill="#e77c20"/>
        <rect id="Rectángulo_5434" data-name="Rectángulo 5434" width="177.759" height="59.096" transform="translate(3.794 45.699)" fill="#dbdbdb"/>
        <rect id="Rectángulo_5435" data-name="Rectángulo 5435" width="48.905" height="5.062" transform="translate(3.797 45.698)" fill="#b8d0d0" style="mix-blend-mode: multiply;isolation: isolate"/>
        <rect id="Rectángulo_5436" data-name="Rectángulo 5436" width="88.146" height="2.267" transform="translate(48.155 41.295)" fill="#b3b3b3" opacity="0.71" style="mix-blend-mode: multiply;isolation: isolate"/>
        <rect id="Rectángulo_5437" data-name="Rectángulo 5437" width="12.123" height="16.606" transform="translate(139.74 56.054)" fill="#f0f0f0"/>
        <rect id="Rectángulo_5438" data-name="Rectángulo 5438" width="9.01" height="13.491" transform="translate(141.297 57.612)" fill="#74aabe"/>
        <rect id="Rectángulo_5439" data-name="Rectángulo 5439" width="12.122" height="16.606" transform="translate(161.597 56.054)" fill="#f0f0f0"/>
        <rect id="Rectángulo_5440" data-name="Rectángulo 5440" width="9.012" height="13.491" transform="translate(163.151 57.612)" fill="#74aabe"/>
        <rect id="Rectángulo_5441" data-name="Rectángulo 5441" width="12.123" height="16.605" transform="translate(139.74 82.38)" fill="#f0f0f0"/>
        <rect id="Rectángulo_5442" data-name="Rectángulo 5442" width="9.01" height="13.49" transform="translate(141.297 83.939)" fill="#74aabe"/>
        <rect id="Rectángulo_5443" data-name="Rectángulo 5443" width="12.122" height="16.605" transform="translate(161.597 82.38)" fill="#f0f0f0"/>
        <rect id="Rectángulo_5444" data-name="Rectángulo 5444" width="9.012" height="13.49" transform="translate(163.151 83.939)" fill="#74aabe"/>
        <path id="Trazado_101230" data-name="Trazado 101230" d="M1753.593,2676.4v20.575H1736.9V2676.4a8.346,8.346,0,0,1,16.692,0Z" transform="translate(-1664.602 -2592.237)" fill="#bec7c7" style="mix-blend-mode: multiply;isolation: isolate"/>
        <path id="Trazado_101231" data-name="Trazado 101231" d="M1768.108,2676.4v20.575h-16.689V2676.4a8.345,8.345,0,0,1,16.689,0Z" transform="translate(-1655.945 -2592.237)" fill="#bec7c7" style="mix-blend-mode: multiply;isolation: isolate"/>
        <path id="Trazado_101232" data-name="Trazado 101232" d="M1804.964,2655.674v3.511h-8.29v13.1h-3.832v-16.606Z" transform="translate(-1631.246 -2599.62)" fill="#bec7c7" style="mix-blend-mode: multiply;isolation: isolate"/>
        <path id="Trazado_101233" data-name="Trazado 101233" d="M1791.276,2655.674v3.511h-8.3v13.1h-3.83v-16.606Z" transform="translate(-1639.41 -2599.62)" fill="#bec7c7" style="mix-blend-mode: multiply;isolation: isolate"/>
        <path id="Trazado_101234" data-name="Trazado 101234" d="M1804.964,2672.166v3.511h-8.29v13.094h-3.832v-16.6Z" transform="translate(-1631.246 -2589.786)" fill="#bec7c7" style="mix-blend-mode: multiply;isolation: isolate"/>
        <path id="Trazado_101235" data-name="Trazado 101235" d="M1791.276,2672.166v3.511h-8.3v13.094h-3.83v-16.6Z" transform="translate(-1639.41 -2589.786)" fill="#bec7c7" style="mix-blend-mode: multiply;isolation: isolate"/>
        <rect id="Rectángulo_5445" data-name="Rectángulo 5445" width="12.122" height="16.606" transform="translate(11.433 56.054)" fill="#f0f0f0"/>
        <rect id="Rectángulo_5446" data-name="Rectángulo 5446" width="9.015" height="13.491" transform="translate(12.984 57.612)" fill="#74aabe"/>
        <rect id="Rectángulo_5447" data-name="Rectángulo 5447" width="12.125" height="16.606" transform="translate(33.286 56.054)" fill="#f0f0f0"/>
        <rect id="Rectángulo_5448" data-name="Rectángulo 5448" width="9.01" height="13.491" transform="translate(34.844 57.612)" fill="#74aabe"/>
        <rect id="Rectángulo_5449" data-name="Rectángulo 5449" width="12.122" height="16.605" transform="translate(11.433 82.38)" fill="#f0f0f0"/>
        <rect id="Rectángulo_5450" data-name="Rectángulo 5450" width="9.015" height="13.49" transform="translate(12.984 83.939)" fill="#74aabe"/>
        <path id="Trazado_101236" data-name="Trazado 101236" d="M1831.879,2657.063h-25.4l16.019,16.035,1.553,1.553,7.833,7.832V2711.1h-3.81v9.014h-35.46V2714.1h-3.121v-3h-28.65v-.019h25v-3.809h-1.994v-2.629h-1.764V2652h1.149v-2.153h3.4v-2.258h3.016l2.242-2.84,1.094.863.9-1.147,7.536,7.534h30.465Z" transform="translate(-1650.329 -2606.302)" fill="#b8d0d0" style="mix-blend-mode: multiply;isolation: isolate"/>
        <rect id="Rectángulo_5451" data-name="Rectángulo 5451" width="12.125" height="16.605" transform="translate(33.286 82.38)" fill="#f0f0f0"/>
        <rect id="Rectángulo_5452" data-name="Rectángulo 5452" width="9.01" height="13.49" transform="translate(34.844 83.939)" fill="#74aabe"/>
        <path id="Trazado_101237" data-name="Trazado 101237" d="M1724.586,2655.674v3.511h-8.3v13.1h-3.829v-16.606Z" transform="translate(-1679.175 -2599.62)" fill="#bec7c7" style="mix-blend-mode: multiply;isolation: isolate"/>
        <path id="Trazado_101238" data-name="Trazado 101238" d="M1710.893,2655.674v3.511h-8.29v13.1h-3.832v-16.606Z" transform="translate(-1687.338 -2599.62)" fill="#bec7c7" style="mix-blend-mode: multiply;isolation: isolate"/>
        <path id="Trazado_101239" data-name="Trazado 101239" d="M1724.586,2672.166v3.511h-8.3v13.094h-3.829v-16.6Z" transform="translate(-1679.175 -2589.786)" fill="#bec7c7" style="mix-blend-mode: multiply;isolation: isolate"/>
        <path id="Trazado_101240" data-name="Trazado 101240" d="M1710.893,2672.166v3.511h-8.29v13.094h-3.832v-16.6Z" transform="translate(-1687.338 -2589.786)" fill="#bec7c7" style="mix-blend-mode: multiply;isolation: isolate"/>
        <path id="Trazado_101241" data-name="Trazado 101241" d="M1779.623,2649.192v52.642h-1.737v2.621h-2.008v3.815h-36.548v-3.815h-1.989v-2.621H1735.6v-52.642Z" transform="translate(-1665.376 -2603.485)" fill="#b8d0d0" style="mix-blend-mode: multiply;isolation: isolate"/>
        <path id="Trazado_101242" data-name="Trazado 101242" d="M1754.8,2695.222h-16.864v-9.009h1.566l3.013,3h3.19l3.012,3.014h3.085Z" transform="translate(-1663.983 -2581.41)" fill="#b8d0d0" style="mix-blend-mode: multiply;isolation: isolate"/>
        <g id="Grupo_54167" data-name="Grupo 54167" transform="translate(41.047)">
          <rect id="Rectángulo_5453" data-name="Rectángulo 5453" width="17.518" height="52.629" transform="translate(73.198 45.707)" fill="#fff"/>
          <path id="Trazado_101243" data-name="Trazado 101243" d="M1819.812,2658.736l-.882,1.127-1.1-.858-49.2-36.688-49.308,36.775-1.116.844-.881-1.116,51.305-38.263Z" transform="translate(-1717.323 -2620.558)" fill="#e5ad2a"/>
          <path id="Trazado_101244" data-name="Trazado 101244" d="M1817.08,2658.349l-2.234,2.848h-94.107l-2.165-2.761,49.308-36.775Z" transform="translate(-1716.577 -2619.901)" fill="#f2f2f2"/>
          <path id="Trazado_101245" data-name="Trazado 101245" d="M1727.118,2652.787l35.67-26.61,35.678,26.61Z" transform="translate(-1711.482 -2617.208)" fill="#e5e5e5"/>
          <path id="Trazado_101246" data-name="Trazado 101246" d="M1809.922,2646.428v2.267h-3.4v2.145h-80.988V2648.7h-3.76v-2.267Z" transform="translate(-1714.667 -2605.133)" fill="#e5e5e5"/>
          <path id="Trazado_101247" data-name="Trazado 101247" d="M1747.269,2684.8v3.811h-24.987V2684.8h2v-2.636h20.992v2.636Z" transform="translate(-1714.366 -2583.826)" fill="#f2f2f2"/>
          <path id="Trazado_101248" data-name="Trazado 101248" d="M1785.826,2684.8v3.811H1760.84V2684.8h2v-2.636h20.993v2.636Z" transform="translate(-1691.374 -2583.826)" fill="#f2f2f2"/>
          <rect id="Rectángulo_5454" data-name="Rectángulo 5454" width="17.517" height="52.629" transform="translate(11.655 45.707)" fill="#fff"/>
          <g id="Grupo_54166" data-name="Grupo 54166" transform="translate(11.915 47.565)" opacity="0.28">
            <path id="Trazado_101249" data-name="Trazado 101249" d="M1770.756,2697.912a1.65,1.65,0,0,1-1.518,1.761h0a1.655,1.655,0,0,1-1.523-1.761v-45.8a1.656,1.656,0,0,1,1.523-1.759h0a1.651,1.651,0,0,1,1.518,1.759Z" transform="translate(-1699.19 -2650.356)" fill="#bababa"/>
            <path id="Trazado_101250" data-name="Trazado 101250" d="M1773.221,2697.912c0,.974-.511,1.761-1.143,1.761h0c-.637,0-1.149-.787-1.149-1.761v-45.8c0-.97.512-1.759,1.149-1.759h0c.632,0,1.143.789,1.143,1.759Z" transform="translate(-1697.274 -2650.356)" fill="#bababa"/>
            <path id="Trazado_101251" data-name="Trazado 101251" d="M1774.336,2697.912c0,.974-.254,1.761-.565,1.761h0c-.313,0-.562-.787-.562-1.761v-45.8c0-.97.249-1.759.562-1.759h0c.311,0,.565.789.565,1.759Z" transform="translate(-1695.914 -2650.356)" fill="#bababa"/>
            <path id="Trazado_101252" data-name="Trazado 101252" d="M1764.479,2697.912c0,.974-.254,1.761-.568,1.761h0c-.314,0-.57-.787-.57-1.761v-45.8c0-.97.256-1.759.57-1.759h0c.314,0,.568.789.568,1.759Z" transform="translate(-1701.798 -2650.356)" fill="#bababa"/>
            <path id="Trazado_101253" data-name="Trazado 101253" d="M1767.069,2697.912c0,.974-.487,1.761-1.089,1.761h0c-.6,0-1.089-.787-1.089-1.761v-45.8c0-.97.485-1.759,1.089-1.759h0c.6,0,1.089.789,1.089,1.759Z" transform="translate(-1700.873 -2650.356)" fill="#bababa"/>
            <path id="Trazado_101254" data-name="Trazado 101254" d="M1732.2,2697.912a1.65,1.65,0,0,1-1.52,1.761h0a1.653,1.653,0,0,1-1.52-1.761v-45.8a1.654,1.654,0,0,1,1.52-1.759h0a1.651,1.651,0,0,1,1.52,1.759Z" transform="translate(-1722.179 -2650.356)" fill="#bababa"/>
            <path id="Trazado_101255" data-name="Trazado 101255" d="M1734.668,2697.912c0,.974-.517,1.761-1.146,1.761h0c-.634,0-1.148-.787-1.148-1.761v-45.8c0-.97.514-1.759,1.148-1.759h0c.629,0,1.146.789,1.146,1.759Z" transform="translate(-1720.263 -2650.356)" fill="#bababa"/>
            <path id="Trazado_101256" data-name="Trazado 101256" d="M1735.781,2697.912c0,.974-.254,1.761-.563,1.761h0c-.316,0-.563-.787-.563-1.761v-45.8c0-.97.247-1.759.563-1.759h0c.31,0,.563.789.563,1.759Z" transform="translate(-1718.903 -2650.356)" fill="#bababa"/>
            <path id="Trazado_101257" data-name="Trazado 101257" d="M1725.927,2697.912c0,.974-.255,1.761-.573,1.761h0c-.313,0-.567-.787-.567-1.761v-45.8c0-.97.254-1.759.567-1.759h0c.318,0,.573.789.573,1.759Z" transform="translate(-1724.787 -2650.356)" fill="#bababa"/>
            <path id="Trazado_101258" data-name="Trazado 101258" d="M1728.52,2697.912c0,.974-.491,1.761-1.093,1.761h0c-.6,0-1.09-.787-1.09-1.761v-45.8c0-.97.485-1.759,1.09-1.759h0c.6,0,1.093.789,1.093,1.759Z" transform="translate(-1723.863 -2650.356)" fill="#bababa"/>
          </g>
          <rect id="Rectángulo_5455" data-name="Rectángulo 5455" width="93.755" height="3.009" transform="translate(4.365 104.788)" fill="#fff"/>
          <rect id="Rectángulo_5456" data-name="Rectángulo 5456" width="99.986" height="6.017" transform="translate(1.25 107.797)" fill="#d3d2d1"/>
          <path id="Trazado_101259" data-name="Trazado 101259" d="M1769.84,2623.122l-49.9,37.061-1.365-1.749,49.308-36.77Z" transform="translate(-1716.577 -2619.899)" fill="#b3b3b3" opacity="0.71" style="mix-blend-mode: multiply;isolation: isolate"/>
          <path id="Trazado_101260" data-name="Trazado 101260" d="M1764.548,2627.492l-33.371,25.3h-4.058l35.667-26.615Z" transform="translate(-1711.481 -2617.208)" fill="#b3b3b3" opacity="0.71" style="mix-blend-mode: multiply;isolation: isolate"/>
          <rect id="Rectángulo_5457" data-name="Rectángulo 5457" width="36.563" height="3.013" transform="translate(32.903 104.784)" fill="#fff"/>
          <rect id="Rectángulo_5458" data-name="Rectángulo 5458" width="36.563" height="3.012" transform="translate(32.903 107.797)" fill="#f2f2f2"/>
        </g>
        <g id="Grupo_54168" data-name="Grupo 54168" transform="translate(79.736 45.728)">
          <path id="Trazado_101261" data-name="Trazado 101261" d="M1766.547,2684.81v3.811H1741.56v-3.811h2v-2.635h21v2.635Z" transform="translate(-1741.56 -2629.546)" fill="#f2f2f2"/>
          <rect id="Rectángulo_5459" data-name="Rectángulo 5459" width="17.522" height="52.63" transform="translate(3.736)" fill="#fff"/>
          <path id="Trazado_101262" data-name="Trazado 101262" d="M1751.476,2697.926a1.648,1.648,0,0,1-1.52,1.759h0a1.65,1.65,0,0,1-1.517-1.759v-45.8a1.654,1.654,0,0,1,1.517-1.759h0a1.652,1.652,0,0,1,1.52,1.759Z" transform="translate(-1737.458 -2648.512)" fill="#bababa" opacity="0.39"/>
          <path id="Trazado_101263" data-name="Trazado 101263" d="M1753.944,2697.926c0,.974-.512,1.759-1.145,1.759h0c-.637,0-1.148-.785-1.148-1.759v-45.8c0-.967.511-1.759,1.148-1.759h0c.632,0,1.145.792,1.145,1.759Z" transform="translate(-1735.543 -2648.512)" fill="#bababa" opacity="0.39"/>
          <path id="Trazado_101264" data-name="Trazado 101264" d="M1755.059,2697.926c0,.974-.259,1.759-.563,1.759h0c-.316,0-.562-.785-.562-1.759v-45.8c0-.967.246-1.759.562-1.759h0c.3,0,.563.792.563,1.759Z" transform="translate(-1734.182 -2648.512)" fill="#bababa" opacity="0.39"/>
          <path id="Trazado_101265" data-name="Trazado 101265" d="M1745.2,2697.926c0,.974-.252,1.759-.57,1.759h0c-.314,0-.568-.785-.568-1.759v-45.8c0-.967.254-1.759.568-1.759h0c.318,0,.57.792.57,1.759Z" transform="translate(-1740.067 -2648.512)" fill="#bababa" opacity="0.39"/>
          <path id="Trazado_101266" data-name="Trazado 101266" d="M1747.795,2697.926c0,.974-.49,1.759-1.093,1.759h0c-.6,0-1.086-.785-1.086-1.759v-45.8c0-.967.485-1.759,1.086-1.759h0c.6,0,1.093.792,1.093,1.759Z" transform="translate(-1739.142 -2648.512)" fill="#bababa" opacity="0.39"/>
        </g>
        <path id="Trazado_101267" data-name="Trazado 101267" d="M1761.425,2649.205v4.921a27.525,27.525,0,0,0-17.526.1v-5.025Z" transform="translate(-1660.429 -2603.477)" fill="#c5cecd" style="mix-blend-mode: multiply;isolation: isolate"/>
        <path id="Trazado_101268" data-name="Trazado 101268" d="M1742.147,2649.205v4.921a26.844,26.844,0,0,0-8.62-1.381,26.556,26.556,0,0,0-8.9,1.484v-5.025Z" transform="translate(-1671.922 -2603.477)" fill="#c5cecd" style="mix-blend-mode: multiply;isolation: isolate"/>
        <path id="Trazado_101269" data-name="Trazado 101269" d="M1780.7,2649.205v4.921a27.52,27.52,0,0,0-17.524.1v-5.025Z" transform="translate(-1648.935 -2603.477)" fill="#c5cecd" style="mix-blend-mode: multiply;isolation: isolate"/>
        <rect id="Rectángulo_5460" data-name="Rectángulo 5460" width="88.146" height="2.267" transform="translate(48.155 41.295)" fill="#c5cecd" opacity="0.4" style="mix-blend-mode: multiply;isolation: isolate"/>
        <rect id="Rectángulo_5461" data-name="Rectángulo 5461" width="37.807" height="3.02" transform="translate(7.604 104.778)" fill="#b8d0d0" style="mix-blend-mode: multiply;isolation: isolate"/>
      </g>
      <g id="Grupo_54170" data-name="Grupo 54170" transform="translate(1708.939 2729.782)">
        <path id="Trazado_101270" data-name="Trazado 101270" d="M1711.941,2683.691c0,7.161-3.975,12.965-8.882,12.965s-8.88-5.8-8.88-12.965,3.977-12.962,8.88-12.962S1711.941,2676.535,1711.941,2683.691Z" transform="translate(-1694.179 -2670.729)" fill="#4fa3b1"/>
        <path id="Trazado_101271" data-name="Trazado 101271" d="M1704.343,2681.7l-3.955,3.512v14.107h-1.74l.745-20.58.995.177v5.462l3.69-2.892Z" transform="translate(-1691.514 -2665.954)" fill="#974332"/>
      </g>
      <g id="Grupo_54171" data-name="Grupo 54171" transform="translate(1877.683 2722.664)">
        <path id="Trazado_101272" data-name="Trazado 101272" d="M1821.441,2682c0,8.687-4.822,15.731-10.778,15.731s-10.773-7.044-10.773-15.731,4.825-15.728,10.773-15.728S1821.441,2673.314,1821.441,2682Z" transform="translate(-1799.89 -2666.27)" fill="#4fa3b1"/>
        <path id="Trazado_101273" data-name="Trazado 101273" d="M1812.222,2679.578l-4.8,4.261v17.117h-2.111l.9-24.97,1.207.214v6.627l4.478-3.508Z" transform="translate(-1796.656 -2660.476)" fill="#974332"/>
      </g>
      <g id="Grupo_54172" data-name="Grupo 54172" transform="translate(1618.425 2728.631)">
        <path id="Trazado_101274" data-name="Trazado 101274" d="M1851.151,2683.35a13.339,13.339,0,1,1-13.335-13.342A13.337,13.337,0,0,1,1851.151,2683.35Z" transform="translate(-1824.474 -2670.008)" fill="#4fa3b1"/>
        <path id="Trazado_101275" data-name="Trazado 101275" d="M1836.143,2700.645v-23.912h-.786l-.221,5.758-5.193-3.152-.3.4,5.412,4.4-.635,16.5Z" transform="translate(-1821.394 -2665.998)" fill="#974332"/>
      </g>
      <g id="Grupo_54173" data-name="Grupo 54173" transform="translate(1669.425 2725.592)">
        <path id="Trazado_101276" data-name="Trazado 101276" d="M1698.388,2682.588a14.481,14.481,0,1,1-14.48-14.484A14.482,14.482,0,0,1,1698.388,2682.588Z" transform="translate(-1669.425 -2668.104)" fill="#4fa3b1"/>
        <path id="Trazado_101277" data-name="Trazado 101277" d="M1682.094,2701.362V2675.4h-.851l-.24,6.25-5.637-3.417-.333.437,5.874,4.785-.684,17.9Z" transform="translate(-1666.082 -2663.751)" fill="#974332"/>
      </g>
      <g id="Grupo_54174" data-name="Grupo 54174" transform="translate(1891.994 2723.751)">
        <path id="Trazado_101278" data-name="Trazado 101278" d="M1860.023,2682.59c0,8.635-4.8,15.638-10.717,15.638s-10.714-7-10.714-15.638,4.8-15.639,10.714-15.639S1860.023,2673.952,1860.023,2682.59Z" transform="translate(-1838.592 -2666.951)" fill="#4fa3b1"/>
        <path id="Trazado_101279" data-name="Trazado 101279" d="M1850.855,2680.183l-4.772,4.24v17.017h-2.1l.9-24.828,1.2.213v6.59l4.454-3.486Z" transform="translate(-1835.376 -2661.19)" fill="#974332"/>
      </g>
    </g>
    <rect id="Rectángulo_5463" data-name="Rectángulo 5463" width="400" height="221" transform="translate(1020 6247)" fill="none"/>
  </g>
</svg>
