<svg id="Grupo_54158" data-name="Grupo 54158" xmlns="http://www.w3.org/2000/svg" width="295" height="293.143" viewBox="0 0 295 293.143">
  <rect id="Rectángulo_5416" data-name="Rectángulo 5416" width="295" height="293" fill="#fff"/>
  <g id="Grupo_54157" data-name="Grupo 54157" transform="translate(7.516 11)">
    <g id="Grupo_54156" data-name="Grupo 54156">
      <g id="Grupo_54138" data-name="Grupo 54138" transform="translate(12.434 16.978)">
        <rect id="Rectángulo_5407" data-name="Rectángulo 5407" width="50.537" height="49.028" rx="6.108" transform="translate(0)" fill="#3a3a5b"/>
        <rect id="Rectángulo_5408" data-name="Rectángulo 5408" width="46.158" height="44.78" rx="5.579" transform="translate(2.19 2.124)" fill="#ecf1f9"/>
        <g id="Grupo_54134" data-name="Grupo 54134" transform="translate(6 5.552)">
          <g id="Grupo_54132" data-name="Grupo 54132">
            <circle id="Elipse_4069" data-name="Elipse 4069" cx="1.047" cy="1.047" r="1.047" transform="translate(18.222)" fill="#3a3a5b"/>
            <path id="Trazado_101160" data-name="Trazado 101160" d="M1597.012,2446.575a1.047,1.047,0,1,0-.406,1.424A1.046,1.046,0,0,0,1597.012,2446.575Z" transform="translate(-1585.144 -2444.049)" fill="#3a3a5b"/>
            <path id="Trazado_101161" data-name="Trazado 101161" d="M1603.553,2452.325a1.047,1.047,0,1,0,.313,1.447A1.046,1.046,0,0,0,1603.553,2452.325Z" transform="translate(-1598.922 -2444.049)" fill="#3a3a5b"/>
            <circle id="Elipse_4070" data-name="Elipse 4070" cx="1.047" cy="1.047" r="1.047" transform="translate(0 17.175)" fill="#3a3a5b"/>
            <path id="Trazado_101162" data-name="Trazado 101162" d="M1602.693,2471.551a1.047,1.047,0,1,0,1.481,0A1.046,1.046,0,0,0,1602.693,2471.551Z" transform="translate(-1599.816 -2444.049)" fill="#3a3a5b"/>
            <circle id="Elipse_4071" data-name="Elipse 4071" cx="1.047" cy="1.047" r="1.047" transform="translate(9.144 33.786)" fill="#3a3a5b"/>
            <path id="Trazado_101163" data-name="Trazado 101163" d="M1588.828,2481.539a1.047,1.047,0,1,0-1.047,1.047A1.047,1.047,0,0,0,1588.828,2481.539Z" transform="translate(-1568.513 -2444.049)" fill="#3a3a5b"/>
          </g>
          <g id="Grupo_54133" data-name="Grupo 54133" transform="translate(26.57 1.988)">
            <path id="Trazado_101164" data-name="Trazado 101164" d="M1578.518,2446.575a1.047,1.047,0,1,1,.407,1.424A1.047,1.047,0,0,1,1578.518,2446.575Z" transform="translate(-1578.386 -2446.037)" fill="#3a3a5b"/>
            <path id="Trazado_101165" data-name="Trazado 101165" d="M1571.976,2452.325a1.047,1.047,0,1,1-.312,1.447A1.046,1.046,0,0,1,1571.976,2452.325Z" transform="translate(-1564.607 -2446.037)" fill="#3a3a5b"/>
            <circle id="Elipse_4072" data-name="Elipse 4072" cx="1.047" cy="1.047" r="1.047" transform="translate(9.907 15.187)" fill="#3a3a5b"/>
            <path id="Trazado_101166" data-name="Trazado 101166" d="M1572.837,2471.551a1.047,1.047,0,1,1-1.48,0A1.046,1.046,0,0,1,1572.837,2471.551Z" transform="translate(-1563.714 -2446.037)" fill="#3a3a5b"/>
            <circle id="Elipse_4073" data-name="Elipse 4073" cx="1.047" cy="1.047" r="1.047" transform="translate(0.763 31.798)" fill="#3a3a5b"/>
          </g>
        </g>
        <g id="Grupo_54137" data-name="Grupo 54137" transform="translate(17.438 10.696)">
          <circle id="Elipse_4074" data-name="Elipse 4074" cx="1.047" cy="1.047" r="1.047" transform="translate(6.019 12.031)" fill="#3a3a5b"/>
          <g id="Grupo_54135" data-name="Grupo 54135" transform="translate(6.923)">
            <rect id="Rectángulo_5409" data-name="Rectángulo 5409" width="0.286" height="13.078" transform="translate(0)" fill="#3a3a5b"/>
          </g>
          <g id="Grupo_54136" data-name="Grupo 54136" transform="translate(0 7.279)">
            <rect id="Rectángulo_5410" data-name="Rectángulo 5410" width="8.814" height="0.857" transform="translate(6.933 6.117) rotate(-141.865)" fill="#3a3a5b"/>
          </g>
        </g>
      </g>
      <g id="Grupo_54140" data-name="Grupo 54140" transform="translate(24.261 211.772)">
        <g id="Grupo_54139" data-name="Grupo 54139">
          <path id="Rectángulo_5411" data-name="Rectángulo 5411" d="M17.549,0H128.41a0,0,0,0,1,0,0V39.63a0,0,0,0,1,0,0H17.947A17.947,17.947,0,0,1,0,21.683V17.549A17.549,17.549,0,0,1,17.549,0Z" transform="translate(95.772 0.001)" fill="#ecf1f9"/>
          <path id="Trazado_101167" data-name="Trazado 101167" d="M1371.083,2649.6v5.961a17.358,17.358,0,0,0,17.364,17.362h210.258a2.517,2.517,0,0,0,2.518-2.516v-.893a2.517,2.517,0,0,0-2.518-2.516H1470.533a16.317,16.317,0,0,1-1.8-2.7,16.115,16.115,0,0,1-1.879-7.577v-7.578a15.786,15.786,0,0,1,3.492-9.918h128.358a2.518,2.518,0,0,0,2.518-2.519v-.89a2.518,2.518,0,0,0-2.518-2.519H1387.388a16.292,16.292,0,0,0-16.305,16.306Z" transform="translate(-1371.083 -2633.291)" fill="#e77c20"/>
          <path id="Trazado_101168" data-name="Trazado 101168" d="M1371.083,2645.1h95.664a15.824,15.824,0,0,1,2.972-5.884h128.358a2.518,2.518,0,0,0,2.518-2.519v-.89a2.518,2.518,0,0,0-2.518-2.519H1386.76A16.31,16.31,0,0,0,1371.083,2645.1Z" transform="translate(-1370.455 -2633.291)" fill="#994616" opacity="0.43"/>
        </g>
        <path id="Trazado_101169" data-name="Trazado 101169" d="M1392.609,2653.106l-15.568.666,15.568.4Z" transform="translate(-1168.426 -2633.291)" fill="#ced1ec"/>
        <path id="Trazado_101170" data-name="Trazado 101170" d="M1414.078,2659.324l-37.038.666,37.038.4Z" transform="translate(-1189.896 -2633.291)" fill="#ced1ec"/>
      </g>
      <g id="Grupo_54144" data-name="Grupo 54144" transform="translate(0 251.319)">
        <g id="Grupo_54142" data-name="Grupo 54142">
          <g id="Grupo_54141" data-name="Grupo 54141">
            <path id="Trazado_101171" data-name="Trazado 101171" d="M1473.477,2703.662H1354.03v-30.824h120.416a14.928,14.928,0,0,1,14.928,14.928h0A15.9,15.9,0,0,1,1473.477,2703.662Z" transform="translate(-1217.92 -2672.838)" fill="#ff2948"/>
            <path id="Rectángulo_5412" data-name="Rectángulo 5412" d="M0,0H137.813a13.65,13.65,0,0,1,13.65,13.65v3.215A13.959,13.959,0,0,1,137.5,30.825H0a0,0,0,0,1,0,0V0A0,0,0,0,1,0,0Z" transform="translate(7.026 0)" fill="#ecf1f9"/>
            <path id="Trazado_101172" data-name="Trazado 101172" d="M1623.179,2703.662H1457.918a2.305,2.305,0,0,1-2.305-2.305h0a2.3,2.3,0,0,1,2.305-2.3h165.261a2.3,2.3,0,0,1,2.3,2.3h0A2.305,2.305,0,0,1,1623.179,2703.662Z" transform="translate(-1455.613 -2672.838)" fill="#ff2948"/>
            <path id="Trazado_101173" data-name="Trazado 101173" d="M1623.179,2677.448H1457.918a2.3,2.3,0,0,1-2.305-2.3h0a2.305,2.305,0,0,1,2.305-2.305h165.261a2.305,2.305,0,0,1,2.3,2.305h0A2.3,2.3,0,0,1,1623.179,2677.448Z" transform="translate(-1455.613 -2672.838)" fill="#ff2948"/>
          </g>
          <path id="Trazado_101174" data-name="Trazado 101174" d="M1600.095,2688.25l18.363.518-18.363.313Z" transform="translate(-1593.068 -2672.838)" fill="#ced1ec"/>
          <path id="Trazado_101175" data-name="Trazado 101175" d="M1574.771,2681.156l43.687.518-43.687.312Z" transform="translate(-1567.745 -2672.838)" fill="#ced1ec"/>
        </g>
        <g id="Grupo_54143" data-name="Grupo 54143" transform="translate(36.537 8.733)">
          <path id="Trazado_101176" data-name="Trazado 101176" d="M1588.947,2681.571a7.192,7.192,0,0,0-2.493,3.5,5.052,5.052,0,0,0-.194,1.218c-.1,2.892,0,9.438,0,9.438l-5.527-3.273-5.513,3.273v-8.872a7.043,7.043,0,0,1,1.351-4.378,2.093,2.093,0,0,1,1.527-.908Z" transform="translate(-1575.22 -2681.571)" fill="#80b4ff"/>
          <path id="Trazado_101177" data-name="Trazado 101177" d="M1588.789,2681.571a7.192,7.192,0,0,0-2.493,3.5l-11.076.129s.435-3.117,2.72-3.631Z" transform="translate(-1575.062 -2681.571)" fill="#7398e6"/>
        </g>
      </g>
      <g id="Grupo_54148" data-name="Grupo 54148" transform="translate(0.001 153.421)">
        <g id="Grupo_54146" data-name="Grupo 54146">
          <g id="Grupo_54145" data-name="Grupo 54145">
            <path id="Trazado_101178" data-name="Trazado 101178" d="M1473.476,2633.29H1354.029v-58.35h120.416c8.244,0,14.928,12.652,14.928,28.258h0C1489.373,2619.818,1482.256,2633.29,1473.476,2633.29Z" transform="translate(-1217.919 -2574.94)" fill="#4fa3b1"/>
            <path id="Rectángulo_5413" data-name="Rectángulo 5413" d="M0,0H132.683a18.78,18.78,0,0,1,18.78,18.78V39.144A19.206,19.206,0,0,1,132.257,58.35H0a0,0,0,0,1,0,0V0A0,0,0,0,1,0,0Z" transform="translate(7.026 0)" fill="#ecf1f9"/>
            <path id="Trazado_101179" data-name="Trazado 101179" d="M1623.178,2633.29H1457.917c-1.273,0-2.305-1.953-2.305-4.363h0c0-2.41,1.032-4.364,2.305-4.364h165.261c1.273,0,2.3,1.954,2.3,4.364h0C1625.483,2631.337,1624.451,2633.29,1623.178,2633.29Z" transform="translate(-1455.612 -2574.94)" fill="#4fa3b1"/>
            <path id="Trazado_101180" data-name="Trazado 101180" d="M1623.178,2583.667H1457.917c-1.273,0-2.305-1.953-2.305-4.363h0c0-2.41,1.032-4.364,2.305-4.364h165.261c1.273,0,2.3,1.954,2.3,4.364h0C1625.483,2581.714,1624.451,2583.667,1623.178,2583.667Z" transform="translate(-1455.612 -2574.94)" fill="#4fa3b1"/>
          </g>
          <path id="Trazado_101181" data-name="Trazado 101181" d="M1600.094,2604.115l18.363.98-18.363.592Z" transform="translate(-1593.068 -2574.94)" fill="#ced1ec"/>
          <path id="Trazado_101182" data-name="Trazado 101182" d="M1574.77,2590.687l43.687.98-43.687.591Z" transform="translate(-1567.744 -2574.94)" fill="#ced1ec"/>
        </g>
        <g id="Grupo_54147" data-name="Grupo 54147" transform="translate(36.537 16.532)">
          <path id="Trazado_101183" data-name="Trazado 101183" d="M1588.946,2591.472a15.862,15.862,0,0,0-2.493,6.628,17.613,17.613,0,0,0-.194,2.306c-.1,5.475,0,17.867,0,17.867l-5.527-6.2-5.513,6.2v-16.795a22.365,22.365,0,0,1,1.351-8.288c.426-.98.943-1.718,1.527-1.718Z" transform="translate(-1575.219 -2591.472)" fill="#80b4ff"/>
          <path id="Trazado_101184" data-name="Trazado 101184" d="M1588.788,2591.472a15.862,15.862,0,0,0-2.493,6.628l-11.076.246s.435-5.9,2.72-6.874Z" transform="translate(-1575.061 -2591.472)" fill="#7398e6"/>
        </g>
      </g>
      <g id="Grupo_54152" data-name="Grupo 54152" transform="translate(28.329 108.133)">
        <g id="Grupo_54150" data-name="Grupo 54150">
          <g id="Grupo_54149" data-name="Grupo 54149">
            <path id="Rectángulo_5414" data-name="Rectángulo 5414" d="M0,0H120.081a20.055,20.055,0,0,1,20.055,20.055v4.724a20.509,20.509,0,0,1-20.509,20.509H0a0,0,0,0,1,0,0V0A0,0,0,0,1,0,0Z" transform="translate(6.501 0)" fill="#ecf1f9"/>
            <path id="Trazado_101185" data-name="Trazado 101185" d="M1492.706,2547.225v9.746a11.266,11.266,0,0,1-5.721,9.706,11.388,11.388,0,0,1-5.641,1.489H1348.812a2.813,2.813,0,0,0-2.812,2.813v1.15a2.812,2.812,0,0,0,2.812,2.812h228.952a19.391,19.391,0,0,0,19.391-19.391v-7.69a18.2,18.2,0,0,0-18.207-18.207H1348.812a2.81,2.81,0,0,0-2.812,2.81v1.15a2.812,2.812,0,0,0,2.812,2.813H1481.75a10.976,10.976,0,0,1,8.061,3.516A10.778,10.778,0,0,1,1492.706,2547.225Z" transform="translate(-1346 -2529.652)" fill="#ffd186"/>
            <path id="Trazado_101186" data-name="Trazado 101186" d="M1349.51,2570.979v1.15a2.812,2.812,0,0,0,2.812,2.812h228.952a19.359,19.359,0,0,0,15.881-8.264h-106.66a11.388,11.388,0,0,1-5.641,1.489H1352.322A2.813,2.813,0,0,0,1349.51,2570.979Z" transform="translate(-1349.51 -2529.652)" fill="#fcba64"/>
          </g>
          <path id="Trazado_101187" data-name="Trazado 101187" d="M1573.665,2552.3l16.99.761-16.99.459Z" transform="translate(-1567.164 -2529.652)" fill="#ced1ec"/>
          <path id="Trazado_101188" data-name="Trazado 101188" d="M1550.235,2541.874l40.42.761-40.42.458Z" transform="translate(-1543.734 -2529.652)" fill="#ced1ec"/>
        </g>
        <g id="Grupo_54151" data-name="Grupo 54151" transform="translate(26.946 12.832)">
          <path id="Trazado_101189" data-name="Trazado 101189" d="M1570.209,2542.484a8.493,8.493,0,0,0-3.551,3.8,4.25,4.25,0,0,0-.276,1.321c-.148,3.136,0,10.234,0,10.234l-7.876-3.549-7.855,3.549v-9.62a6.475,6.475,0,0,1,1.925-4.747,3.259,3.259,0,0,1,2.176-.984Z" transform="translate(-1550.651 -2542.484)" fill="#81e3a5"/>
          <path id="Trazado_101190" data-name="Trazado 101190" d="M1569.984,2542.484a8.493,8.493,0,0,0-3.551,3.8l-15.782.141a5.036,5.036,0,0,1,3.876-3.937Z" transform="translate(-1550.426 -2542.484)" fill="#5dd782"/>
        </g>
      </g>
      <g id="Grupo_54155" data-name="Grupo 54155" transform="translate(71.944)">
        <g id="Grupo_54154" data-name="Grupo 54154">
          <path id="Trazado_101191" data-name="Trazado 101191" d="M1501.778,2460.1s-3.749,5.548-5.887,17.212c-1.873,10.215-3.515,13.986-6.22,16.081s-17.774,8.279-17.774,8.279l1.127,2.64s22.087-3.008,24.568-6.7,11.939-25.5,11.2-30.525S1501.778,2460.1,1501.778,2460.1Z" transform="translate(-1427.196 -2421.519)" fill="#e98c94"/>
          <path id="Trazado_101192" data-name="Trazado 101192" d="M1552.351,2581.941c.2,2.154-2.8,2.678-6.274,2.851s-2.423.884-7.183,1.746-6.668-.44-7.012-1.084c-.307-.57,1.906-1.463,4.265-2.471.3-.126.594-.256.891-.386,2.654-1.167,4.143-3.547,6.213-5.754,1.96-2.091,3.821-8.785,3.821-8.785l6.468-1.381s-1.816,6.025-2.446,8.6a7.965,7.965,0,0,0,.662,4.492A8.488,8.488,0,0,1,1552.351,2581.941Z" transform="translate(-1531.853 -2421.519)" fill="#e98c94"/>
          <path id="Trazado_101193" data-name="Trazado 101193" d="M1547.256,2584.792c-3.473.172-2.423.884-7.183,1.746s-6.668-.44-7.012-1.084c-.307-.57,1.906-1.463,4.265-2.471l.036.04a13.559,13.559,0,0,0,7.21.086c3.149-.855,6.194-2.737,8.363-3.344a8.488,8.488,0,0,1,.595,2.176C1553.729,2584.095,1550.73,2584.619,1547.256,2584.792Z" transform="translate(-1533.033 -2421.519)" fill="#3a3a5b"/>
          <path id="Trazado_101194" data-name="Trazado 101194" d="M1532.34,2505.237s-42.982-3.235-51.074,1.872-21.07,64.593-21.07,64.593a5.275,5.275,0,0,0,2.59.835,21.725,21.725,0,0,0,5.328-.8s18.651-26.616,19.965-33.321.993-12.688,3.984-12.848,40.283,4.533,45.923-5.4.978-19.774.978-19.774Z" transform="translate(-1447.43 -2421.519)" fill="#b2520b"/>
          <path id="Trazado_101195" data-name="Trazado 101195" d="M1535.9,2588.844c.2,2.154-2.8,2.678-6.273,2.851s-2.424.885-7.184,1.747-6.668-.441-7.012-1.084c-.307-.57,1.906-1.463,4.264-2.472.3-.125.594-.255.892-.385,2.654-1.167,4.143-3.548,6.213-5.755,1.96-2.09,3.821-8.784,3.821-8.784l6.468-1.381s-1.816,6.024-2.446,8.6a7.961,7.961,0,0,0,.662,4.491A8.457,8.457,0,0,1,1535.9,2588.844Z" transform="translate(-1498.959 -2421.519)" fill="#ffccbe"/>
          <path id="Trazado_101196" data-name="Trazado 101196" d="M1530.81,2591.7c-3.474.173-2.424.885-7.184,1.747s-6.668-.441-7.012-1.084c-.307-.57,1.906-1.463,4.264-2.472l.037.041a13.559,13.559,0,0,0,7.21.086c3.149-.855,6.194-2.737,8.363-3.345a8.457,8.457,0,0,1,.595,2.176C1537.282,2591,1534.283,2591.522,1530.81,2591.7Z" transform="translate(-1500.139 -2421.519)" fill="#3a3a5b"/>
          <path id="Trazado_101197" data-name="Trazado 101197" d="M1512.667,2507.9s-38.183,1.807-46.07,7.225-18.54,65.364-18.54,65.364a5.278,5.278,0,0,0,2.62.734,21.721,21.721,0,0,0,5.293-1.005s17.6-27.322,18.653-34.073.5-12.717,3.481-12.994,40.429,2.962,45.679-7.187S1512.667,2507.9,1512.667,2507.9Z" transform="translate(-1419.338 -2421.519)" fill="#e77c20"/>
          <path id="Trazado_101198" data-name="Trazado 101198" d="M1441.565,2423.878a9.9,9.9,0,0,1,5.28-1.38,2.5,2.5,0,0,0-1.163-.46,8.31,8.31,0,0,1,3.01.575c12.406-5.756,15.657,12.859,15.68,17.233s.327,9.389,6.943,12.872c13.019,6.852,3.362,20.974,3.362,20.974-.095.065-8.677,11.429-8.677,11.429.087-3.542-13.884-22.314-22.728-27.312-2.265-2.9-3.356-8.215-3.439-8.633.639,4.23,1.526,6.567,2.266,7.867C1434.484,2450.918,1437.074,2426.841,1441.565,2423.878Z" transform="translate(-1361.844 -2421.519)" fill="#9b5265"/>
          <path id="Trazado_101199" data-name="Trazado 101199" d="M1473.895,2453.707a43.079,43.079,0,0,0-7.111,0,22.884,22.884,0,0,0-6.172,1.549c-3.364,1.407-3.011,7.365,4.05,6.261S1474.39,2455.474,1473.895,2453.707Z" transform="translate(-1378.962 -2421.519)" fill="#ffb27d"/>
          <path id="Trazado_101200" data-name="Trazado 101200" d="M1459.189,2458.052c-.041.022-1.007,5.126,3.616,4.922,3.035-.134,9.581-3.807,9-6.406-.274-1.235-2.568-4.44-3.029-11.755l-.553.147-9.29,2.492s.412,2.949.6,5.739C1459.7,2455.534,1459.709,2457.766,1459.189,2458.052Z" transform="translate(-1377.241 -2421.519)" fill="#ffccbe"/>
          <path id="Trazado_101201" data-name="Trazado 101201" d="M1462.554,2447.452s.412,2.949.6,5.739c5.258-.5,7.723-5.491,8.686-8.231Z" transform="translate(-1380.858 -2421.519)" fill="#e98c94"/>
          <path id="Trazado_101202" data-name="Trazado 101202" d="M1475.789,2443.87a27.748,27.748,0,0,0,2.884-8.32c.3-2.7-1.719-12.475-11.544-10.392a13.51,13.51,0,0,0-5.448,2.485c-2.057,1.6-4.955,4.946-.906,13.328l1.1,2.849Z" transform="translate(-1383.899 -2421.519)" fill="#9b5265"/>
          <path id="Trazado_101203" data-name="Trazado 101203" d="M1466.564,2450.212s12.478-.625,11.969-8.39.758-13.075-7.23-13-9.341,3.135-9.8,5.768S1463.305,2450.175,1466.564,2450.212Z" transform="translate(-1386.452 -2421.519)" fill="#ffccbe"/>
          <path id="Trazado_101204" data-name="Trazado 101204" d="M1457.525,2429.006s4.02,8.882,9.348,9.88,7.505-.558,7.505-.558a14.861,14.861,0,0,1-5.435-8.439S1459.81,2424.5,1457.525,2429.006Z" transform="translate(-1378.364 -2421.519)" fill="#9b5265"/>
          <path id="Trazado_101205" data-name="Trazado 101205" d="M1479.507,2429.69s-2.413,2.2-2.9,4.221-.5,6.108-1.693,6.049c0,0-2.984-6.02-.328-9.715C1477.4,2426.327,1479.507,2429.69,1479.507,2429.69Z" transform="translate(-1399.451 -2421.519)" fill="#9b5265"/>
          <path id="Trazado_101206" data-name="Trazado 101206" d="M1446.522,2505.886c1.01,1.207,4.163,1.578,7.533,2.132a22.613,22.613,0,0,1,7.418,2.151c4.5,2.641,19.194,11.566,23.5,11.16,1.67-.157,1.357-3.345.346-7.575-1.593-6.68-4.926-15.957-4.926-19.99a117.076,117.076,0,0,0-1.71-13.367c-.08-.481-.161-.964-.242-1.453-1.935-11.581-4.615-25.236-4.615-25.236s-2.988,6.521-8.812,6.521-4.47-4.972-4.47-4.972-5.313.625-6.569,1.977-4.439,7.2-5.071,8.791c0,0-.129,2.028,4.893,2.994a65.933,65.933,0,0,0-1.368,9.176c-.108,2.712,1.85,11.2,2.413,16.476a9.733,9.733,0,0,1-.078,4c-.388.853-1.645,1.7-3.075,2.535C1448.853,2502.86,1445.324,2504.451,1446.522,2505.886Z" transform="translate(-1378.895 -2421.519)" fill="#4c4b73"/>
          <path id="Trazado_101207" data-name="Trazado 101207" d="M1446.829,2501.208c-3.223,5.495,8.742,7.148,10.723,8.311,4.5,2.641,18.253,12.216,22.561,11.81,1.67-.157,1.357-3.345.346-7.575-1.593-6.68-4.926-15.957-4.926-19.99a117.076,117.076,0,0,0-1.71-13.367l-5.185-4.979s-5.555,14.359-10.851,16.713a44.518,44.518,0,0,1-7.8,2.54,9.733,9.733,0,0,1-.078,4C1449.516,2499.526,1448.26,2500.375,1446.829,2501.208Z" transform="translate(-1374.034 -2421.519)" fill="#3a3a5b"/>
          <path id="Trazado_101208" data-name="Trazado 101208" d="M1475.126,2458.006s4.433-2.692,8.719,2.415-3.046,41.613-9.4,43.489c-7.055,2.083-27.434-.334-27.434-.334l.393-3.184s21.694-4.16,22.6-5.319S1472.872,2458.595,1475.126,2458.006Z" transform="translate(-1378.6 -2421.519)" fill="#ffccbe"/>
          <path id="Trazado_101209" data-name="Trazado 101209" d="M1445.954,2453.707s9.1.822,11.748,3.816,3.417,11.109,3.417,11.109-8.017,6.472-17.677,3.96Z" transform="translate(-1351.021 -2421.519)" fill="#4c4b73"/>
          <g id="Grupo_54153" data-name="Grupo 54153" transform="translate(10.83 61.424)">
            <rect id="Rectángulo_5415" data-name="Rectángulo 5415" width="16.311" height="1.927" transform="translate(44.538 22.269)" fill="#7398e6"/>
            <path id="Trazado_101210" data-name="Trazado 101210" d="M1542.71,2506.875c-.159-.638-14.994-23.932-14.994-23.932h-33.008l16.556,23.306Z" transform="translate(-1494.708 -2482.943)" fill="#7398e6"/>
            <path id="Trazado_101211" data-name="Trazado 101211" d="M1542.71,2507.139c-.159-.638-15.042-24.2-15.042-24.2H1496.1l15.751,24.2Z" transform="translate(-1496.097 -2482.943)" fill="#80b4ff"/>
            <path id="Trazado_101212" data-name="Trazado 101212" d="M1518.808,2495.849a2.637,2.637,0,0,0,2.3,1.709,1.177,1.177,0,0,0,1.12-1.709,2.636,2.636,0,0,0-2.3-1.709A1.178,1.178,0,0,0,1518.808,2495.849Z" transform="translate(-1498.324 -2482.943)" fill="#ecf1f9"/>
          </g>
          <path id="Trazado_101213" data-name="Trazado 101213" d="M1495.641,2500.2s-7.064-1.367-7.861-1.025-5.241,4.329-4.785,5.127,2.278,1.367,4.329.683,6.494-1.025,7.292-2.05A6.7,6.7,0,0,0,1495.641,2500.2Z" transform="translate(-1425.063 -2421.519)" fill="#ffccbe"/>
        </g>
      </g>
    </g>
  </g>
</svg>
