<svg xmlns="http://www.w3.org/2000/svg" width="190" height="173" viewBox="0 0 190 173">
  <g id="Grupo_54184" data-name="Grupo 54184" transform="translate(-285 -7764)">
    <g id="Grupo_54183" data-name="Grupo 54183" transform="translate(302 7764)">
      <g id="Grupo_54182" data-name="Grupo 54182" transform="translate(0 0)">
        <path id="Trazado_101281" data-name="Trazado 101281" d="M307.2,357.22h0a12.569,12.569,0,0,0,12.416,12.416h0a12.883,12.883,0,0,0,9.224-3.9l39.733-43.281a3.429,3.429,0,0,0,0-4.967l-9.224-9.224a3.429,3.429,0,0,0-4.967,0L311.1,348.351A12.091,12.091,0,0,0,307.2,357.22Z" transform="translate(-307.2 -213.543)" fill="#b06328"/>
        <rect id="Rect치ngulo_5469" data-name="Rect치ngulo 5469" width="9.933" height="14.899" transform="translate(60.328 102.79) rotate(-135)" fill="#b0c4d8"/>
        <path id="Trazado_101282" data-name="Trazado 101282" d="M284.593,291.689l-1.774,1.774-3.547-3.547,10.643-10.643,7.1,7.1-5.322,5.321h0A4.74,4.74,0,0,0,284.593,291.689Z" transform="translate(-226.058 -194.131)" fill="#99b4cd"/>
        <path id="Trazado_101283" data-name="Trazado 101283" d="M53.214,0A53.214,53.214,0,1,1,0,53.214,53.143,53.143,0,0,1,53.214,0Zm0,95.785A42.571,42.571,0,1,0,10.643,53.214,42.7,42.7,0,0,0,53.214,95.785Z" transform="translate(49.666 0)" fill="#c4d7e5"/>
        <circle id="Elipse_4075" data-name="Elipse 4075" cx="42.571" cy="42.571" r="42.571" transform="translate(60.309 10.643)" fill="#70b7e5"/>
        <path id="Trazado_101284" data-name="Trazado 101284" d="M101.882,106.991a30.11,30.11,0,0,0-25.9-25.9H75.63c-6.031-.709-6.386-9.224-.709-10.288a35.743,35.743,0,0,1,10.643-.355C99.4,72.58,110.4,83.577,112.171,97.058a26.685,26.685,0,0,1-.355,10.643c-1.064,6.031-9.578,5.322-10.288-.709C101.882,107.346,101.882,106.991,101.882,106.991Z" transform="translate(21.928 -48.811)" fill="#92c5eb"/>
        <path id="Trazado_101285" data-name="Trazado 101285" d="M105.861,81.028A42.7,42.7,0,0,0,63.29,38.457c-11,0-20.576,4.257-28.381,10.643A42.086,42.086,0,0,1,66.837,34.91a42.7,42.7,0,0,1,42.571,42.571,43.35,43.35,0,0,1-14.19,31.928C101.6,101.6,105.861,92.026,105.861,81.028Z" transform="translate(36.043 -24.267)" fill="#4c9cd6"/>
        <path id="Trazado_101286" data-name="Trazado 101286" d="M227.759,227.76h0a53.142,53.142,0,0,1-53.214-53.214h0a3.555,3.555,0,0,1,3.547,3.547,48.253,48.253,0,0,0,14.19,31.219,49.985,49.985,0,0,0,31.928,14.9A3.555,3.555,0,0,1,227.759,227.76Z" transform="translate(-124.879 -121.332)" fill="#b0c9db"/>
        <path id="Trazado_101287" data-name="Trazado 101287" d="M0,0H0A53.143,53.143,0,0,1,53.214,53.214h0a3.555,3.555,0,0,1-3.547-3.547A48.028,48.028,0,0,0,36.54,19.512,52.089,52.089,0,0,0,3.547,3.547,3.555,3.555,0,0,1,0,0Z" transform="translate(102.88 0)" fill="#e2e7f0"/>
        <path id="Trazado_101288" data-name="Trazado 101288" d="M316.975,373.477,319.1,371.7a12.4,12.4,0,0,0-2.838,7.8h0c0,4.612,5.676,6.385,8.869,3.193l37.249-37.25a5.144,5.144,0,0,1,7.45,0L373.382,349l-38.669,41.507a14.24,14.24,0,0,1-7.8,4.257,12.423,12.423,0,0,1-13.835-13.835C313.073,378.089,314.847,375.605,316.975,373.477Z" transform="translate(-312.718 -239.023)" fill="#a35425"/>
        <path id="Trazado_101289" data-name="Trazado 101289" d="M344.287,332.821a2.133,2.133,0,0,0,1.419-.355l8.869-8.869a1.756,1.756,0,0,0-2.483-2.483l-8.869,8.869a1.715,1.715,0,0,0,0,2.483C343.223,332.821,343.932,332.821,344.287,332.821Z" transform="translate(-303.49 -222.846)" fill="#c97629"/>
      </g>
    </g>
    <rect id="Rect치ngulo_5470" data-name="Rect치ngulo 5470" width="190" height="173" transform="translate(285 7764)" fill="none"/>
  </g>
</svg>
