<svg xmlns="http://www.w3.org/2000/svg" width="146" height="153.077" viewBox="0 0 146 153.077">
  <g id="Grupo_54090" data-name="Grupo 54090" transform="translate(-1776.098 -2194.301)">
    <circle id="Elipse_4069" data-name="Elipse 4069" cx="73" cy="73" r="73" transform="translate(1776.098 2201.378)" fill="#4fabf7"/>
    <path id="Trazado_101105" data-name="Trazado 101105" d="M1784.509,2308.393a73,73,0,0,0,129.179,0Z" fill="#007dbd"/>
    <g id="Flat">
      <path id="Trazado_101106" data-name="Trazado 101106" d="M1904.2,2210.878v105.675H1798.115V2210.878l53.041-12.433Z" fill="#e77c20"/>
      <path id="Trazado_101107" data-name="Trazado 101107" d="M1814.435,2233.67h73.442v82.883h-73.442Z" fill="#e3e4e2"/>
      <path id="Trazado_101108" data-name="Trazado 101108" d="M1904.2,2210.878v8.979l-53.042-13-53.041,13v-8.979l53.041-12.433Z" fill="#994616"/>
      <path id="Trazado_101109" data-name="Trazado 101109" d="M1855.236,2223.31h-8.16a4.112,4.112,0,0,1-4.08-4.144h0a4.112,4.112,0,0,1,4.08-4.144h8.16a4.112,4.112,0,0,1,4.08,4.144h0A4.112,4.112,0,0,1,1855.236,2223.31Z" fill="#b2b1b4"/>
      <path id="Trazado_101110" data-name="Trazado 101110" d="M1910.318,2208.806l-59.162-14.5-59.161,14.5v8.288l59.161-14.5,59.162,14.5Z" fill="#e3e4e2"/>
      <path id="Trazado_101111" data-name="Trazado 101111" d="M1814.435,2233.67h73.442V2268.9h-73.442Z" fill="#c9c9c8"/>
      <g id="Grupo_54124" data-name="Grupo 54124">
        <path id="Trazado_101112" data-name="Trazado 101112" d="M1814.435,2239.887h73.442v4.144h-73.442Z" fill="#b2b1b4"/>
        <path id="Trazado_101113" data-name="Trazado 101113" d="M1814.435,2248.175h73.442v4.144h-73.442Z" fill="#b2b1b4"/>
        <path id="Trazado_101114" data-name="Trazado 101114" d="M1814.435,2256.463h73.442v4.144h-73.442Z" fill="#b2b1b4"/>
        <path id="Trazado_101115" data-name="Trazado 101115" d="M1814.435,2264.751h73.442v4.144h-73.442Z" fill="#b2b1b4"/>
      </g>
      <path id="Trazado_101116" data-name="Trazado 101116" d="M1865.437,2316.553V2283.4h-36.721v-33.153h-36.721v66.306Z" fill="#f8bc1e"/>
      <path id="Trazado_101117" data-name="Trazado 101117" d="M1840.956,2283.4h12.24v12.432h-12.24Z" fill="#f9da62"/>
      <path id="Trazado_101118" data-name="Trazado 101118" d="M1865.437,2285.472h-3.06a3.084,3.084,0,0,0-3.061,3.108v5.259a16.373,16.373,0,0,1-16.242,16.5h-9.258a3.084,3.084,0,0,0-3.06,3.108v3.108h34.681Z" fill="#f5a922"/>
      <path id="Trazado_101119" data-name="Trazado 101119" d="M1855.236,2306.193h4.08v4.144h-4.08Z" fill="#f79726"/>
      <path id="Trazado_101120" data-name="Trazado 101120" d="M1804.235,2283.4h12.24v12.432h-12.24Z" fill="#f9da62"/>
      <path id="Trazado_101121" data-name="Trazado 101121" d="M1828.716,2285.472h-3.06a3.084,3.084,0,0,0-3.06,3.108v5.259a16.374,16.374,0,0,1-16.243,16.5h-9.258a3.084,3.084,0,0,0-3.06,3.108v3.108h34.681Z" fill="#f5a922"/>
      <path id="Trazado_101122" data-name="Trazado 101122" d="M1818.515,2306.193h4.081v4.144h-4.081Z" fill="#f79726"/>
      <path id="Trazado_101123" data-name="Trazado 101123" d="M1804.235,2250.247h12.24v12.432h-12.24Z" fill="#f9da62"/>
      <path id="Trazado_101124" data-name="Trazado 101124" d="M1828.716,2252.319h-3.06a3.084,3.084,0,0,0-3.06,3.108v5.259a16.374,16.374,0,0,1-16.243,16.5h-9.258a3.084,3.084,0,0,0-3.06,3.108v3.108h34.681Z" fill="#f5a922"/>
      <path id="Trazado_101125" data-name="Trazado 101125" d="M1818.515,2273.04h4.081v4.144h-4.081Z" fill="#f79726"/>
    </g>
  </g>
</svg>
