<svg xmlns="http://www.w3.org/2000/svg" width="295" height="160" viewBox="0 0 295 160">
  <g id="Grupo_53958" data-name="Grupo 53958" transform="translate(7578 10269)">
    <g id="Grupo_53937" data-name="Grupo 53937" transform="translate(0 -724)">
      <g id="Grupo_53884" data-name="Grupo 53884" transform="translate(-7753.778 -10043.232)">
        <rect id="Rectángulo_5270" data-name="Rectángulo 5270" width="295" height="160" transform="translate(175.778 498.233)" fill="#fcf0e5"/>
      </g>
    </g>
    <g id="Grupo_53938" data-name="Grupo 53938" transform="translate(-7753.611 -10767.399)">
      <rect id="Rectángulo_5284" data-name="Rectángulo 5284" width="53.792" height="18.085" rx="1.636" transform="translate(263.067 561.201)" fill="#ffa400"/>
      <path id="Trazado_100733" data-name="Trazado 100733" d="M344.519,575.133l.215.612H272.058a5.437,5.437,0,0,1-2.533-.612,5.139,5.139,0,0,1-.9-.564,6.648,6.648,0,0,1-.5-.45,5.562,5.562,0,0,1-.584-.686v-.007a5.738,5.738,0,0,1-.867-1.821,5.587,5.587,0,0,1-.182-1.424c0-.155.007-.3.021-.451a5.572,5.572,0,0,1,.127-.833,5.344,5.344,0,0,1,.41-1.142,5.552,5.552,0,0,1,5.013-3.145h72.676l-.356,1.015-.1.275a12.854,12.854,0,0,0-.5,1.855,11.2,11.2,0,0,0-.161,1.142c-.033.276-.047.551-.054.833a11.763,11.763,0,0,0,.068,1.875,12.776,12.776,0,0,0,.651,2.85l.041.114Z" fill="#fff"/>
      <path id="Trazado_100734" data-name="Trazado 100734" d="M343.78,567.753a11.188,11.188,0,0,0-.163,1.141h-76.98a5.394,5.394,0,0,1,.408-1.141Z" fill="#f4cab5" opacity="0.52" style="mix-blend-mode: multiply;isolation: isolate"/>
      <path id="Trazado_100735" data-name="Trazado 100735" d="M343.631,571.6h-76.96a5.521,5.521,0,0,1-.183-1.426c0-.15.007-.3.02-.448h77.055A11.524,11.524,0,0,0,343.631,571.6Z" fill="#f4cab5" opacity="0.52" style="mix-blend-mode: multiply;isolation: isolate"/>
      <path id="Trazado_100736" data-name="Trazado 100736" d="M268.627,574.565H344.65v.571H269.524Z" fill="#f4cab5" opacity="0.52" style="mix-blend-mode: multiply;isolation: isolate"/>
      <rect id="Rectángulo_5285" data-name="Rectángulo 5285" width="74.005" height="3.408" transform="translate(271.869 561.201)" fill="#ffa400"/>
      <rect id="Rectángulo_5286" data-name="Rectángulo 5286" width="74.005" height="3.408" transform="translate(271.869 575.746)" fill="#ffa400"/>
      <rect id="Rectángulo_5287" data-name="Rectángulo 5287" width="66.285" height="22.285" rx="1.636" transform="translate(244.533 579.123)" fill="#dd430b"/>
      <path id="Trazado_100737" data-name="Trazado 100737" d="M344.814,596.382l.262.752H255.527a6.822,6.822,0,0,1-3.125-.752,6.571,6.571,0,0,1-1.1-.706,6.164,6.164,0,0,1-.631-.551,6.866,6.866,0,0,1-1.781-3.1,6.768,6.768,0,0,1-.2-1.169,5.723,5.723,0,0,1-.027-.585c0-.188.014-.369.027-.558a7.458,7.458,0,0,1,.162-1.028,6.688,6.688,0,0,1,.5-1.4,6.867,6.867,0,0,1,6.182-3.878h89.549l-.275.793-.276.8a15.22,15.22,0,0,0-.618,2.285,12.548,12.548,0,0,0-.2,1.4c-.041.343-.061.686-.068,1.028a14.868,14.868,0,0,0,.081,2.312,15.961,15.961,0,0,0,.806,3.515l.047.134Z" fill="#fff"/>
      <path id="Trazado_100738" data-name="Trazado 100738" d="M343.991,587.2a13.362,13.362,0,0,0-.2,1.406H248.933a6.679,6.679,0,0,1,.5-1.406Z" fill="#f4cab5" opacity="0.52" style="mix-blend-mode: multiply;isolation: isolate"/>
      <path id="Trazado_100739" data-name="Trazado 100739" d="M343.807,591.942H248.974a6.823,6.823,0,0,1-.226-1.758c0-.184.009-.368.026-.552h94.95A14.167,14.167,0,0,0,343.807,591.942Z" fill="#f4cab5" opacity="0.52" style="mix-blend-mode: multiply;isolation: isolate"/>
      <path id="Trazado_100740" data-name="Trazado 100740" d="M251.106,595.591h93.678v.7H252.21Z" fill="#f4cab5" opacity="0.52" style="mix-blend-mode: multiply;isolation: isolate"/>
      <rect id="Rectángulo_5288" data-name="Rectángulo 5288" width="91.192" height="4.2" transform="translate(255.38 579.123)" fill="#dd430b"/>
      <rect id="Rectángulo_5289" data-name="Rectángulo 5289" width="91.192" height="4.2" transform="translate(255.38 597.134)" fill="#dd430b"/>
      <rect id="Rectángulo_5290" data-name="Rectángulo 5290" width="34.338" height="102.834" rx="0.86" transform="translate(348.144 527.705)" fill="#00437c"/>
      <path id="Trazado_100741" data-name="Trazado 100741" d="M417.046,628.207l-13.379,1.949-2.641.383a4.551,4.551,0,0,1-5.161-3.851l-13.5-92.748a4.46,4.46,0,0,1,.108-1.821,4.541,4.541,0,0,1,3.743-3.339l16.02-2.332a4.551,4.551,0,0,1,5.161,3.85l13.5,92.748A4.556,4.556,0,0,1,417.046,628.207Z" fill="#29b1fc"/>
      <rect id="Rectángulo_5291" data-name="Rectángulo 5291" width="22.014" height="32.768" rx="2.141" transform="translate(388.112 562.366) rotate(-8.282)" fill="#ffa400"/>
      <path id="Trazado_100742" data-name="Trazado 100742" d="M403.667,630.156l-2.641.383a4.551,4.551,0,0,1-5.161-3.851l-13.5-92.748a4.46,4.46,0,0,1,.108-1.821l.006.007Z" fill="#9590d1" opacity="0.31" style="mix-blend-mode: multiply;isolation: isolate"/>
      <rect id="Rectángulo_5292" data-name="Rectángulo 5292" width="39.945" height="6.355" rx="0.618" transform="translate(345.227 535.886)" fill="#ffa400"/>
      <rect id="Rectángulo_5293" data-name="Rectángulo 5293" width="39.945" height="6.355" rx="0.618" transform="translate(345.227 544.812)" fill="#ffa400"/>
      <rect id="Rectángulo_5294" data-name="Rectángulo 5294" width="13.606" height="48.033" rx="0.618" transform="translate(358.396 557.65)" fill="#29b1fc"/>
      <rect id="Rectángulo_5295" data-name="Rectángulo 5295" width="39.945" height="6.355" rx="0.618" transform="translate(345.227 610.881)" fill="#ffa400"/>
      <rect id="Rectángulo_5296" data-name="Rectángulo 5296" width="39.945" height="6.355" rx="0.618" transform="translate(345.227 619.59)" fill="#ffa400"/>
      <path id="Trazado_100743" data-name="Trazado 100743" d="M341.2,621.359l-1.028,5.262h8.1v3.6H240.106a14.49,14.49,0,0,1-7.291-27.013l.006-.007a14.389,14.389,0,0,1,7.285-1.962h108.17v3.608h-3.851Z" fill="#29b1fc"/>
      <path id="Trazado_100744" data-name="Trazado 100744" d="M348.276,601.24v.625H240.737A23.837,23.837,0,0,0,233.386,603c-.323.114-.518.188-.565.2a14.389,14.389,0,0,1,7.285-1.962Z" fill="#30b1c0"/>
      <path id="Trazado_100745" data-name="Trazado 100745" d="M343,604.848l-.424,4.019-1.854,17.754H240.4a10.85,10.85,0,0,1-7.7-3.186A10.216,10.216,0,0,1,231.5,622a10.752,10.752,0,0,1-1.99-6.263A10.888,10.888,0,0,1,240.4,604.848Z" fill="#00609e"/>
      <path id="Trazado_100746" data-name="Trazado 100746" d="M344.338,604.848l-.424,4.019-.262,2.526-1.592,15.228H240.307a10.878,10.878,0,0,1-4.388-.921c0-.013.007-.02.014-.034a27.556,27.556,0,0,0,2.258-8.446c.053-.491.08-.968.094-1.432a21.113,21.113,0,0,0-.189-3.682c-.067-.451-.147-.881-.235-1.291-.094-.436-.195-.853-.3-1.236a13.5,13.5,0,0,0-1.626-3.777l-.021-.026a10.638,10.638,0,0,1,3.925-.914c.181-.007.37-.014.558-.014Z" fill="#fff"/>
      <path id="Trazado_100747" data-name="Trazado 100747" d="M344.425,604.848,344,608.867H240.878a7.643,7.643,0,0,0-3.319.712,13.5,13.5,0,0,0-1.626-3.777,10.968,10.968,0,0,1,3.9-.94c.181-.007.37-.014.558-.014Z" fill="#f4cab5" opacity="0.52" style="mix-blend-mode: multiply;isolation: isolate"/>
      <path id="Trazado_100748" data-name="Trazado 100748" d="M343.652,611.393s-82.19.457-105.556.713c-.067-.451-.147-.881-.235-1.291Z" fill="#f4cab5" opacity="0.52" style="mix-blend-mode: multiply;isolation: isolate"/>
      <path id="Trazado_100749" data-name="Trazado 100749" d="M329.245,616.561l-91.054.659c.053-.491.08-.968.094-1.432Z" fill="#f4cab5" opacity="0.52" style="mix-blend-mode: multiply;isolation: isolate"/>
      <path id="Trazado_100750" data-name="Trazado 100750" d="M344.734,564.61l-.356,1.015c-13.763-.014-67.273-.068-72.508.006-5.9.094-4.395,7.52-4.334,7.8a5.738,5.738,0,0,1-.867-1.821,5.587,5.587,0,0,1-.182-1.424c0-.155.007-.3.021-.451a5.572,5.572,0,0,1,.127-.833,5.344,5.344,0,0,1,.41-1.142,5.552,5.552,0,0,1,5.013-3.145Z" fill="#ffa400"/>
      <path id="Trazado_100751" data-name="Trazado 100751" d="M345.076,583.405l-.275.793c-16.786.229-78.945,1.049-86.344,1.049-8.568,0-9.609,5.624-9.609,5.624l-.162-.013a5.723,5.723,0,0,1-.027-.585c0-.188.014-.369.027-.558a7.458,7.458,0,0,1,.162-1.028,6.688,6.688,0,0,1,.5-1.4,6.867,6.867,0,0,1,6.182-3.878Z" fill="#f4cab5" opacity="0.52" style="mix-blend-mode: multiply;isolation: isolate"/>
      <path id="Trazado_100752" data-name="Trazado 100752" d="M283.244,608.221l-3.675-2.632a1.364,1.364,0,0,0-1.588,0l-3.675,2.632a1.364,1.364,0,0,1-2.158-1.109V589.889a1.364,1.364,0,0,1,1.364-1.364h10.526a1.364,1.364,0,0,1,1.364,1.364v17.223A1.364,1.364,0,0,1,283.244,608.221Z" fill="#ffa400"/>
    </g>
  </g>
</svg>
