<svg xmlns="http://www.w3.org/2000/svg" width="295" height="160" viewBox="0 0 295 160">
  <g id="Grupo_53965" data-name="Grupo 53965" transform="translate(7584 8817)">
    <g id="Grupo_53953" data-name="Grupo 53953" transform="translate(0)">
      <g id="Grupo_53867" data-name="Grupo 53867" transform="translate(-7759.777 -9315.232)">
        <path id="Rectángulo_5270" data-name="Rectángulo 5270" d="M0,0H295V160H0Z" transform="translate(175.778 498.233)" fill="#fcf0e5"/>
      </g>
    </g>
    <g id="Grupo_53963" data-name="Grupo 53963" transform="translate(-7756.182 -9316.04)">
      <rect id="Rectángulo_5308" data-name="Rectángulo 5308" width="56.99" height="19.16" rx="1.733" transform="translate(279.865 563.582)" fill="#ffa400"/>
      <path id="Trazado_100816" data-name="Trazado 100816" d="M366.158,578.343l.228.647h-77a5.773,5.773,0,0,1-2.684-.647,5.6,5.6,0,0,1-.954-.6,7.062,7.062,0,0,1-.534-.477,6,6,0,0,1-.619-.727v-.007a6.084,6.084,0,0,1-.918-1.929,5.935,5.935,0,0,1-.193-1.509c0-.164.008-.321.022-.477a5.81,5.81,0,0,1,.135-.883,5.7,5.7,0,0,1,.434-1.21,5.884,5.884,0,0,1,5.311-3.332h77l-.378,1.075-.1.292a13.5,13.5,0,0,0-.534,1.965,11.147,11.147,0,0,0-.171,1.21c-.036.292-.05.584-.057.883a12.334,12.334,0,0,0,.071,1.986,13.543,13.543,0,0,0,.691,3.019l.042.121Z" fill="#fff"/>
      <path id="Trazado_100817" data-name="Trazado 100817" d="M365.376,570.524a11.424,11.424,0,0,0-.173,1.209H283.647a5.753,5.753,0,0,1,.432-1.209Z" fill="#f4cab5" opacity="0.52" style="mix-blend-mode: multiply;isolation: isolate"/>
      <path id="Trazado_100818" data-name="Trazado 100818" d="M365.217,574.6H283.683a5.86,5.86,0,0,1-.194-1.511c0-.159.007-.317.021-.475h81.635A12.332,12.332,0,0,0,365.217,574.6Z" fill="#f4cab5" opacity="0.52" style="mix-blend-mode: multiply;isolation: isolate"/>
      <path id="Trazado_100819" data-name="Trazado 100819" d="M285.756,577.741H366.3v.6H286.705Z" fill="#f4cab5" opacity="0.52" style="mix-blend-mode: multiply;isolation: isolate"/>
      <rect id="Rectángulo_5309" data-name="Rectángulo 5309" width="78.404" height="3.611" transform="translate(289.19 563.582)" fill="#ffa400"/>
      <rect id="Rectángulo_5310" data-name="Rectángulo 5310" width="78.404" height="3.611" transform="translate(289.19 578.992)" fill="#ffa400"/>
      <rect id="Rectángulo_5311" data-name="Rectángulo 5311" width="70.225" height="23.609" rx="1.733" transform="translate(260.229 582.569)" fill="#dd430b"/>
      <path id="Trazado_100820" data-name="Trazado 100820" d="M366.471,600.854l.278.8H271.877a7.223,7.223,0,0,1-3.311-.8,6.934,6.934,0,0,1-1.167-.748,6.437,6.437,0,0,1-.669-.583,7.281,7.281,0,0,1-1.887-3.282,7.182,7.182,0,0,1-.214-1.239,6.126,6.126,0,0,1-.028-.62c0-.2.014-.391.028-.59a8.005,8.005,0,0,1,.171-1.09,7.108,7.108,0,0,1,.527-1.488,7.278,7.278,0,0,1,6.55-4.108h94.872l-.292.841-.292.847a16.031,16.031,0,0,0-.655,2.42,13.394,13.394,0,0,0-.214,1.488c-.042.363-.064.726-.071,1.09a15.644,15.644,0,0,0,.086,2.449,16.884,16.884,0,0,0,.854,3.723l.05.142Z" fill="#fff"/>
      <path id="Trazado_100821" data-name="Trazado 100821" d="M365.6,591.123a14.671,14.671,0,0,0-.213,1.489H264.89a7.1,7.1,0,0,1,.532-1.489Z" fill="#f4cab5" opacity="0.52" style="mix-blend-mode: multiply;isolation: isolate"/>
      <path id="Trazado_100822" data-name="Trazado 100822" d="M365.4,596.15H264.935a7.18,7.18,0,0,1-.24-1.862q0-.293.027-.585H365.316A15.062,15.062,0,0,0,365.4,596.15Z" fill="#f4cab5" opacity="0.52" style="mix-blend-mode: multiply;isolation: isolate"/>
      <path id="Trazado_100823" data-name="Trazado 100823" d="M267.192,600.016h99.246v.745H268.363Z" fill="#f4cab5" opacity="0.52" style="mix-blend-mode: multiply;isolation: isolate"/>
      <rect id="Rectángulo_5312" data-name="Rectángulo 5312" width="96.613" height="4.45" transform="translate(271.721 582.569)" fill="#dd430b"/>
      <rect id="Rectángulo_5313" data-name="Rectángulo 5313" width="96.613" height="4.45" transform="translate(271.721 601.651)" fill="#dd430b"/>
      <path id="Trazado_100824" data-name="Trazado 100824" d="M362.642,627.316l-1.09,5.574h8.586v3.816h-114.6a15.352,15.352,0,0,1-7.725-28.619l.007-.007A15.239,15.239,0,0,1,255.539,606h114.6v3.823h-4.079Z" fill="#29b1fc"/>
      <path id="Trazado_100825" data-name="Trazado 100825" d="M370.138,606v.662H256.208a25.236,25.236,0,0,0-7.789,1.2c-.341.121-.548.2-.6.214A15.239,15.239,0,0,1,255.539,606Z" fill="#30b1c0"/>
      <path id="Trazado_100826" data-name="Trazado 100826" d="M364.546,609.824l-.448,4.257-1.965,18.809H255.845a11.494,11.494,0,0,1-8.152-3.374,10.859,10.859,0,0,1-1.274-1.524,11.394,11.394,0,0,1-2.107-6.635,11.534,11.534,0,0,1,11.533-11.533Z" fill="#00609e"/>
      <path id="Trazado_100827" data-name="Trazado 100827" d="M365.966,609.824l-.448,4.257-.278,2.677-1.687,16.132h-107.8a11.529,11.529,0,0,1-4.649-.975c0-.014.008-.021.015-.036a29.172,29.172,0,0,0,2.392-8.949c.057-.519.085-1.025.1-1.516a22.377,22.377,0,0,0-.2-3.9c-.071-.477-.157-.933-.249-1.367-.1-.463-.207-.9-.32-1.31a14.309,14.309,0,0,0-1.723-4l-.022-.029a11.3,11.3,0,0,1,4.158-.968c.192-.007.392-.014.591-.014Z" fill="#fff"/>
      <path id="Trazado_100828" data-name="Trazado 100828" d="M366.059,609.824l-.449,4.257H256.357a8.092,8.092,0,0,0-3.516.755,14.309,14.309,0,0,0-1.723-4,11.585,11.585,0,0,1,4.136-1c.192-.007.392-.014.591-.014Z" fill="#f4cab5" opacity="0.52" style="mix-blend-mode: multiply;isolation: isolate"/>
      <path id="Trazado_100829" data-name="Trazado 100829" d="M365.24,616.758s-87.076.484-111.83.755c-.071-.477-.157-.933-.249-1.367Z" fill="#f4cab5" opacity="0.52" style="mix-blend-mode: multiply;isolation: isolate"/>
      <path id="Trazado_100830" data-name="Trazado 100830" d="M349.976,622.233l-96.466.7c.057-.519.085-1.025.1-1.516Z" fill="#f4cab5" opacity="0.52" style="mix-blend-mode: multiply;isolation: isolate"/>
      <path id="Trazado_100831" data-name="Trazado 100831" d="M366.386,567.194l-.378,1.075c-14.58-.014-71.271-.071-76.817.007-6.251.1-4.656,7.966-4.592,8.258a6.084,6.084,0,0,1-.918-1.929,5.935,5.935,0,0,1-.193-1.509c0-.164.008-.321.022-.477a5.81,5.81,0,0,1,.135-.883,5.7,5.7,0,0,1,.434-1.21,5.884,5.884,0,0,1,5.311-3.332Z" fill="#ffa400"/>
      <path id="Trazado_100832" data-name="Trazado 100832" d="M366.749,587.106l-.292.841c-17.784.242-83.638,1.11-91.476,1.11-9.077,0-10.181,5.959-10.181,5.959l-.171-.014a6.126,6.126,0,0,1-.028-.62c0-.2.014-.391.028-.59a8.005,8.005,0,0,1,.171-1.09,7.108,7.108,0,0,1,.527-1.488,7.278,7.278,0,0,1,6.55-4.108Z" fill="#f4cab5" opacity="0.52" style="mix-blend-mode: multiply;isolation: isolate"/>
      <g id="Grupo_53962" data-name="Grupo 53962">
        <path id="Trazado_100833" data-name="Trazado 100833" d="M312.313,529.412v99.875l6.493-3.518,15.89-10.242-2.563-87.653Z" fill="#b73300"/>
        <rect id="Rectángulo_5314" data-name="Rectángulo 5314" width="56.385" height="16.745" rx="1.629" transform="translate(312.313 620.916)" fill="#b73300"/>
        <rect id="Rectángulo_5315" data-name="Rectángulo 5315" width="56.385" height="16.745" rx="1.629" transform="translate(312.313 521.04)" fill="#b73300"/>
        <path id="Trazado_100834" data-name="Trazado 100834" d="M397.442,632.6l.477,1.353H321.735a5.838,5.838,0,1,1,0-11.676h76.184l-.477,1.353a13.567,13.567,0,0,0-.712,5.66h.007a8.367,8.367,0,0,0,.128,1.025A12.755,12.755,0,0,0,397.442,632.6Z" fill="#fff"/>
        <rect id="Rectángulo_5316" data-name="Rectángulo 5316" width="77.572" height="100.468" transform="translate(321.54 521.04)" fill="#e77c20"/>
        <rect id="Rectángulo_5317" data-name="Rectángulo 5317" width="77.572" height="3.573" transform="translate(321.54 618.704)" fill="#b73300"/>
        <rect id="Rectángulo_5318" data-name="Rectángulo 5318" width="77.572" height="3.573" transform="translate(321.54 633.95)" fill="#b73300"/>
        <rect id="Rectángulo_5319" data-name="Rectángulo 5319" width="64.928" height="11.277" rx="1.097" transform="translate(327.007 546.639)" fill="#ffa400"/>
        <rect id="Rectángulo_5320" data-name="Rectángulo 5320" width="11.277" height="11.277" rx="1.097" transform="translate(353.833 527.875)" fill="#fcba9f"/>
        <rect id="Rectángulo_5321" data-name="Rectángulo 5321" width="55.872" height="7.347" rx="0.715" transform="translate(331.535 562.016)" fill="#fcba9f"/>
        <g id="Grupo_53961" data-name="Grupo 53961">
          <path id="Trazado_100835" data-name="Trazado 100835" d="M321.735,622.275a5.837,5.837,0,0,0-5.838,5.838,8.787,8.787,0,0,1,1-1.1l71.316-1.815-70.158.864a8.173,8.173,0,0,1,4.725-1.59c4.264,0,74.66-.84,74.66-.84l.477-1.353Z" fill="#f4cab5" opacity="0.52" style="mix-blend-mode: multiply;isolation: isolate"/>
          <path id="Trazado_100836" data-name="Trazado 100836" d="M396.73,629.288,349.1,631.295l47.763-.982a8.367,8.367,0,0,1-.128-1.025Z" fill="#f4cab5" opacity="0.52" style="mix-blend-mode: multiply;isolation: isolate"/>
        </g>
      </g>
    </g>
  </g>
</svg>
