<svg xmlns="http://www.w3.org/2000/svg" width="235.199" height="182.757" viewBox="0 0 235.199 182.757">
  <g id="Grupo_53776" data-name="Grupo 53776" transform="translate(-421.926 -3412.538)">
    <path id="Trazado_100528" data-name="Trazado 100528" d="M544.33,3485.879c2.25,7.844,5.091,26.051,5.727,42.364h-7.679s-5.03-32.381-9.516-40.941C532.862,3487.3,542.073,3478.036,544.33,3485.879Z" transform="translate(27.759 17.563)" fill="#f7a991"/>
    <path id="Trazado_100529" data-name="Trazado 100529" d="M490.178,3484.1c-2.25,7.843-5.09,26.051-5.726,42.364h7.679s5.028-32.381,9.516-40.941C501.646,3485.523,492.435,3476.258,490.178,3484.1Z" transform="translate(15.646 17.118)" fill="#f7a991"/>
    <path id="Trazado_100530" data-name="Trazado 100530" d="M489.309,3486.711c-1.1,7.765-3.769,18.413-4.118,29.413-.04,1.263,2.044,1.271,1.972,0-.554-9.684,2.207-19.45,4.048-28.889C491.452,3486,489.487,3485.455,489.309,3486.711Z" transform="translate(15.831 18.381)" fill="#f7a991"/>
    <path id="Trazado_100531" data-name="Trazado 100531" d="M494.127,3510.614h-9.752v9.6s-1.452,12.234,2.25,13.855,5.27,2.459,6.195-.086c.323-.885-.656-5.78-.35-7.1.575-2.466,1.271-1.929,1.271-1.929s0,4.251,2.082,3.037c3.3-1.927-1.75-10.79-1.75-10.79Z" transform="translate(15.556 24.541)" fill="#eb6c3d"/>
    <path id="Trazado_100532" data-name="Trazado 100532" d="M487.435,3531.849c-1.19-.54-1.358-4.214-1.442-5.31a20.65,20.65,0,0,1,.58-5.03,73.066,73.066,0,0,0,.364-9.617.986.986,0,0,0-1.972,0l-.182,6.594c-.06,2.137-.268,3.526-.39,5.635a26.166,26.166,0,0,0,.358,6.357c.266,1.24.81,2.672,1.689,3.072C487.588,3534.073,488.592,3532.373,487.435,3531.849Z" transform="translate(15.617 24.623)" fill="#ea7e54"/>
    <path id="Trazado_100533" data-name="Trazado 100533" d="M539.512,3512.394h9.752v9.6s1.452,12.235-2.25,13.855-5.27,2.458-6.195-.088c-.321-.885.656-5.78.35-7.1-.575-2.466-1.27-1.929-1.27-1.929s0,4.25-2.083,3.037c-3.3-1.927,1.75-10.788,1.75-10.788Z" transform="translate(28.718 24.987)" fill="#eb6c3d"/>
    <path id="Trazado_100534" data-name="Trazado 100534" d="M510.193,3456.578s-.259,7.9-.518,10.488,2.394,9.1,7.319,9.211c7,.16,8.864-10.119,8.346-11.154s-.646-8.8-.646-8.8S512.782,3453.214,510.193,3456.578Z" transform="translate(21.953 10.628)" fill="#e3967b"/>
    <g id="Grupo_53781" data-name="Grupo 53781" transform="translate(525.711 3442.205)">
      <g id="Grupo_53777" data-name="Grupo 53777" transform="translate(22.759 14.573)">
        <path id="Trazado_100535" data-name="Trazado 100535" d="M524.307,3450.086s1.375-3.875,3.278-1.25-3.159,6.021-3.159,6.021a2.941,2.941,0,0,1-.119-4.771Z" transform="translate(-523.143 -3447.924)" fill="#f7a991"/>
        <path id="Trazado_100536" data-name="Trazado 100536" d="M524.467,3451.088c-.037.136.85-2.375,1.743-1.923s.446,1.61.446,1.61.805-1.744-.134-2.1S524.959,3449.3,524.467,3451.088Z" transform="translate(-522.812 -3447.754)" fill="#d0785c"/>
        <path id="Trazado_100537" data-name="Trazado 100537" d="M524.6,3450.886s.418-.388.6-.15a1.367,1.367,0,0,1,.03,1.283c-.238.417-.446.535-.506.386s-.178-.625,0-.655.448-.446.269-.506-.269.09-.358.06S524.387,3451,524.6,3450.886Z" transform="translate(-522.806 -3447.239)" fill="#d0785c"/>
      </g>
      <g id="Grupo_53778" data-name="Grupo 53778" transform="translate(0 14.573)">
        <path id="Trazado_100538" data-name="Trazado 100538" d="M508.645,3450.086s-1.375-3.875-3.278-1.25,3.159,6.021,3.159,6.021a2.941,2.941,0,0,0,.119-4.771Z" transform="translate(-504.939 -3447.924)" fill="#f7a991"/>
        <path id="Trazado_100539" data-name="Trazado 100539" d="M508.012,3451.088c.037.136-.85-2.375-1.743-1.923s-.448,1.61-.448,1.61-.805-1.744.135-2.1S507.52,3449.3,508.012,3451.088Z" transform="translate(-504.798 -3447.754)" fill="#d0785c"/>
        <path id="Trazado_100540" data-name="Trazado 100540" d="M507.556,3450.886s-.418-.388-.6-.15a1.374,1.374,0,0,0-.03,1.283c.239.417.448.535.506.386s.179-.625,0-.655-.446-.446-.268-.506.268.09.358.06S507.764,3451,507.556,3450.886Z" transform="translate(-504.477 -3447.239)" fill="#d0785c"/>
      </g>
      <ellipse id="Elipse_4055" data-name="Elipse 4055" cx="11.063" cy="16.105" rx="11.063" ry="16.105" transform="translate(2.751)" fill="#f7a991"/>
      <path id="Trazado_100541" data-name="Trazado 100541" d="M525.521,3446.787a11.984,11.984,0,0,1-.136,2.677c-.238,1.125-.708,3.843-.708,3.843l-.31-.868-.5-6.016S524.291,3445.628,525.521,3446.787Z" transform="translate(-500.203 -3433.792)" fill="#624034"/>
      <path id="Trazado_100542" data-name="Trazado 100542" d="M506.79,3446.787a12.064,12.064,0,0,0,.138,2.677c.238,1.125.708,3.843.708,3.843l.31-.868.5-6.016S508.022,3445.628,506.79,3446.787Z" transform="translate(-504.481 -3433.792)" fill="#624034"/>
      <path id="Trazado_100543" data-name="Trazado 100543" d="M516.067,3448.234c-.469-.125-1.71,4.289-1.819,6.412-.024.476.564.527.676.883.485,1.539,1.743,1.3,2.342.53a1.537,1.537,0,0,0,.308-.68c.046-.272,1.116-.534,1.023-1.061C518.255,3452.408,516.537,3448.365,516.067,3448.234Z" transform="translate(-502.61 -3433.273)" fill="#e78263"/>
      <g id="Grupo_53779" data-name="Grupo 53779" transform="translate(15.83 15.019)">
        <circle id="Elipse_4056" data-name="Elipse 4056" cx="2.612" cy="2.612" r="2.612" fill="#fff"/>
        <circle id="Elipse_4057" data-name="Elipse 4057" cx="0.869" cy="0.869" r="0.869" transform="translate(1.744 1.892)" fill="#2b97d3"/>
        <path id="Trazado_100544" data-name="Trazado 100544" d="M520.238,3450.58a.458.458,0,1,1-.458-.458h0a.456.456,0,0,1,.458.455Z" transform="translate(-517.169 -3447.819)" fill="#185678"/>
        <path id="Trazado_100545" data-name="Trazado 100545" d="M520.43,3450.236a.343.343,0,1,1-.343-.344.341.341,0,0,1,.343.344Z" transform="translate(-517.064 -3447.877)" fill="#fff"/>
      </g>
      <path id="Trazado_100546" data-name="Trazado 100546" d="M517.482,3449.354c.6.153,3.716-.875,5.936-.17,0,0,.773-.25.64-.71s-5.206-1.4-6.446-.776S516.886,3449.2,517.482,3449.354Z" transform="translate(-501.958 -3433.458)" fill="#624034"/>
      <g id="Grupo_53780" data-name="Grupo 53780" transform="translate(6.575 15.019)">
        <circle id="Elipse_4058" data-name="Elipse 4058" cx="2.612" cy="2.612" r="2.612" fill="#fff"/>
        <circle id="Elipse_4059" data-name="Elipse 4059" cx="0.869" cy="0.869" r="0.869" transform="translate(1.743 1.892)" fill="#2b97d3"/>
        <path id="Trazado_100547" data-name="Trazado 100547" d="M512.836,3450.58a.458.458,0,1,1-.458-.458h0a.457.457,0,0,1,.456.457Z" transform="translate(-509.767 -3447.819)" fill="#185678"/>
        <path id="Trazado_100548" data-name="Trazado 100548" d="M513.029,3450.236a.344.344,0,1,1-.344-.344h0A.344.344,0,0,1,513.029,3450.236Z" transform="translate(-509.662 -3447.877)" fill="#fff"/>
      </g>
      <path id="Trazado_100549" data-name="Trazado 100549" d="M515.939,3449.354c-.6.153-3.716-.875-5.936-.17,0,0-.773-.25-.64-.71s5.206-1.4,6.445-.776S516.536,3449.2,515.939,3449.354Z" transform="translate(-503.836 -3433.458)" fill="#624034"/>
    </g>
    <path id="Trazado_100550" data-name="Trazado 100550" d="M529.114,3450.521c.159-1.006,0-.72,0-.72a7.637,7.637,0,0,1-5.193,6.251,6.627,6.627,0,0,0-11.461,0,7.638,7.638,0,0,1-5.193-6.251s-.159-.286,0,.72c.154.968-.269,4.192,4.91,6.134a11.277,11.277,0,0,0-.07,4.4,11.826,11.826,0,0,1-4.147-6.066,14.639,14.639,0,0,0,.813,2.514c.5,1.1,2.033,3.808,3.538,4.49a.265.265,0,0,0,.019.067c.441,1.45,1.513,3.088,5.86,3.088s5.42-1.639,5.861-3.088l.019-.067c1.5-.682,3.037-3.386,3.538-4.49a14.538,14.538,0,0,0,.814-2.514,11.826,11.826,0,0,1-4.147,6.066,11.229,11.229,0,0,0-.07-4.4C529.383,3454.711,528.96,3451.488,529.114,3450.521Z" transform="translate(21.337 9.315)" fill="#fff"/>
    <g id="Grupo_53782" data-name="Grupo 53782" transform="translate(528.158 3456.108)">
      <path id="Trazado_100551" data-name="Trazado 100551" d="M518.155,3447.736s-10.967.285-10.824,1.5.36,4.947,1.173,5.376a19.323,19.323,0,0,0,6.306.836c1.109-.165,1.507-1.427,2.048-2.678s.5-1.555,1.3-1.555.759.3,1.3,1.555.939,2.512,2.048,2.678a19.323,19.323,0,0,0,6.306-.836c.813-.427,1.03-4.162,1.173-5.376S518.155,3447.736,518.155,3447.736Z" transform="translate(-506.788 -3447.301)" fill="#54c2e1" opacity="0.5" style="isolation: isolate"/>
      <path id="Trazado_100552" data-name="Trazado 100552" d="M529.619,3448.487c-.057-.284-.53-.322-.53-.322-3.392-.473-9.651-.777-10.827-.777s-7.434.3-10.826.777c0,0-.473.039-.53.322a1.821,1.821,0,0,0,.228,1.084,3.257,3.257,0,0,0,1.114,0c.375-.038.479-.625.725-.589s3.886-.514,7.3-.665c0,0-.02.085.569.194a12.424,12.424,0,0,0,2.844,0c.586-.109.569-.194.569-.194,3.413.151,7.051.7,7.3.665s.347.55.725.589a3.25,3.25,0,0,0,1.113,0A1.812,1.812,0,0,0,529.619,3448.487Z" transform="translate(-506.896 -3447.388)" fill="#1f303b"/>
    </g>
    <g id="Grupo_53783" data-name="Grupo 53783" transform="translate(549.738 3455.275)">
      <path id="Trazado_100553" data-name="Trazado 100553" d="M525.428,3446.934l-1.25,9.621s5.126-.356,5.133-4.986S525.428,3446.934,525.428,3446.934Z" transform="translate(-524.152 -3446.668)" fill="#ed443d"/>
      <path id="Trazado_100554" data-name="Trazado 100554" d="M524.177,3456.608s-.2.317.653,0,1.79-9.182,1.768-9.4-1.059-.846-1.164-.225A85.605,85.605,0,0,0,524.177,3456.608Z" transform="translate(-524.157 -3446.721)" fill="#1a4057"/>
    </g>
    <g id="Grupo_53784" data-name="Grupo 53784" transform="translate(524.155 3455.275)">
      <path id="Trazado_100555" data-name="Trazado 100555" d="M507.577,3446.934l1.25,9.621s-5.126-.356-5.133-4.986S507.577,3446.934,507.577,3446.934Z" transform="translate(-503.694 -3446.668)" fill="#ed443d"/>
      <path id="Trazado_100556" data-name="Trazado 100556" d="M508.29,3456.608s.2.317-.653,0-1.79-9.182-1.768-9.4,1.059-.846,1.164-.225A85.591,85.591,0,0,1,508.29,3456.608Z" transform="translate(-503.15 -3446.721)" fill="#1a4057"/>
    </g>
    <g id="Grupo_53785" data-name="Grupo 53785" transform="translate(525.986 3437.836)">
      <path id="Trazado_100557" data-name="Trazado 100557" d="M532.2,3448.006c-.089-.208-1.066-.415-1.066-.415-.444-10.261-6.574-12.941-6.574-12.941a1.149,1.149,0,0,0-.089-.414,2.932,2.932,0,0,0-1.214-.711,1.718,1.718,0,0,0-.625.125,11.52,11.52,0,0,0-2.607-.444s-.088-.311-.266-.355a10.689,10.689,0,0,0-1.066-.078c-.156.008-.971.054-1.065.078-.177.044-.268.355-.268.355a11.509,11.509,0,0,0-2.605.444,1.713,1.713,0,0,0-.625-.125,2.949,2.949,0,0,0-1.214.711,1.175,1.175,0,0,0-.088.414s-6.126,2.681-6.575,12.941c0,0-.976.208-1.065.415a10.955,10.955,0,0,0,.03,1.984c.029.118.5.327.5.327,1.6.7,9.092-.06,12.97,0,3.876-.06,11.377.7,12.971,0,0,0,.474-.208.5-.327A10.957,10.957,0,0,0,532.2,3448.006Z" transform="translate(-505.159 -3432.772)" fill="#ecc33c"/>
      <path id="Trazado_100558" data-name="Trazado 100558" d="M511.715,3435.13c-3.1,1.923-4.069,5.447-5.185,8.707-.411,1.2,1.492,1.72,1.9.525.929-2.716,1.674-5.914,4.28-7.53C513.784,3436.164,512.8,3434.458,511.715,3435.13Z" transform="translate(-504.83 -3432.221)" fill="#edda9e"/>
      <path id="Trazado_100559" data-name="Trazado 100559" d="M532.158,3446.956c-.03.125-.5.325-.5.325-1.6.7-9.092-.059-12.971,0-3.876-.059-11.377.7-12.971,0,0,0-.474-.206-.5-.325a12.547,12.547,0,0,1,4.126-1.354,66.7,66.7,0,0,1,18.7,0A12.516,12.516,0,0,1,532.158,3446.956Z" transform="translate(-505.145 -3429.738)" fill="#ecb437"/>
      <path id="Trazado_100560" data-name="Trazado 100560" d="M532.158,3446.587c-.03.125-.5.325-.5.325-1.6.7-9.092-.059-12.971,0-3.876-.059-11.377.7-12.971,0,0,0-.474-.206-.5-.325l.171-.1a17.772,17.772,0,0,0,4.863.236c2.31-.112,4.688-.35,8.44-.35s6.126.238,8.44.35a17.76,17.76,0,0,0,4.862-.236Z" transform="translate(-505.145 -3429.37)" fill="#ecc33c"/>
      <path id="Trazado_100561" data-name="Trazado 100561" d="M521.072,3434.39a18.423,18.423,0,0,0-1.422,3.968c-.266,1.625-.375,8.884-.375,8.884a70.814,70.814,0,0,1,0-9.328,17.85,17.85,0,0,1,1.557-4.1h0a.524.524,0,0,1,.153.161A1.179,1.179,0,0,1,521.072,3434.39Z" transform="translate(-501.665 -3432.512)" fill="#dc9d27"/>
      <path id="Trazado_100562" data-name="Trazado 100562" d="M519.744,3433.378s-.805.558-1.227,5.534c0,0-.274-3.776.784-5.42A2.38,2.38,0,0,1,519.744,3433.378Z" transform="translate(-501.824 -3432.621)" fill="#edda9e"/>
      <path id="Trazado_100563" data-name="Trazado 100563" d="M517.158,3433.186l-.513,4.975a50.267,50.267,0,0,1,.25-5.331C517.069,3432.879,517.158,3433.186,517.158,3433.186Z" transform="translate(-502.285 -3432.758)" fill="#dc9d27"/>
      <path id="Trazado_100564" data-name="Trazado 100564" d="M511.3,3434.39a18.42,18.42,0,0,1,1.421,3.968c.266,1.625.375,8.884.375,8.884a70.793,70.793,0,0,0,0-9.328,17.791,17.791,0,0,0-1.557-4.1h0a.539.539,0,0,0-.152.161A1.179,1.179,0,0,0,511.3,3434.39Z" transform="translate(-503.623 -3432.512)" fill="#dc9d27"/>
      <path id="Trazado_100565" data-name="Trazado 100565" d="M512.485,3433.378s.805.558,1.227,5.534c0,0,.274-3.776-.784-5.42A2.284,2.284,0,0,0,512.485,3433.378Z" transform="translate(-503.326 -3432.621)" fill="#edda9e"/>
      <path id="Trazado_100566" data-name="Trazado 100566" d="M514.923,3433.186l.511,4.975a49.6,49.6,0,0,0-.25-5.331C515.012,3432.879,514.923,3433.186,514.923,3433.186Z" transform="translate(-502.716 -3432.758)" fill="#dc9d27"/>
      <path id="Trazado_100567" data-name="Trazado 100567" d="M524.112,3443.627l-.644-.688a6.559,6.559,0,0,1,1.888.343c.25.234.733.767.733.767l-1.422.223Z" transform="translate(-500.578 -3430.229)" fill="#edd68b"/>
      <path id="Trazado_100568" data-name="Trazado 100568" d="M523.468,3442.938v3.154l.644.375.355-1.765-.355-1.078Z" transform="translate(-500.578 -3430.229)" fill="#e4ba30"/>
      <path id="Trazado_100569" data-name="Trazado 100569" d="M523.983,3443.488a7.732,7.732,0,0,1,1.977.421,12.539,12.539,0,0,1,0,2.888,14.247,14.247,0,0,1-1.977-.466Z" transform="translate(-500.449 -3430.091)" fill="#dca627"/>
      <path id="Trazado_100570" data-name="Trazado 100570" d="M508.387,3443.627l.644-.688a6.559,6.559,0,0,0-1.888.343c-.25.234-.733.767-.733.767l1.42.223Z" transform="translate(-504.846 -3430.229)" fill="#edd68b"/>
      <path id="Trazado_100571" data-name="Trazado 100571" d="M508.71,3442.938v3.154l-.644.375-.355-1.765.355-1.078Z" transform="translate(-504.52 -3430.229)" fill="#e4ba30"/>
      <path id="Trazado_100572" data-name="Trazado 100572" d="M508.406,3443.488a7.742,7.742,0,0,0-1.977.421,12.539,12.539,0,0,0,0,2.888,14.207,14.207,0,0,0,1.977-.466Z" transform="translate(-504.862 -3430.091)" fill="#dca627"/>
    </g>
    <g id="Grupo_53790" data-name="Grupo 53790" transform="translate(503.701 3473.031)">
      <path id="Trazado_100580" data-name="Trazado 100580" d="M548.405,3472.362l-.025.019-.01-.019c-.814-1.084-11.233-6.316-15.679-8.517a12.758,12.758,0,0,0-2.159-2.439l-4.957,4.277-2.633,4.338-1.833-4.554-5.592-4.542a13.57,13.57,0,0,0-1.5,2.463c-3.876,1.115-14.638,4.354-16.878,6.537h0l-.031.038a1.415,1.415,0,0,0-.35.5c-1.964,3.533-7.706,14.938-9.423,21.514l12.173,2.646c.164,1.834.1,4.976.25,6.637a96.206,96.206,0,0,1,.108,13.221c0,3.279,1.9,16.745,1.9,16.745a158.877,158.877,0,0,0,20.024,2.417c10.358.519,21.924-2.762,21.924-2.762s.6-27.505.855-33.792l13.285-2.888C555.765,3486.218,548.405,3472.362,548.405,3472.362Z" transform="translate(-487.334 -3460.924)" fill="#1a4057"/>
      <g id="Grupo_53789" data-name="Grupo 53789" transform="translate(26.711)">
        <path id="Trazado_100581" data-name="Trazado 100581" d="M515.8,3465.469l-2.849,5.653-4.251-7.734a13.779,13.779,0,0,1,1.5-2.464Z" transform="translate(-508.699 -3460.924)" fill="#317199"/>
        <path id="Trazado_100582" data-name="Trazado 100582" d="M525.067,3463.751l-3.376,7.52-3.738-5.684,4.957-4.275A12.791,12.791,0,0,1,525.067,3463.751Z" transform="translate(-506.383 -3460.827)" fill="#317199"/>
      </g>
      <path id="Trazado_100583" data-name="Trazado 100583" d="M499.062,3467.7c-3.082,1.593-4.99,7.148-6.251,10.19-1.875,4.516-2.929,6.443-4.7,11-.459,1.184,1.97,2.067,2.425.9,1.489-3.839,2.155-6.647,3.722-10.457,1.289-3.132,2.452-7.969,5.68-9.637C501.063,3469.116,500.188,3467.123,499.062,3467.7Z" transform="translate(-487.153 -3459.254)" fill="#1a4057"/>
      <path id="Trazado_100584" data-name="Trazado 100584" d="M542.3,3501.583c-.689,17.265.694,26.61-.464,28.114s-4.049,1.5-9.949,1.852a27,27,0,0,1-9.986-1.155l-2.03-3.676s-.8,1.993-5.425,3.906c-6.711,2.775-15.011.954-15.965-.174s-1.108-13.228-1.108-16.456a81.369,81.369,0,0,0-.107-11.138,15.233,15.233,0,0,0,1.194-6.033c-.1-2.463.181-21.5.125-29.547a133.029,133.029,0,0,1,12.979-4.376c.465-1.118,8.927,27.113,8.927,27.113s2.626-8.351,5.166-15.713a60.8,60.8,0,0,1,4.81-10.829c2.681,1.329,7.275,3.632,10.767,5.522-.031.343-1.579,21.327,0,27.83C541.782,3499.082,542.3,3501.57,542.3,3501.583Z" transform="translate(-484.848 -3460.438)" fill="#eb6c3d"/>
      <path id="Trazado_100585" data-name="Trazado 100585" d="M516.894,3489.927s-5.566,14.4-5.24,21.345,4.1,16.294,6.652,19.035a3.329,3.329,0,0,0,.918.413,1.429,1.429,0,0,0,.676.029s-6.707-8.717-7.314-18.608c-.459-7.488,7.058-27.855,9-33.321s6-15.187,6-15.187a.738.738,0,0,0-.94-.36C526.037,3463.547,517.943,3483.642,516.894,3489.927Z" transform="translate(-481.252 -3460.35)" fill="#1f303b"/>
      <path id="Trazado_100586" data-name="Trazado 100586" d="M525.123,3463.906s-.81,28.613-.81,38.216.81,29.155.81,29.155a20.665,20.665,0,0,0,5.206-.348s-.48-27.068-.578-33.784c-.115-7.866.463-30.691.463-30.691A50.811,50.811,0,0,0,525.123,3463.906Z" transform="translate(-478.081 -3460.178)" fill="#ecc33c"/>
      <path id="Trazado_100587" data-name="Trazado 100587" d="M507.367,3463.551s.781,29.069.781,38.672-.231,29.676-.231,29.676a22.005,22.005,0,0,1-5.322,0s.018-27.937.116-34.65c.115-7.868-.724-31.962-.724-31.962S506.21,3463.9,507.367,3463.551Z" transform="translate(-483.667 -3460.267)" fill="#ecc33c"/>
      <path id="Trazado_100588" data-name="Trazado 100588" d="M535.235,3499.119s.535,7.839-.115,9.964a30.294,30.294,0,0,1-6.161.478c-1.822-.26-2.25-2-2.691-3.341a26.442,26.442,0,0,1-.125-6.855,3.9,3.9,0,0,1,2.6-1.215C529.436,3498.238,533.789,3498.265,535.235,3499.119Z" transform="translate(-477.664 -3451.609)" fill="#eb6c3d"/>
      <path id="Trazado_100589" data-name="Trazado 100589" d="M526.027,3501.561a39.048,39.048,0,0,1,9.487-.289s.405,3.587-.059,4.107a68.838,68.838,0,0,0-9.2.1S525.969,3502.254,526.027,3501.561Z" transform="translate(-477.654 -3450.869)" fill="#ecc33c"/>
      <path id="Trazado_100590" data-name="Trazado 100590" d="M504.717,3501.8a192.2,192.2,0,0,1,26.841-.057v2.6s-16.2-.81-27.189.231C504.369,3504.577,503.675,3502.148,504.717,3501.8Z" transform="translate(-483.128 -3450.82)" fill="#1f303b"/>
      <path id="Trazado_100591" data-name="Trazado 100591" d="M534.745,3498.392s-7.635-1.5-8.677.346-.115,9.719,1.273,10.761,7.868,0,7.868,0,.346-.75,0-.75-5.727,1.273-7.231.116-1.388-8.446-1.273-9.252,1.735-.867,2.661-.867,5.959.75,5.959.462A1.043,1.043,0,0,0,534.745,3498.392Z" transform="translate(-477.753 -3451.692)" fill="#1f303b"/>
      <path id="Trazado_100592" data-name="Trazado 100592" d="M496.86,3499.408s-.091,7.856.679,9.943a30.32,30.32,0,0,0,6.179.125c1.8-.363,2.14-2.126,2.5-3.487a26.364,26.364,0,0,0-.258-6.851,3.886,3.886,0,0,0-2.668-1.066C502.6,3498.2,498.256,3498.474,496.86,3499.408Z" transform="translate(-484.951 -3451.629)" fill="#eb6c3d"/>
      <path id="Trazado_100593" data-name="Trazado 100593" d="M506.251,3501.3a39.065,39.065,0,0,0-9.489.25s-.2,3.6.29,4.1a69.018,69.018,0,0,1,9.189-.417S506.353,3501.991,506.251,3501.3Z" transform="translate(-484.985 -3450.865)" fill="#ecc33c"/>
      <path id="Trazado_100594" data-name="Trazado 100594" d="M497.395,3498.648s7.539-1.933,8.683-.144.665,9.7-.663,10.813-7.855.443-7.855.443-.389-.73-.043-.75,5.79.946,7.226-.294.909-8.51.75-9.312-1.782-.769-2.705-.716-5.906,1.088-5.922.8A1.046,1.046,0,0,1,497.395,3498.648Z" transform="translate(-484.949 -3451.711)" fill="#1f303b"/>
      <path id="Trazado_100595" data-name="Trazado 100595" d="M510.329,3463.21a20.589,20.589,0,0,0-4.958,1.408c-1.884.794-3.608,1.2-5.821,2.325-1.119.568-1.261,2.11,0,1.971a15.327,15.327,0,0,0,4.895-1.717,22.809,22.809,0,0,1,6.409-2.085C512.1,3464.921,511.572,3463.026,510.329,3463.21Z" transform="translate(-484.501 -3460.355)" fill="#ea7e54"/>
      <path id="Trazado_100596" data-name="Trazado 100596" d="M525.041,3464.029c1.722.26,3.827,1.916,5.251,2.673,1.8.962,1.214.771,3.427,1.893,1.125.568,1.015,2.138-.25,2-1.78-.2-1.964-.808-3.566-1.567a50.213,50.213,0,0,0-5.415-2.693C523.8,3466.07,523.8,3463.841,525.041,3464.029Z" transform="translate(-478.152 -3460.15)" fill="#ea7e54"/>
    </g>
    <g id="Grupo_53793" data-name="Grupo 53793" transform="translate(583.59 3534.653)">
      <path id="Trazado_100597" data-name="Trazado 100597" d="M595.263,3561.192a24.66,24.66,0,1,1,24.659-24.66A24.66,24.66,0,0,1,595.263,3561.192Zm0-47.111a22.451,22.451,0,1,0,22.45,22.453h0A22.477,22.477,0,0,0,595.263,3514.081Z" transform="translate(-546.387 -3509.797)" fill="#4fa3b1"/>
      <g id="Grupo_53792" data-name="Grupo 53792" transform="translate(35.399 12.694)">
        <path id="Trazado_100598" data-name="Trazado 100598" d="M582.969,3539.358v-5.86a.4.4,0,0,0-.4-.4h-2.29a1.024,1.024,0,0,0-.726.977v4.918a1.021,1.021,0,0,0,.356.771h2.661A.4.4,0,0,0,582.969,3539.358Z" transform="translate(-579.548 -3517.181)" fill="#4fa3b1"/>
        <path id="Trazado_100599" data-name="Trazado 100599" d="M582.357,3535.212a1.478,1.478,0,0,1,1.477,1.475v2.334h1.288v-18.655h-3.788a.965.965,0,0,0-.965.965v13.878Z" transform="translate(-579.343 -3520.366)" fill="#4fa3b1"/>
        <path id="Trazado_100600" data-name="Trazado 100600" d="M583.834,3536.24v2.334a1.477,1.477,0,0,1-1.477,1.476h-1.99v2.9a.966.966,0,0,0,.965.965h3.789v-7.679Z" transform="translate(-579.343 -3516.394)" fill="#4fa3b1"/>
        <path id="Trazado_100601" data-name="Trazado 100601" d="M589.538,3536.24l1.568,7.143a.6.6,0,0,1-.106.484.941.941,0,0,0,.309.053h5.722v-7.679Z" transform="translate(-577.048 -3516.394)" fill="#4fa3b1"/>
        <path id="Trazado_100602" data-name="Trazado 100602" d="M591.048,3543.64l-1.625-7.4h-4.3v7.68h5.536a.949.949,0,0,0,.453-.115A.6.6,0,0,1,591.048,3543.64Z" transform="translate(-578.153 -3516.394)" fill="#4fa3b1"/>
        <path id="Trazado_100603" data-name="Trazado 100603" d="M589.205,3538.874l2.218-7.494-3.864-10.439a.969.969,0,0,0-.884-.575h-1.553v18.655h4.058A.664.664,0,0,1,589.205,3538.874Z" transform="translate(-578.153 -3520.366)" fill="#4fa3b1"/>
        <path id="Trazado_100604" data-name="Trazado 100604" d="M595.526,3520.366a.965.965,0,0,0-.768.384l-5.411,18.271h7.731v-18.655Z" transform="translate(-577.096 -3520.366)" fill="#4fa3b1"/>
        <path id="Trazado_100605" data-name="Trazado 100605" d="M601.789,3538.993v-4.918a1.023,1.023,0,0,0-.726-.977h-2.287a.4.4,0,0,0-.4.4v5.856a.4.4,0,0,0,.4.4h2.66A1.018,1.018,0,0,0,601.789,3538.993Z" transform="translate(-574.838 -3517.18)" fill="#4fa3b1"/>
        <path id="Trazado_100606" data-name="Trazado 100606" d="M597.773,3539.02v-2.334a1.478,1.478,0,0,1,1.475-1.475h1.99v-13.877a.966.966,0,0,0-.965-.965h-3.791v18.655Z" transform="translate(-575.31 -3520.365)" fill="#4fa3b1"/>
        <path id="Trazado_100607" data-name="Trazado 100607" d="M599.248,3540.052a1.476,1.476,0,0,1-1.475-1.476v-2.334h-1.289v7.68h3.789a.966.966,0,0,0,.966-.964h0v-2.906Z" transform="translate(-575.31 -3516.393)" fill="#4fa3b1"/>
      </g>
      <path id="Trazado_100608" data-name="Trazado 100608" d="M579.558,3526.221a.787.787,0,0,1-.366-.09l-27.5-14.417a.789.789,0,1,1,.673-1.427.53.53,0,0,1,.059.03l27.505,14.416a.789.789,0,0,1-.366,1.488Z" transform="translate(-551.234 -3510.212)" fill="#4fa3b1"/>
    </g>
    <g id="Grupo_53794" data-name="Grupo 53794" transform="translate(559.267 3461.668)">
      <path id="Trazado_100609" data-name="Trazado 100609" d="M595.263,3509.972a24.66,24.66,0,1,1,24.659-24.66A24.66,24.66,0,0,1,595.263,3509.972Zm0-47.111a22.452,22.452,0,1,0,22.45,22.453h0a22.477,22.477,0,0,0-22.45-22.445Z" transform="translate(-522.064 -3449.628)" fill="#4fa3b1"/>
      <path id="Trazado_100610" data-name="Trazado 100610" d="M608.872,3480.359a14.968,14.968,0,0,0-29.462,0c-1.719.346-4.325,1.565-4.325,5.78,0,4.67,3.2,5.663,4.848,5.865v.156a.637.637,0,0,0,.638.638h1.842a.637.637,0,0,0,.638-.638h0v-12.036a.637.637,0,0,0-.638-.637h-1.245a13.441,13.441,0,0,1,25.94,0h-1.241a.637.637,0,0,0-.638.637h0v12.036a.637.637,0,0,0,.638.638h1.842a.637.637,0,0,0,.638-.638h0v-.153c1.648-.2,4.848-1.194,4.848-5.865C613.2,3481.924,610.591,3480.7,608.872,3480.359Z" transform="translate(-520.942 -3447.781)" fill="#4fa3b1"/>
      <path id="Trazado_100611" data-name="Trazado 100611" d="M584.426,3476.792a.759.759,0,0,1-.324-.071l-51.884-23.389a.789.789,0,0,1,.648-1.437l51.884,23.389a.789.789,0,0,1-.324,1.509Z" transform="translate(-531.779 -3451.835)" fill="#4fa3b1"/>
    </g>
    <g id="Grupo_53795" data-name="Grupo 53795" transform="translate(558.872 3412.538)">
      <path id="Trazado_100612" data-name="Trazado 100612" d="M574.586,3461.857a24.659,24.659,0,1,1,24.658-24.661h0A24.687,24.687,0,0,1,574.586,3461.857Zm0-47.111a22.452,22.452,0,1,0,22.45,22.453h0a22.477,22.477,0,0,0-22.45-22.452Z" transform="translate(-526.843 -3412.538)" fill="#4fa3b1"/>
      <path id="Trazado_100613" data-name="Trazado 100613" d="M590.316,3440.364c-.113-.264-1.359-.528-1.359-.528-.476-11.02-6.1-15.181-7.856-16.217a.5.5,0,0,1-.025.049,15.407,15.407,0,0,0-1.708,3.661,98.764,98.764,0,0,0-.706,11.3.6.6,0,0,1-.6.582h-.013a.6.6,0,0,1-.584-.607c.009-.391.206-9.626.75-11.6a19.672,19.672,0,0,1,2.1-4.367,4.484,4.484,0,0,0-1.4-.739,2.191,2.191,0,0,0-.793.151,11.46,11.46,0,0,0-2.427-.489v.42c-.009.807-.021,1.613-.021,1.613a.6.6,0,0,1-.6.586h-.01a.6.6,0,0,1-.586-.6c.015-.933.028-1.951.029-2.57a13.491,13.491,0,0,0-1.405-.074,7.2,7.2,0,0,0-1.359.1.2.2,0,0,0-.03.014c0,.487,0,1.268-.018,2.549a.594.594,0,0,1-.6.586H571.1a.6.6,0,0,1-.588-.6h0c.009-.694.015-1.432.016-2.018a11.526,11.526,0,0,0-2.44.49,2.151,2.151,0,0,0-.793-.151,4.43,4.43,0,0,0-1.385.725,20.742,20.742,0,0,1,2.08,4.376c.543,1.968.741,11.2.75,11.6a.6.6,0,0,1-.583.607h-.014a.6.6,0,0,1-.6-.583,98.709,98.709,0,0,0-.706-11.3,15.29,15.29,0,0,0-1.708-3.661c-.01-.016-.016-.032-.025-.05-1.76,1.04-7.376,5.2-7.856,16.217,0,0-1.25.264-1.359.529a14.014,14.014,0,0,0,.037,2.529c.038.15.641.415.641.415,2.039.886,11.59.874,16.534.946,4.946-.076,14.5-.06,16.533-.946,0,0,.605-.264.641-.415A13.958,13.958,0,0,0,590.316,3440.364Z" transform="translate(-525.361 -3410.437)" fill="#4fa3b1"/>
      <path id="Trazado_100614" data-name="Trazado 100614" d="M532.243,3446.914a.789.789,0,0,1-.25-1.534l24.379-8.349a.789.789,0,1,1,.511,1.493l-24.379,8.349A.767.767,0,0,1,532.243,3446.914Z" transform="translate(-531.463 -3406.42)" fill="#4fa3b1"/>
    </g>
    <g id="Grupo_53798" data-name="Grupo 53798" transform="translate(421.926 3542.18)">
      <path id="Trazado_100620" data-name="Trazado 100620" d="M446.585,3565.552a24.659,24.659,0,1,1,24.659-24.659A24.66,24.66,0,0,1,446.585,3565.552Zm0-47.112a22.452,22.452,0,1,0,22.45,22.453h0A22.476,22.476,0,0,0,446.585,3518.44Z" transform="translate(-421.926 -3516.233)" fill="#4fa3b1"/>
      <path id="Trazado_100621" data-name="Trazado 100621" d="M460.066,3533.58a.788.788,0,0,1-.214-1.546l23.8-6.719a.789.789,0,0,1,.465,1.508l-.036.01-23.8,6.719A.763.763,0,0,1,460.066,3533.58Z" transform="translate(-412.58 -3513.969)" fill="#4fa3b1"/>
      <path id="Trazado_100622" data-name="Trazado 100622" d="M441.241,3523.968l12.312,3.666-3.078,8.751s4.085,11.612,1.343,12.591c-3.182,1.138-4.113-4.281-4.113-4.281s-3.022,9.905-4.868,9.4c-2.024-.551-.924-5.036-.924-5.036s-2.463,5.751-4.281,5.036c-1.932-.75.75-7.806.75-7.806s-2.358,5.809-4.365,5.036c-2.183-.839,2.182-9.989,2.182-9.989s-2.134,5.7-3.611,4.7c-2.1-1.428,4.841-11.921,4.841-11.921Z" transform="translate(-419.357 -3514.297)" fill="#4fa3b1"/>
    </g>
    <g id="Grupo_53799" data-name="Grupo 53799" transform="translate(421.926 3470.658)">
      <path id="Trazado_100623" data-name="Trazado 100623" d="M446.585,3516.579a24.659,24.659,0,1,1,24.659-24.659A24.66,24.66,0,0,1,446.585,3516.579Zm0-47.111a22.451,22.451,0,1,0,22.45,22.453h0a22.476,22.476,0,0,0-22.45-22.45Z" transform="translate(-421.926 -3456.965)" fill="#4fa3b1"/>
      <path id="Trazado_100624" data-name="Trazado 100624" d="M462.681,3489.34a.65.65,0,0,0-.911.124h0c-1.43,1.865-4.773,3.464-7.174,4.432a18.275,18.275,0,0,0,.026-7.626c2.544-.991,6.462-2.794,8.18-5.034a.651.651,0,1,0-1-.832c-.011.013-.02.025-.03.039-1.547,2.017-5.326,3.722-7.735,4.655-1.36-1.958-4.892-4.956-8.829-4.956s-7.47,3-8.83,4.956c-2.409-.933-6.189-2.638-7.735-4.655a.651.651,0,1,0-1.061.754l.029.039c1.717,2.24,5.636,4.043,8.179,5.034a18.254,18.254,0,0,0,.028,7.626c-2.4-.967-5.744-2.566-7.174-4.432a.651.651,0,1,0-1.061.755l.029.038c1.835,2.394,6.185,4.288,8.683,5.226.849,2.054,2.838,4.1,8.915,4.1s8.066-2.044,8.915-4.1c2.5-.938,6.846-2.833,8.683-5.226a.651.651,0,0,0-.116-.914Zm-23.687,5.84a.676.676,0,0,1-1.352.059.454.454,0,0,1,0-.059v-1.625a.676.676,0,1,1,1.352-.059.477.477,0,0,1,0,.059Zm0-8.159a.676.676,0,1,1-1.352.059.447.447,0,0,1,0-.059V3485.4a.676.676,0,1,1,1.352-.059.469.469,0,0,1,0,.059Zm13.769,8.159a.676.676,0,0,1-1.353,0v-1.625a.676.676,0,0,1,1.353,0h0Zm0-8.159a.676.676,0,0,1-1.353,0V3485.4a.676.676,0,0,1,1.353,0Z" transform="translate(-420.542 -3453.742)" fill="#4fa3b1"/>
      <path id="Trazado_100625" data-name="Trazado 100625" d="M459.369,3486.211a.789.789,0,0,1-.341-1.5l53.485-25.615a.789.789,0,0,1,.681,1.422l-53.487,25.615A.781.781,0,0,1,459.369,3486.211Z" transform="translate(-412.754 -3459.026)" fill="#4fa3b1"/>
    </g>
    <g id="Grupo_53800" data-name="Grupo 53800" transform="translate(421.926 3418.578)">
      <path id="Trazado_100626" data-name="Trazado 100626" d="M446.585,3466.688a24.659,24.659,0,1,1,24.659-24.659A24.66,24.66,0,0,1,446.585,3466.688Zm0-47.111a22.452,22.452,0,1,0,22.45,22.453h0a22.476,22.476,0,0,0-22.45-22.447Z" transform="translate(-421.926 -3417.369)" fill="#4fa3b1"/>
      <path id="Trazado_100627" data-name="Trazado 100627" d="M463.545,3435.283c-.309-.735-3.173-1.207-3.173-1.207h0a86.917,86.917,0,0,0-30.1,0h0s-2.863.471-3.174,1.207.116,3.057.7,3.134a3.8,3.8,0,0,0,.868-.053c.266,2.263.7,4.763,1.5,5.188,1.573.828,8.156,1.575,9.9,1.314s2.365-2.239,3.213-4.2.789-2.44,2.039-2.44,1.19.477,2.038,2.44,1.474,3.942,3.213,4.2,8.326-.486,9.9-1.314c.806-.425,1.239-2.924,1.5-5.187a3.783,3.783,0,0,0,.875.053C463.42,3438.339,463.849,3436.018,463.545,3435.283Z" transform="translate(-420.657 -3413.52)" fill="#4fa3b1"/>
      <path id="Trazado_100628" data-name="Trazado 100628" d="M507.657,3452.5a.765.765,0,0,1-.16-.016l-47.6-9.8a.79.79,0,0,1,.318-1.545l47.6,9.8a.789.789,0,0,1-.159,1.562Z" transform="translate(-412.573 -3411.422)" fill="#4fa3b1"/>
    </g>
    <path id="Trazado_100528-2" data-name="Trazado 100528" d="M496.322,3569.474h19.5c1.089-8.335,3.272-26.205,3.579-27.279.346-1.209.863-5.695,1.375-5.178.451.455,4.329,23.89,6.2,32.457h18.816c-.054-1.235-.106-2.153-.155-2.594-.345-3.107-1.209-14.5-1.209-16.227s-2.934-33.489-2.934-33.489-37.627-3.45-41.943.348c0,0-2.07,14.783-1.9,20.825C497.807,3543.859,496.542,3563.048,496.322,3569.474Z" transform="translate(18.616 25.821)" fill="#1a4057"/>
  </g>
</svg>
